  0
SECTION
  2
HEADER
  9
$ACADVER
  1
AC1009
  9
$ANGDIR
  70
0
  9
$CECOLOR
  62
256
  9
$CELTYPE
  6
BYLAYER
  9
$EXTMIN
  10
0.0
  20
0.0
  9
$EXTMAX
  10
4.775
  20
3.2581
  9
$FILLMODE
  70
1
  9
$MIRRTEXT
  70
0
  0
ENDSEC
  0
SECTION
  2
TABLES
  0
TABLE
  2
LAYER
  70
7
  0
LAYER
  2
Shapes
  70
64
  62
252
  6
CONTINUOUS
  0
LAYER
  2
Element
  70
64
  62
253
  6
CONTINUOUS
  0
LAYER
  2
Bus
  70
64
  62
180
  6
CONTINUOUS
  0
LAYER
  2
Net
  70
64
  62
50
  6
CONTINUOUS
  0
LAYER
  2
Pin
  70
64
  62
50
  6
CONTINUOUS
  0
LAYER
  2
Tables
  70
64
  62
253
  6
CONTINUOUS
  0
LAYER
  2
Titles
  70
64
  62
253
  6
CONTINUOUS
  0
ENDTAB
  0
ENDSEC
  0
SECTION
  2
ENTITIES
  0
POLYLINE
  8
Element
  6
CONTINUOUS
  66
1
  70
0
  40
0.0098
  41
0.0098
  0
VERTEX
  8
Element
  10
3.325
  20
0.8616
  42
0
  0
VERTEX
  8
Element
  10
3.475
  20
0.8616
  42
0
  0
SEQEND
  0
POLYLINE
  8
Element
  6
CONTINUOUS
  66
1
  70
0
  40
0.0049
  41
0.0049
  0
VERTEX
  8
Element
  10
3.3225
  20
0.8616
  42
1
  0
VERTEX
  8
Element
  10
3.3275
  20
0.8616
  42
1
  0
VERTEX
  8
Element
  10
3.3225
  20
0.8616
  42
1
  0
SEQEND
  0
POLYLINE
  8
Element
  6
CONTINUOUS
  66
1
  70
0
  40
0.0049
  41
0.0049
  0
VERTEX
  8
Element
  10
3.4725
  20
0.8616
  42
1
  0
VERTEX
  8
Element
  10
3.4775
  20
0.8616
  42
1
  0
VERTEX
  8
Element
  10
3.4725
  20
0.8616
  42
1
  0
SEQEND
  0
POLYLINE
  8
Element
  6
CONTINUOUS
  66
1
  70
0
  40
0.0098
  41
0.0098
  0
VERTEX
  8
Element
  10
3.325
  20
0.8366
  42
0
  0
VERTEX
  8
Element
  10
3.475
  20
0.8366
  42
0
  0
SEQEND
  0
POLYLINE
  8
Element
  6
CONTINUOUS
  66
1
  70
0
  40
0.0049
  41
0.0049
  0
VERTEX
  8
Element
  10
3.3225
  20
0.8366
  42
1
  0
VERTEX
  8
Element
  10
3.3275
  20
0.8366
  42
1
  0
VERTEX
  8
Element
  10
3.3225
  20
0.8366
  42
1
  0
SEQEND
  0
POLYLINE
  8
Element
  6
CONTINUOUS
  66
1
  70
0
  40
0.0049
  41
0.0049
  0
VERTEX
  8
Element
  10
3.4725
  20
0.8366
  42
1
  0
VERTEX
  8
Element
  10
3.4775
  20
0.8366
  42
1
  0
VERTEX
  8
Element
  10
3.4725
  20
0.8366
  42
1
  0
SEQEND
  0
POLYLINE
  8
Element
  6
CONTINUOUS
  66
1
  70
0
  40
0.0098
  41
0.0098
  0
VERTEX
  8
Element
  10
3.4
  20
0.8365
  42
0
  0
VERTEX
  8
Element
  10
3.4
  20
0.7991
  42
0
  0
SEQEND
  0
POLYLINE
  8
Element
  6
CONTINUOUS
  66
1
  70
0
  40
0.0049
  41
0.0049
  0
VERTEX
  8
Element
  10
3.3975
  20
0.8365
  42
1
  0
VERTEX
  8
Element
  10
3.4025
  20
0.8365
  42
1
  0
VERTEX
  8
Element
  10
3.3975
  20
0.8365
  42
1
  0
SEQEND
  0
POLYLINE
  8
Element
  6
CONTINUOUS
  66
1
  70
0
  40
0.0049
  41
0.0049
  0
VERTEX
  8
Element
  10
3.3975
  20
0.7991
  42
1
  0
VERTEX
  8
Element
  10
3.4025
  20
0.7991
  42
1
  0
VERTEX
  8
Element
  10
3.3975
  20
0.7991
  42
1
  0
SEQEND
  0
POLYLINE
  8
Element
  6
CONTINUOUS
  66
1
  70
0
  40
0.0098
  41
0.0098
  0
VERTEX
  8
Element
  10
3.4
  20
0.8991
  42
0
  0
VERTEX
  8
Element
  10
3.4
  20
0.8615
  42
0
  0
SEQEND
  0
POLYLINE
  8
Element
  6
CONTINUOUS
  66
1
  70
0
  40
0.0049
  41
0.0049
  0
VERTEX
  8
Element
  10
3.3975
  20
0.8991
  42
1
  0
VERTEX
  8
Element
  10
3.4025
  20
0.8991
  42
1
  0
VERTEX
  8
Element
  10
3.3975
  20
0.8991
  42
1
  0
SEQEND
  0
POLYLINE
  8
Element
  6
CONTINUOUS
  66
1
  70
0
  40
0.0049
  41
0.0049
  0
VERTEX
  8
Element
  10
3.3975
  20
0.8615
  42
1
  0
VERTEX
  8
Element
  10
3.4025
  20
0.8615
  42
1
  0
VERTEX
  8
Element
  10
3.3975
  20
0.8615
  42
1
  0
SEQEND
  0
POLYLINE
  8
Element
  6
CONTINUOUS
  66
1
  70
0
  40
0.0098
  41
0.0098
  0
VERTEX
  8
Element
  10
2.8
  20
0.6601
  42
0
  0
VERTEX
  8
Element
  10
2.7999
  20
0.5741
  42
0
  0
SEQEND
  0
POLYLINE
  8
Element
  6
CONTINUOUS
  66
1
  70
0
  40
0.0049
  41
0.0049
  0
VERTEX
  8
Element
  10
2.7975
  20
0.6601
  42
1
  0
VERTEX
  8
Element
  10
2.8025
  20
0.6601
  42
1
  0
VERTEX
  8
Element
  10
2.7975
  20
0.6601
  42
1
  0
SEQEND
  0
POLYLINE
  8
Element
  6
CONTINUOUS
  66
1
  70
0
  40
0.0049
  41
0.0049
  0
VERTEX
  8
Element
  10
2.7975
  20
0.5741
  42
1
  0
VERTEX
  8
Element
  10
2.8024
  20
0.5741
  42
1
  0
VERTEX
  8
Element
  10
2.7975
  20
0.5741
  42
1
  0
SEQEND
  0
POLYLINE
  8
Element
  6
CONTINUOUS
  66
1
  70
0
  40
0.0098
  41
0.0098
  0
VERTEX
  8
Element
  10
2.7438
  20
0.7366
  42
0
  0
VERTEX
  8
Element
  10
2.8001
  20
0.6615
  42
0
  0
SEQEND
  0
POLYLINE
  8
Element
  6
CONTINUOUS
  66
1
  70
0
  40
0.0049
  41
0.0049
  0
VERTEX
  8
Element
  10
2.7413
  20
0.7366
  42
1
  0
VERTEX
  8
Element
  10
2.7463
  20
0.7366
  42
1
  0
VERTEX
  8
Element
  10
2.7413
  20
0.7366
  42
1
  0
SEQEND
  0
POLYLINE
  8
Element
  6
CONTINUOUS
  66
1
  70
0
  40
0.0049
  41
0.0049
  0
VERTEX
  8
Element
  10
2.7976
  20
0.6615
  42
1
  0
VERTEX
  8
Element
  10
2.8025
  20
0.6615
  42
1
  0
VERTEX
  8
Element
  10
2.7976
  20
0.6615
  42
1
  0
SEQEND
  0
POLYLINE
  8
Element
  6
CONTINUOUS
  66
1
  70
0
  40
0.0098
  41
0.0098
  0
VERTEX
  8
Element
  10
2.8563
  20
0.6615
  42
0
  0
VERTEX
  8
Element
  10
2.7438
  20
0.6615
  42
0
  0
SEQEND
  0
POLYLINE
  8
Element
  6
CONTINUOUS
  66
1
  70
0
  40
0.0049
  41
0.0049
  0
VERTEX
  8
Element
  10
2.8539
  20
0.6615
  42
1
  0
VERTEX
  8
Element
  10
2.8588
  20
0.6615
  42
1
  0
VERTEX
  8
Element
  10
2.8539
  20
0.6615
  42
1
  0
SEQEND
  0
POLYLINE
  8
Element
  6
CONTINUOUS
  66
1
  70
0
  40
0.0049
  41
0.0049
  0
VERTEX
  8
Element
  10
2.7413
  20
0.6615
  42
1
  0
VERTEX
  8
Element
  10
2.7463
  20
0.6615
  42
1
  0
VERTEX
  8
Element
  10
2.7413
  20
0.6615
  42
1
  0
SEQEND
  0
POLYLINE
  8
Element
  6
CONTINUOUS
  66
1
  70
0
  40
0.0098
  41
0.0098
  0
VERTEX
  8
Element
  10
2.8001
  20
0.8241
  42
0
  0
VERTEX
  8
Element
  10
2.8
  20
0.7371
  42
0
  0
SEQEND
  0
POLYLINE
  8
Element
  6
CONTINUOUS
  66
1
  70
0
  40
0.0049
  41
0.0049
  0
VERTEX
  8
Element
  10
2.7976
  20
0.8241
  42
1
  0
VERTEX
  8
Element
  10
2.8025
  20
0.8241
  42
1
  0
VERTEX
  8
Element
  10
2.7976
  20
0.8241
  42
1
  0
SEQEND
  0
POLYLINE
  8
Element
  6
CONTINUOUS
  66
1
  70
0
  40
0.0049
  41
0.0049
  0
VERTEX
  8
Element
  10
2.7975
  20
0.7371
  42
1
  0
VERTEX
  8
Element
  10
2.8025
  20
0.7371
  42
1
  0
VERTEX
  8
Element
  10
2.7975
  20
0.7371
  42
1
  0
SEQEND
  0
POLYLINE
  8
Element
  6
CONTINUOUS
  66
1
  70
0
  40
0.0098
  41
0.0098
  0
VERTEX
  8
Element
  10
2.8001
  20
0.6615
  42
0
  0
VERTEX
  8
Element
  10
2.8563
  20
0.7366
  42
0
  0
SEQEND
  0
POLYLINE
  8
Element
  6
CONTINUOUS
  66
1
  70
0
  40
0.0049
  41
0.0049
  0
VERTEX
  8
Element
  10
2.7976
  20
0.6615
  42
1
  0
VERTEX
  8
Element
  10
2.8025
  20
0.6615
  42
1
  0
VERTEX
  8
Element
  10
2.7976
  20
0.6615
  42
1
  0
SEQEND
  0
POLYLINE
  8
Element
  6
CONTINUOUS
  66
1
  70
0
  40
0.0049
  41
0.0049
  0
VERTEX
  8
Element
  10
2.8539
  20
0.7366
  42
1
  0
VERTEX
  8
Element
  10
2.8588
  20
0.7366
  42
1
  0
VERTEX
  8
Element
  10
2.8539
  20
0.7366
  42
1
  0
SEQEND
  0
POLYLINE
  8
Element
  6
CONTINUOUS
  66
1
  70
0
  40
0.0098
  41
0.0098
  0
VERTEX
  8
Element
  10
2.7438
  20
0.7366
  42
0
  0
VERTEX
  8
Element
  10
2.8563
  20
0.7366
  42
0
  0
SEQEND
  0
POLYLINE
  8
Element
  6
CONTINUOUS
  66
1
  70
0
  40
0.0049
  41
0.0049
  0
VERTEX
  8
Element
  10
2.7413
  20
0.7366
  42
1
  0
VERTEX
  8
Element
  10
2.7463
  20
0.7366
  42
1
  0
VERTEX
  8
Element
  10
2.7413
  20
0.7366
  42
1
  0
SEQEND
  0
POLYLINE
  8
Element
  6
CONTINUOUS
  66
1
  70
0
  40
0.0049
  41
0.0049
  0
VERTEX
  8
Element
  10
2.8539
  20
0.7366
  42
1
  0
VERTEX
  8
Element
  10
2.8588
  20
0.7366
  42
1
  0
VERTEX
  8
Element
  10
2.8539
  20
0.7366
  42
1
  0
SEQEND
  0
POLYLINE
  8
Element
  6
CONTINUOUS
  66
1
  70
0
  40
0.0098
  41
0.0098
  0
VERTEX
  8
Element
  10
2.8813
  20
0.6991
  42
0
  0
VERTEX
  8
Element
  10
2.9562
  20
0.6241
  42
0
  0
VERTEX
  8
Element
  10
2.8813
  20
0.6991
  42
0
  0
SEQEND
  0
POLYLINE
  8
Element
  6
CONTINUOUS
  66
1
  70
0
  40
0.0049
  41
0.0049
  0
VERTEX
  8
Element
  10
2.8789
  20
0.6991
  42
1
  0
VERTEX
  8
Element
  10
2.8838
  20
0.6991
  42
1
  0
VERTEX
  8
Element
  10
2.8789
  20
0.6991
  42
1
  0
SEQEND
  0
POLYLINE
  8
Element
  6
CONTINUOUS
  66
1
  70
0
  40
0.0098
  41
0.0098
  0
VERTEX
  8
Element
  10
2.8813
  20
0.6491
  42
0
  0
VERTEX
  8
Element
  10
2.9562
  20
0.5741
  42
0
  0
VERTEX
  8
Element
  10
2.8813
  20
0.6491
  42
0
  0
SEQEND
  0
POLYLINE
  8
Element
  6
CONTINUOUS
  66
1
  70
0
  40
0.0049
  41
0.0049
  0
VERTEX
  8
Element
  10
2.8789
  20
0.6491
  42
1
  0
VERTEX
  8
Element
  10
2.8838
  20
0.6491
  42
1
  0
VERTEX
  8
Element
  10
2.8789
  20
0.6491
  42
1
  0
SEQEND
  0
POLYLINE
  8
Element
  6
CONTINUOUS
  66
1
  70
0
  40
0.0098
  41
0.0098
  0
VERTEX
  8
Element
  10
3.25
  20
2.1141
  42
0
  0
VERTEX
  8
Element
  10
4.2
  20
2.1141
  42
0
  0
VERTEX
  8
Element
  10
4.2
  20
1.4841
  42
0
  0
VERTEX
  8
Element
  10
3.25
  20
1.4841
  42
0
  0
VERTEX
  8
Element
  10
3.25
  20
2.1141
  42
0
  0
SEQEND
  0
POLYLINE
  8
Element
  6
CONTINUOUS
  66
1
  70
0
  40
0.0098
  41
0.0098
  0
VERTEX
  8
Element
  10
1.0625
  20
1.6491
  42
0
  0
VERTEX
  8
Element
  10
1.0313
  20
1.6491
  42
0
  0
SEQEND
  0
POLYLINE
  8
Element
  6
CONTINUOUS
  66
1
  70
0
  40
0.0049
  41
0.0049
  0
VERTEX
  8
Element
  10
1.06
  20
1.6491
  42
1
  0
VERTEX
  8
Element
  10
1.065
  20
1.6491
  42
1
  0
VERTEX
  8
Element
  10
1.06
  20
1.6491
  42
1
  0
SEQEND
  0
POLYLINE
  8
Element
  6
CONTINUOUS
  66
1
  70
0
  40
0.0049
  41
0.0049
  0
VERTEX
  8
Element
  10
1.0288
  20
1.6491
  42
1
  0
VERTEX
  8
Element
  10
1.0337
  20
1.6491
  42
1
  0
VERTEX
  8
Element
  10
1.0288
  20
1.6491
  42
1
  0
SEQEND
  0
POLYLINE
  8
Element
  6
CONTINUOUS
  66
1
  70
0
  40
0.0098
  41
0.0098
  0
VERTEX
  8
Element
  10
1.0625
  20
1.7491
  42
0
  0
VERTEX
  8
Element
  10
1.0313
  20
1.7491
  42
0
  0
SEQEND
  0
POLYLINE
  8
Element
  6
CONTINUOUS
  66
1
  70
0
  40
0.0049
  41
0.0049
  0
VERTEX
  8
Element
  10
1.06
  20
1.7491
  42
1
  0
VERTEX
  8
Element
  10
1.065
  20
1.7491
  42
1
  0
VERTEX
  8
Element
  10
1.06
  20
1.7491
  42
1
  0
SEQEND
  0
POLYLINE
  8
Element
  6
CONTINUOUS
  66
1
  70
0
  40
0.0049
  41
0.0049
  0
VERTEX
  8
Element
  10
1.0288
  20
1.7491
  42
1
  0
VERTEX
  8
Element
  10
1.0337
  20
1.7491
  42
1
  0
VERTEX
  8
Element
  10
1.0288
  20
1.7491
  42
1
  0
SEQEND
  0
POLYLINE
  8
Element
  6
CONTINUOUS
  66
1
  70
0
  40
0.0098
  41
0.0098
  0
VERTEX
  8
Element
  10
0.8438
  20
1.6991
  42
0
  0
VERTEX
  8
Element
  10
0.8486
  20
1.6682
  42
0
  0
VERTEX
  8
Element
  10
0.8628
  20
1.6403
  42
0
  0
VERTEX
  8
Element
  10
0.885
  20
1.6182
  42
0
  0
VERTEX
  8
Element
  10
0.9128
  20
1.6039
  42
0
  0
VERTEX
  8
Element
  10
0.9438
  20
1.5991
  42
0
  0
VERTEX
  8
Element
  10
0.9747
  20
1.6039
  42
0
  0
VERTEX
  8
Element
  10
1.0025
  20
1.6182
  42
0
  0
VERTEX
  8
Element
  10
1.0247
  20
1.6403
  42
0
  0
VERTEX
  8
Element
  10
1.0389
  20
1.6682
  42
0
  0
VERTEX
  8
Element
  10
1.0438
  20
1.6991
  42
0
  0
VERTEX
  8
Element
  10
1.0389
  20
1.73
  42
0
  0
VERTEX
  8
Element
  10
1.0247
  20
1.7578
  42
0
  0
VERTEX
  8
Element
  10
1.0025
  20
1.78
  42
0
  0
VERTEX
  8
Element
  10
0.9747
  20
1.7942
  42
0
  0
VERTEX
  8
Element
  10
0.9438
  20
1.7991
  42
0
  0
VERTEX
  8
Element
  10
0.9128
  20
1.7942
  42
0
  0
VERTEX
  8
Element
  10
0.885
  20
1.78
  42
0
  0
VERTEX
  8
Element
  10
0.8628
  20
1.7578
  42
0
  0
VERTEX
  8
Element
  10
0.8486
  20
1.73
  42
0
  0
VERTEX
  8
Element
  10
0.8438
  20
1.6991
  42
0
  0
SEQEND
  0
POLYLINE
  8
Element
  6
CONTINUOUS
  66
1
  70
0
  40
0.0049
  41
0.0049
  0
VERTEX
  8
Element
  10
0.8413
  20
1.6991
  42
1
  0
VERTEX
  8
Element
  10
0.8462
  20
1.6991
  42
1
  0
VERTEX
  8
Element
  10
0.8413
  20
1.6991
  42
1
  0
SEQEND
  0
POLYLINE
  8
Element
  6
CONTINUOUS
  66
1
  70
0
  40
0.0197
  41
0.0197
  0
VERTEX
  8
Element
  10
0.8375
  20
1.5991
  42
0
  0
VERTEX
  8
Element
  10
0.8375
  20
1.7991
  42
0
  0
SEQEND
  0
POLYLINE
  8
Element
  6
CONTINUOUS
  66
1
  70
0
  40
0.0098
  41
0.0098
  0
VERTEX
  8
Element
  10
0.8326
  20
1.5991
  42
1
  0
VERTEX
  8
Element
  10
0.8424
  20
1.5991
  42
1
  0
VERTEX
  8
Element
  10
0.8326
  20
1.5991
  42
1
  0
SEQEND
  0
POLYLINE
  8
Element
  6
CONTINUOUS
  66
1
  70
0
  40
0.0098
  41
0.0098
  0
VERTEX
  8
Element
  10
0.8326
  20
1.7991
  42
1
  0
VERTEX
  8
Element
  10
0.8424
  20
1.7991
  42
1
  0
VERTEX
  8
Element
  10
0.8326
  20
1.7991
  42
1
  0
SEQEND
  0
POLYLINE
  8
Element
  6
CONTINUOUS
  66
1
  70
0
  40
0.0098
  41
0.0098
  0
VERTEX
  8
Element
  10
0.0
  20
3.1991
  42
0
  0
VERTEX
  8
Element
  10
0.2
  20
3.1991
  42
0
  0
SEQEND
  0
POLYLINE
  8
Element
  6
CONTINUOUS
  66
1
  70
0
  40
0.0049
  41
0.0049
  0
VERTEX
  8
Element
  10
-0.0025
  20
3.1991
  42
1
  0
VERTEX
  8
Element
  10
0.0025
  20
3.1991
  42
1
  0
VERTEX
  8
Element
  10
-0.0025
  20
3.1991
  42
1
  0
SEQEND
  0
POLYLINE
  8
Element
  6
CONTINUOUS
  66
1
  70
0
  40
0.0049
  41
0.0049
  0
VERTEX
  8
Element
  10
0.1975
  20
3.1991
  42
1
  0
VERTEX
  8
Element
  10
0.2025
  20
3.1991
  42
1
  0
VERTEX
  8
Element
  10
0.1975
  20
3.1991
  42
1
  0
SEQEND
  0
POLYLINE
  8
Element
  6
CONTINUOUS
  66
1
  70
0
  40
0.0098
  41
0.0098
  0
VERTEX
  8
Element
  10
0.025
  20
0.0991
  42
0
  0
VERTEX
  8
Element
  10
0.175
  20
0.0991
  42
0
  0
SEQEND
  0
POLYLINE
  8
Element
  6
CONTINUOUS
  66
1
  70
0
  40
0.0049
  41
0.0049
  0
VERTEX
  8
Element
  10
0.0225
  20
0.0991
  42
1
  0
VERTEX
  8
Element
  10
0.0275
  20
0.0991
  42
1
  0
VERTEX
  8
Element
  10
0.0225
  20
0.0991
  42
1
  0
SEQEND
  0
POLYLINE
  8
Element
  6
CONTINUOUS
  66
1
  70
0
  40
0.0049
  41
0.0049
  0
VERTEX
  8
Element
  10
0.1725
  20
0.0991
  42
1
  0
VERTEX
  8
Element
  10
0.1775
  20
0.0991
  42
1
  0
VERTEX
  8
Element
  10
0.1725
  20
0.0991
  42
1
  0
SEQEND
  0
POLYLINE
  8
Element
  6
CONTINUOUS
  66
1
  70
0
  40
0.0098
  41
0.0098
  0
VERTEX
  8
Element
  10
0.05
  20
0.0591
  42
0
  0
VERTEX
  8
Element
  10
0.15
  20
0.0591
  42
0
  0
SEQEND
  0
POLYLINE
  8
Element
  6
CONTINUOUS
  66
1
  70
0
  40
0.0049
  41
0.0049
  0
VERTEX
  8
Element
  10
0.0475
  20
0.0591
  42
1
  0
VERTEX
  8
Element
  10
0.0525
  20
0.0591
  42
1
  0
VERTEX
  8
Element
  10
0.0475
  20
0.0591
  42
1
  0
SEQEND
  0
POLYLINE
  8
Element
  6
CONTINUOUS
  66
1
  70
0
  40
0.0049
  41
0.0049
  0
VERTEX
  8
Element
  10
0.1475
  20
0.0591
  42
1
  0
VERTEX
  8
Element
  10
0.1525
  20
0.0591
  42
1
  0
VERTEX
  8
Element
  10
0.1475
  20
0.0591
  42
1
  0
SEQEND
  0
POLYLINE
  8
Element
  6
CONTINUOUS
  66
1
  70
0
  40
0.0098
  41
0.0098
  0
VERTEX
  8
Element
  10
0.08
  20
0.0191
  42
0
  0
VERTEX
  8
Element
  10
0.12
  20
0.0191
  42
0
  0
SEQEND
  0
POLYLINE
  8
Element
  6
CONTINUOUS
  66
1
  70
0
  40
0.0049
  41
0.0049
  0
VERTEX
  8
Element
  10
0.0775
  20
0.0191
  42
1
  0
VERTEX
  8
Element
  10
0.0825
  20
0.0191
  42
1
  0
VERTEX
  8
Element
  10
0.0775
  20
0.0191
  42
1
  0
SEQEND
  0
POLYLINE
  8
Element
  6
CONTINUOUS
  66
1
  70
0
  40
0.0049
  41
0.0049
  0
VERTEX
  8
Element
  10
0.1175
  20
0.0191
  42
1
  0
VERTEX
  8
Element
  10
0.1225
  20
0.0191
  42
1
  0
VERTEX
  8
Element
  10
0.1175
  20
0.0191
  42
1
  0
SEQEND
  0
POLYLINE
  8
Element
  6
CONTINUOUS
  66
1
  70
0
  40
0.01
  41
0.01
  0
VERTEX
  8
Element
  10
1.35
  20
1.2491
  42
0
  0
VERTEX
  8
Element
  10
1.3573
  20
1.2027
  42
0
  0
VERTEX
  8
Element
  10
1.3786
  20
1.1609
  42
0
  0
VERTEX
  8
Element
  10
1.4118
  20
1.1277
  42
0
  0
VERTEX
  8
Element
  10
1.4536
  20
1.1064
  42
0
  0
VERTEX
  8
Element
  10
1.5
  20
1.0991
  42
0
  0
VERTEX
  8
Element
  10
1.5464
  20
1.1064
  42
0
  0
VERTEX
  8
Element
  10
1.5882
  20
1.1277
  42
0
  0
VERTEX
  8
Element
  10
1.6214
  20
1.1609
  42
0
  0
VERTEX
  8
Element
  10
1.6427
  20
1.2027
  42
0
  0
VERTEX
  8
Element
  10
1.65
  20
1.2491
  42
0
  0
VERTEX
  8
Element
  10
1.6427
  20
1.2954
  42
0
  0
VERTEX
  8
Element
  10
1.6214
  20
1.3372
  42
0
  0
VERTEX
  8
Element
  10
1.5882
  20
1.3704
  42
0
  0
VERTEX
  8
Element
  10
1.5464
  20
1.3917
  42
0
  0
VERTEX
  8
Element
  10
1.5
  20
1.3991
  42
0
  0
VERTEX
  8
Element
  10
1.4536
  20
1.3917
  42
0
  0
VERTEX
  8
Element
  10
1.4118
  20
1.3704
  42
0
  0
VERTEX
  8
Element
  10
1.3786
  20
1.3372
  42
0
  0
VERTEX
  8
Element
  10
1.3573
  20
1.2954
  42
0
  0
VERTEX
  8
Element
  10
1.35
  20
1.2491
  42
0
  0
SEQEND
  0
POLYLINE
  8
Element
  6
CONTINUOUS
  66
1
  70
0
  40
0.005
  41
0.005
  0
VERTEX
  8
Element
  10
1.3475
  20
1.2491
  42
1
  0
VERTEX
  8
Element
  10
1.3525
  20
1.2491
  42
1
  0
VERTEX
  8
Element
  10
1.3475
  20
1.2491
  42
1
  0
SEQEND
  0
POLYLINE
  8
Element
  6
CONTINUOUS
  66
1
  70
0
  40
0.0098
  41
0.0098
  0
VERTEX
  8
Element
  10
1.35
  20
1.2491
  42
0
  0
VERTEX
  8
Element
  10
1.438
  20
1.2491
  42
0
  0
SEQEND
  0
POLYLINE
  8
Element
  6
CONTINUOUS
  66
1
  70
0
  40
0.0049
  41
0.0049
  0
VERTEX
  8
Element
  10
1.3475
  20
1.2491
  42
1
  0
VERTEX
  8
Element
  10
1.3525
  20
1.2491
  42
1
  0
VERTEX
  8
Element
  10
1.3475
  20
1.2491
  42
1
  0
SEQEND
  0
POLYLINE
  8
Element
  6
CONTINUOUS
  66
1
  70
0
  40
0.0049
  41
0.0049
  0
VERTEX
  8
Element
  10
1.4355
  20
1.2491
  42
1
  0
VERTEX
  8
Element
  10
1.4405
  20
1.2491
  42
1
  0
VERTEX
  8
Element
  10
1.4355
  20
1.2491
  42
1
  0
SEQEND
  0
POLYLINE
  8
Element
  6
CONTINUOUS
  66
1
  70
0
  40
0.0098
  41
0.0098
  0
VERTEX
  8
Element
  10
1.596
  20
1.1631
  42
0
  0
VERTEX
  8
Element
  10
1.558
  20
1.1901
  42
0
  0
VERTEX
  8
Element
  10
1.55
  20
1.1631
  42
0
  0
SEQEND
  0
POLYLINE
  8
Element
  6
CONTINUOUS
  66
1
  70
0
  40
0.0049
  41
0.0049
  0
VERTEX
  8
Element
  10
1.5935
  20
1.1631
  42
1
  0
VERTEX
  8
Element
  10
1.5985
  20
1.1631
  42
1
  0
VERTEX
  8
Element
  10
1.5935
  20
1.1631
  42
1
  0
SEQEND
  0
POLYLINE
  8
Element
  6
CONTINUOUS
  66
1
  70
0
  40
0.0049
  41
0.0049
  0
VERTEX
  8
Element
  10
1.5475
  20
1.1631
  42
1
  0
VERTEX
  8
Element
  10
1.5525
  20
1.1631
  42
1
  0
VERTEX
  8
Element
  10
1.5475
  20
1.1631
  42
1
  0
SEQEND
  0
POLYLINE
  8
Element
  6
CONTINUOUS
  66
1
  70
0
  40
0.0098
  41
0.0098
  0
VERTEX
  8
Element
  10
1.6
  20
1.0991
  42
0
  0
VERTEX
  8
Element
  10
1.6
  20
1.1621
  42
0
  0
SEQEND
  0
POLYLINE
  8
Element
  6
CONTINUOUS
  66
1
  70
0
  40
0.0049
  41
0.0049
  0
VERTEX
  8
Element
  10
1.5975
  20
1.0991
  42
1
  0
VERTEX
  8
Element
  10
1.6025
  20
1.0991
  42
1
  0
VERTEX
  8
Element
  10
1.5975
  20
1.0991
  42
1
  0
SEQEND
  0
POLYLINE
  8
Element
  6
CONTINUOUS
  66
1
  70
0
  40
0.0049
  41
0.0049
  0
VERTEX
  8
Element
  10
1.5975
  20
1.1621
  42
1
  0
VERTEX
  8
Element
  10
1.6025
  20
1.1621
  42
1
  0
VERTEX
  8
Element
  10
1.5975
  20
1.1621
  42
1
  0
SEQEND
  0
POLYLINE
  8
Element
  6
CONTINUOUS
  66
1
  70
0
  40
0.0098
  41
0.0098
  0
VERTEX
  8
Element
  10
1.438
  20
1.286
  42
0
  0
VERTEX
  8
Element
  10
1.6
  20
1.3361
  42
0
  0
SEQEND
  0
POLYLINE
  8
Element
  6
CONTINUOUS
  66
1
  70
0
  40
0.0049
  41
0.0049
  0
VERTEX
  8
Element
  10
1.4355
  20
1.286
  42
1
  0
VERTEX
  8
Element
  10
1.4405
  20
1.286
  42
1
  0
VERTEX
  8
Element
  10
1.4355
  20
1.286
  42
1
  0
SEQEND
  0
POLYLINE
  8
Element
  6
CONTINUOUS
  66
1
  70
0
  40
0.0049
  41
0.0049
  0
VERTEX
  8
Element
  10
1.5975
  20
1.3361
  42
1
  0
VERTEX
  8
Element
  10
1.6025
  20
1.3361
  42
1
  0
VERTEX
  8
Element
  10
1.5975
  20
1.3361
  42
1
  0
SEQEND
  0
POLYLINE
  8
Element
  6
CONTINUOUS
  66
1
  70
0
  40
0.0098
  41
0.0098
  0
VERTEX
  8
Element
  10
1.438
  20
1.1621
  42
0
  0
VERTEX
  8
Element
  10
1.438
  20
1.336
  42
0
  0
SEQEND
  0
POLYLINE
  8
Element
  6
CONTINUOUS
  66
1
  70
0
  40
0.0049
  41
0.0049
  0
VERTEX
  8
Element
  10
1.4355
  20
1.1621
  42
1
  0
VERTEX
  8
Element
  10
1.4405
  20
1.1621
  42
1
  0
VERTEX
  8
Element
  10
1.4355
  20
1.1621
  42
1
  0
SEQEND
  0
POLYLINE
  8
Element
  6
CONTINUOUS
  66
1
  70
0
  40
0.0049
  41
0.0049
  0
VERTEX
  8
Element
  10
1.4355
  20
1.336
  42
1
  0
VERTEX
  8
Element
  10
1.4405
  20
1.336
  42
1
  0
VERTEX
  8
Element
  10
1.4355
  20
1.336
  42
1
  0
SEQEND
  0
POLYLINE
  8
Element
  6
CONTINUOUS
  66
1
  70
0
  40
0.0098
  41
0.0098
  0
VERTEX
  8
Element
  10
1.6
  20
1.3361
  42
0
  0
VERTEX
  8
Element
  10
1.6
  20
1.3991
  42
0
  0
SEQEND
  0
POLYLINE
  8
Element
  6
CONTINUOUS
  66
1
  70
0
  40
0.0049
  41
0.0049
  0
VERTEX
  8
Element
  10
1.5975
  20
1.3361
  42
1
  0
VERTEX
  8
Element
  10
1.6025
  20
1.3361
  42
1
  0
VERTEX
  8
Element
  10
1.5975
  20
1.3361
  42
1
  0
SEQEND
  0
POLYLINE
  8
Element
  6
CONTINUOUS
  66
1
  70
0
  40
0.0049
  41
0.0049
  0
VERTEX
  8
Element
  10
1.5975
  20
1.3991
  42
1
  0
VERTEX
  8
Element
  10
1.6025
  20
1.3991
  42
1
  0
VERTEX
  8
Element
  10
1.5975
  20
1.3991
  42
1
  0
SEQEND
  0
POLYLINE
  8
Element
  6
CONTINUOUS
  66
1
  70
0
  40
0.0098
  41
0.0098
  0
VERTEX
  8
Element
  10
1.438
  20
1.2121
  42
0
  0
VERTEX
  8
Element
  10
1.6
  20
1.1621
  42
0
  0
SEQEND
  0
POLYLINE
  8
Element
  6
CONTINUOUS
  66
1
  70
0
  40
0.0049
  41
0.0049
  0
VERTEX
  8
Element
  10
1.4355
  20
1.2121
  42
1
  0
VERTEX
  8
Element
  10
1.4405
  20
1.2121
  42
1
  0
VERTEX
  8
Element
  10
1.4355
  20
1.2121
  42
1
  0
SEQEND
  0
POLYLINE
  8
Element
  6
CONTINUOUS
  66
1
  70
0
  40
0.0049
  41
0.0049
  0
VERTEX
  8
Element
  10
1.5975
  20
1.1621
  42
1
  0
VERTEX
  8
Element
  10
1.6025
  20
1.1621
  42
1
  0
VERTEX
  8
Element
  10
1.5975
  20
1.1621
  42
1
  0
SEQEND
  0
POLYLINE
  8
Element
  6
CONTINUOUS
  66
1
  70
0
  40
0.01
  41
0.01
  0
VERTEX
  8
Element
  10
1.85
  20
1.5491
  42
0
  0
VERTEX
  8
Element
  10
1.8573
  20
1.5027
  42
0
  0
VERTEX
  8
Element
  10
1.8786
  20
1.4609
  42
0
  0
VERTEX
  8
Element
  10
1.9118
  20
1.4277
  42
0
  0
VERTEX
  8
Element
  10
1.9536
  20
1.4064
  42
0
  0
VERTEX
  8
Element
  10
2.0
  20
1.3991
  42
0
  0
VERTEX
  8
Element
  10
2.0464
  20
1.4064
  42
0
  0
VERTEX
  8
Element
  10
2.0882
  20
1.4277
  42
0
  0
VERTEX
  8
Element
  10
2.1214
  20
1.4609
  42
0
  0
VERTEX
  8
Element
  10
2.1427
  20
1.5027
  42
0
  0
VERTEX
  8
Element
  10
2.15
  20
1.5491
  42
0
  0
VERTEX
  8
Element
  10
2.1427
  20
1.5954
  42
0
  0
VERTEX
  8
Element
  10
2.1214
  20
1.6372
  42
0
  0
VERTEX
  8
Element
  10
2.0882
  20
1.6704
  42
0
  0
VERTEX
  8
Element
  10
2.0464
  20
1.6917
  42
0
  0
VERTEX
  8
Element
  10
2.0
  20
1.6991
  42
0
  0
VERTEX
  8
Element
  10
1.9536
  20
1.6917
  42
0
  0
VERTEX
  8
Element
  10
1.9118
  20
1.6704
  42
0
  0
VERTEX
  8
Element
  10
1.8786
  20
1.6372
  42
0
  0
VERTEX
  8
Element
  10
1.8573
  20
1.5954
  42
0
  0
VERTEX
  8
Element
  10
1.85
  20
1.5491
  42
0
  0
SEQEND
  0
POLYLINE
  8
Element
  6
CONTINUOUS
  66
1
  70
0
  40
0.005
  41
0.005
  0
VERTEX
  8
Element
  10
1.8475
  20
1.5491
  42
1
  0
VERTEX
  8
Element
  10
1.8525
  20
1.5491
  42
1
  0
VERTEX
  8
Element
  10
1.8475
  20
1.5491
  42
1
  0
SEQEND
  0
POLYLINE
  8
Element
  6
CONTINUOUS
  66
1
  70
0
  40
0.0098
  41
0.0098
  0
VERTEX
  8
Element
  10
1.85
  20
1.5491
  42
0
  0
VERTEX
  8
Element
  10
1.938
  20
1.5491
  42
0
  0
SEQEND
  0
POLYLINE
  8
Element
  6
CONTINUOUS
  66
1
  70
0
  40
0.0049
  41
0.0049
  0
VERTEX
  8
Element
  10
1.8475
  20
1.5491
  42
1
  0
VERTEX
  8
Element
  10
1.8525
  20
1.5491
  42
1
  0
VERTEX
  8
Element
  10
1.8475
  20
1.5491
  42
1
  0
SEQEND
  0
POLYLINE
  8
Element
  6
CONTINUOUS
  66
1
  70
0
  40
0.0049
  41
0.0049
  0
VERTEX
  8
Element
  10
1.9355
  20
1.5491
  42
1
  0
VERTEX
  8
Element
  10
1.9405
  20
1.5491
  42
1
  0
VERTEX
  8
Element
  10
1.9355
  20
1.5491
  42
1
  0
SEQEND
  0
POLYLINE
  8
Element
  6
CONTINUOUS
  66
1
  70
0
  40
0.0098
  41
0.0098
  0
VERTEX
  8
Element
  10
2.096
  20
1.4631
  42
0
  0
VERTEX
  8
Element
  10
2.058
  20
1.4901
  42
0
  0
VERTEX
  8
Element
  10
2.05
  20
1.4631
  42
0
  0
SEQEND
  0
POLYLINE
  8
Element
  6
CONTINUOUS
  66
1
  70
0
  40
0.0049
  41
0.0049
  0
VERTEX
  8
Element
  10
2.0935
  20
1.4631
  42
1
  0
VERTEX
  8
Element
  10
2.0985
  20
1.4631
  42
1
  0
VERTEX
  8
Element
  10
2.0935
  20
1.4631
  42
1
  0
SEQEND
  0
POLYLINE
  8
Element
  6
CONTINUOUS
  66
1
  70
0
  40
0.0049
  41
0.0049
  0
VERTEX
  8
Element
  10
2.0475
  20
1.4631
  42
1
  0
VERTEX
  8
Element
  10
2.0525
  20
1.4631
  42
1
  0
VERTEX
  8
Element
  10
2.0475
  20
1.4631
  42
1
  0
SEQEND
  0
POLYLINE
  8
Element
  6
CONTINUOUS
  66
1
  70
0
  40
0.0098
  41
0.0098
  0
VERTEX
  8
Element
  10
2.1
  20
1.3991
  42
0
  0
VERTEX
  8
Element
  10
2.1
  20
1.4621
  42
0
  0
SEQEND
  0
POLYLINE
  8
Element
  6
CONTINUOUS
  66
1
  70
0
  40
0.0049
  41
0.0049
  0
VERTEX
  8
Element
  10
2.0975
  20
1.3991
  42
1
  0
VERTEX
  8
Element
  10
2.1025
  20
1.3991
  42
1
  0
VERTEX
  8
Element
  10
2.0975
  20
1.3991
  42
1
  0
SEQEND
  0
POLYLINE
  8
Element
  6
CONTINUOUS
  66
1
  70
0
  40
0.0049
  41
0.0049
  0
VERTEX
  8
Element
  10
2.0975
  20
1.4621
  42
1
  0
VERTEX
  8
Element
  10
2.1025
  20
1.4621
  42
1
  0
VERTEX
  8
Element
  10
2.0975
  20
1.4621
  42
1
  0
SEQEND
  0
POLYLINE
  8
Element
  6
CONTINUOUS
  66
1
  70
0
  40
0.0098
  41
0.0098
  0
VERTEX
  8
Element
  10
1.938
  20
1.586
  42
0
  0
VERTEX
  8
Element
  10
2.1
  20
1.6361
  42
0
  0
SEQEND
  0
POLYLINE
  8
Element
  6
CONTINUOUS
  66
1
  70
0
  40
0.0049
  41
0.0049
  0
VERTEX
  8
Element
  10
1.9355
  20
1.586
  42
1
  0
VERTEX
  8
Element
  10
1.9405
  20
1.586
  42
1
  0
VERTEX
  8
Element
  10
1.9355
  20
1.586
  42
1
  0
SEQEND
  0
POLYLINE
  8
Element
  6
CONTINUOUS
  66
1
  70
0
  40
0.0049
  41
0.0049
  0
VERTEX
  8
Element
  10
2.0975
  20
1.6361
  42
1
  0
VERTEX
  8
Element
  10
2.1025
  20
1.6361
  42
1
  0
VERTEX
  8
Element
  10
2.0975
  20
1.6361
  42
1
  0
SEQEND
  0
POLYLINE
  8
Element
  6
CONTINUOUS
  66
1
  70
0
  40
0.0098
  41
0.0098
  0
VERTEX
  8
Element
  10
1.938
  20
1.4621
  42
0
  0
VERTEX
  8
Element
  10
1.938
  20
1.636
  42
0
  0
SEQEND
  0
POLYLINE
  8
Element
  6
CONTINUOUS
  66
1
  70
0
  40
0.0049
  41
0.0049
  0
VERTEX
  8
Element
  10
1.9355
  20
1.4621
  42
1
  0
VERTEX
  8
Element
  10
1.9405
  20
1.4621
  42
1
  0
VERTEX
  8
Element
  10
1.9355
  20
1.4621
  42
1
  0
SEQEND
  0
POLYLINE
  8
Element
  6
CONTINUOUS
  66
1
  70
0
  40
0.0049
  41
0.0049
  0
VERTEX
  8
Element
  10
1.9355
  20
1.636
  42
1
  0
VERTEX
  8
Element
  10
1.9405
  20
1.636
  42
1
  0
VERTEX
  8
Element
  10
1.9355
  20
1.636
  42
1
  0
SEQEND
  0
POLYLINE
  8
Element
  6
CONTINUOUS
  66
1
  70
0
  40
0.0098
  41
0.0098
  0
VERTEX
  8
Element
  10
2.1
  20
1.6361
  42
0
  0
VERTEX
  8
Element
  10
2.1
  20
1.6991
  42
0
  0
SEQEND
  0
POLYLINE
  8
Element
  6
CONTINUOUS
  66
1
  70
0
  40
0.0049
  41
0.0049
  0
VERTEX
  8
Element
  10
2.0975
  20
1.6361
  42
1
  0
VERTEX
  8
Element
  10
2.1025
  20
1.6361
  42
1
  0
VERTEX
  8
Element
  10
2.0975
  20
1.6361
  42
1
  0
SEQEND
  0
POLYLINE
  8
Element
  6
CONTINUOUS
  66
1
  70
0
  40
0.0049
  41
0.0049
  0
VERTEX
  8
Element
  10
2.0975
  20
1.6991
  42
1
  0
VERTEX
  8
Element
  10
2.1025
  20
1.6991
  42
1
  0
VERTEX
  8
Element
  10
2.0975
  20
1.6991
  42
1
  0
SEQEND
  0
POLYLINE
  8
Element
  6
CONTINUOUS
  66
1
  70
0
  40
0.0098
  41
0.0098
  0
VERTEX
  8
Element
  10
1.938
  20
1.5121
  42
0
  0
VERTEX
  8
Element
  10
2.1
  20
1.4621
  42
0
  0
SEQEND
  0
POLYLINE
  8
Element
  6
CONTINUOUS
  66
1
  70
0
  40
0.0049
  41
0.0049
  0
VERTEX
  8
Element
  10
1.9355
  20
1.5121
  42
1
  0
VERTEX
  8
Element
  10
1.9405
  20
1.5121
  42
1
  0
VERTEX
  8
Element
  10
1.9355
  20
1.5121
  42
1
  0
SEQEND
  0
POLYLINE
  8
Element
  6
CONTINUOUS
  66
1
  70
0
  40
0.0049
  41
0.0049
  0
VERTEX
  8
Element
  10
2.0975
  20
1.4621
  42
1
  0
VERTEX
  8
Element
  10
2.1025
  20
1.4621
  42
1
  0
VERTEX
  8
Element
  10
2.0975
  20
1.4621
  42
1
  0
SEQEND
  0
POLYLINE
  8
Element
  6
CONTINUOUS
  66
1
  70
0
  40
0.0098
  41
0.0098
  0
VERTEX
  8
Element
  10
1.15
  20
0.8991
  42
0
  0
VERTEX
  8
Element
  10
1.25
  20
0.8991
  42
0
  0
VERTEX
  8
Element
  10
1.25
  20
0.5991
  42
0
  0
VERTEX
  8
Element
  10
1.15
  20
0.5991
  42
0
  0
VERTEX
  8
Element
  10
1.15
  20
0.8991
  42
0
  0
SEQEND
  0
POLYLINE
  8
Element
  6
CONTINUOUS
  66
1
  70
0
  40
0.0098
  41
0.0098
  0
VERTEX
  8
Element
  10
1.55
  20
2.2991
  42
0
  0
VERTEX
  8
Element
  10
1.65
  20
2.2991
  42
0
  0
VERTEX
  8
Element
  10
1.65
  20
1.9991
  42
0
  0
VERTEX
  8
Element
  10
1.55
  20
1.9991
  42
0
  0
VERTEX
  8
Element
  10
1.55
  20
2.2991
  42
0
  0
SEQEND
  0
POLYLINE
  8
Element
  6
CONTINUOUS
  66
1
  70
0
  40
0.0098
  41
0.0098
  0
VERTEX
  8
Element
  10
2.05
  20
2.5991
  42
0
  0
VERTEX
  8
Element
  10
2.15
  20
2.5991
  42
0
  0
VERTEX
  8
Element
  10
2.15
  20
2.2991
  42
0
  0
VERTEX
  8
Element
  10
2.05
  20
2.2991
  42
0
  0
VERTEX
  8
Element
  10
2.05
  20
2.5991
  42
0
  0
SEQEND
  0
POLYLINE
  8
Element
  6
CONTINUOUS
  66
1
  70
0
  40
0.0098
  41
0.0098
  0
VERTEX
  8
Element
  10
2.75
  20
1.5991
  42
0
  0
VERTEX
  8
Element
  10
2.85
  20
1.5991
  42
0
  0
VERTEX
  8
Element
  10
2.85
  20
1.2991
  42
0
  0
VERTEX
  8
Element
  10
2.75
  20
1.2991
  42
0
  0
VERTEX
  8
Element
  10
2.75
  20
1.5991
  42
0
  0
SEQEND
  0
POLYLINE
  8
Element
  6
CONTINUOUS
  66
1
  70
0
  40
0.0098
  41
0.0098
  0
VERTEX
  8
Element
  10
4.65
  20
2.5991
  42
0
  0
VERTEX
  8
Element
  10
4.75
  20
2.5991
  42
0
  0
VERTEX
  8
Element
  10
4.75
  20
2.2991
  42
0
  0
VERTEX
  8
Element
  10
4.65
  20
2.2991
  42
0
  0
VERTEX
  8
Element
  10
4.65
  20
2.5991
  42
0
  0
SEQEND
  0
POLYLINE
  8
Element
  6
CONTINUOUS
  66
1
  70
0
  40
0.0098
  41
0.0098
  0
VERTEX
  8
Element
  10
2.4875
  20
1.7741
  42
0
  0
VERTEX
  8
Element
  10
2.4875
  20
1.9241
  42
0
  0
SEQEND
  0
POLYLINE
  8
Element
  6
CONTINUOUS
  66
1
  70
0
  40
0.0049
  41
0.0049
  0
VERTEX
  8
Element
  10
2.485
  20
1.7741
  42
1
  0
VERTEX
  8
Element
  10
2.49
  20
1.7741
  42
1
  0
VERTEX
  8
Element
  10
2.485
  20
1.7741
  42
1
  0
SEQEND
  0
POLYLINE
  8
Element
  6
CONTINUOUS
  66
1
  70
0
  40
0.0049
  41
0.0049
  0
VERTEX
  8
Element
  10
2.485
  20
1.9241
  42
1
  0
VERTEX
  8
Element
  10
2.49
  20
1.9241
  42
1
  0
VERTEX
  8
Element
  10
2.485
  20
1.9241
  42
1
  0
SEQEND
  0
POLYLINE
  8
Element
  6
CONTINUOUS
  66
1
  70
0
  40
0.0098
  41
0.0098
  0
VERTEX
  8
Element
  10
2.5125
  20
1.7741
  42
0
  0
VERTEX
  8
Element
  10
2.5125
  20
1.9241
  42
0
  0
SEQEND
  0
POLYLINE
  8
Element
  6
CONTINUOUS
  66
1
  70
0
  40
0.0049
  41
0.0049
  0
VERTEX
  8
Element
  10
2.51
  20
1.7741
  42
1
  0
VERTEX
  8
Element
  10
2.515
  20
1.7741
  42
1
  0
VERTEX
  8
Element
  10
2.51
  20
1.7741
  42
1
  0
SEQEND
  0
POLYLINE
  8
Element
  6
CONTINUOUS
  66
1
  70
0
  40
0.0049
  41
0.0049
  0
VERTEX
  8
Element
  10
2.51
  20
1.9241
  42
1
  0
VERTEX
  8
Element
  10
2.515
  20
1.9241
  42
1
  0
VERTEX
  8
Element
  10
2.51
  20
1.9241
  42
1
  0
SEQEND
  0
POLYLINE
  8
Element
  6
CONTINUOUS
  66
1
  70
0
  40
0.0098
  41
0.0098
  0
VERTEX
  8
Element
  10
2.5125
  20
1.8491
  42
0
  0
VERTEX
  8
Element
  10
2.55
  20
1.8491
  42
0
  0
SEQEND
  0
POLYLINE
  8
Element
  6
CONTINUOUS
  66
1
  70
0
  40
0.0049
  41
0.0049
  0
VERTEX
  8
Element
  10
2.5101
  20
1.8491
  42
1
  0
VERTEX
  8
Element
  10
2.515
  20
1.8491
  42
1
  0
VERTEX
  8
Element
  10
2.5101
  20
1.8491
  42
1
  0
SEQEND
  0
POLYLINE
  8
Element
  6
CONTINUOUS
  66
1
  70
0
  40
0.0049
  41
0.0049
  0
VERTEX
  8
Element
  10
2.5475
  20
1.8491
  42
1
  0
VERTEX
  8
Element
  10
2.5525
  20
1.8491
  42
1
  0
VERTEX
  8
Element
  10
2.5475
  20
1.8491
  42
1
  0
SEQEND
  0
POLYLINE
  8
Element
  6
CONTINUOUS
  66
1
  70
0
  40
0.0098
  41
0.0098
  0
VERTEX
  8
Element
  10
2.45
  20
1.8491
  42
0
  0
VERTEX
  8
Element
  10
2.4875
  20
1.8491
  42
0
  0
SEQEND
  0
POLYLINE
  8
Element
  6
CONTINUOUS
  66
1
  70
0
  40
0.0049
  41
0.0049
  0
VERTEX
  8
Element
  10
2.4475
  20
1.8491
  42
1
  0
VERTEX
  8
Element
  10
2.4525
  20
1.8491
  42
1
  0
VERTEX
  8
Element
  10
2.4475
  20
1.8491
  42
1
  0
SEQEND
  0
POLYLINE
  8
Element
  6
CONTINUOUS
  66
1
  70
0
  40
0.0049
  41
0.0049
  0
VERTEX
  8
Element
  10
2.4851
  20
1.8491
  42
1
  0
VERTEX
  8
Element
  10
2.49
  20
1.8491
  42
1
  0
VERTEX
  8
Element
  10
2.4851
  20
1.8491
  42
1
  0
SEQEND
  0
POLYLINE
  8
Element
  6
CONTINUOUS
  66
1
  70
0
  40
0.0098
  41
0.0098
  0
VERTEX
  8
Element
  10
4.625
  20
0.6991
  42
0
  0
VERTEX
  8
Element
  10
4.6625
  20
0.6991
  42
0
  0
SEQEND
  0
POLYLINE
  8
Element
  6
CONTINUOUS
  66
1
  70
0
  40
0.0049
  41
0.0049
  0
VERTEX
  8
Element
  10
4.6225
  20
0.6991
  42
1
  0
VERTEX
  8
Element
  10
4.6275
  20
0.6991
  42
1
  0
VERTEX
  8
Element
  10
4.6225
  20
0.6991
  42
1
  0
SEQEND
  0
POLYLINE
  8
Element
  6
CONTINUOUS
  66
1
  70
0
  40
0.0049
  41
0.0049
  0
VERTEX
  8
Element
  10
4.66
  20
0.6991
  42
1
  0
VERTEX
  8
Element
  10
4.665
  20
0.6991
  42
1
  0
VERTEX
  8
Element
  10
4.66
  20
0.6991
  42
1
  0
SEQEND
  0
POLYLINE
  8
Element
  6
CONTINUOUS
  66
1
  70
0
  40
0.0098
  41
0.0098
  0
VERTEX
  8
Element
  10
4.6438
  20
0.6803
  42
0
  0
VERTEX
  8
Element
  10
4.6438
  20
0.7178
  42
0
  0
SEQEND
  0
POLYLINE
  8
Element
  6
CONTINUOUS
  66
1
  70
0
  40
0.0049
  41
0.0049
  0
VERTEX
  8
Element
  10
4.6413
  20
0.6803
  42
1
  0
VERTEX
  8
Element
  10
4.6462
  20
0.6803
  42
1
  0
VERTEX
  8
Element
  10
4.6413
  20
0.6803
  42
1
  0
SEQEND
  0
POLYLINE
  8
Element
  6
CONTINUOUS
  66
1
  70
0
  40
0.0049
  41
0.0049
  0
VERTEX
  8
Element
  10
4.6413
  20
0.7178
  42
1
  0
VERTEX
  8
Element
  10
4.6462
  20
0.7178
  42
1
  0
VERTEX
  8
Element
  10
4.6413
  20
0.7178
  42
1
  0
SEQEND
  0
POLYLINE
  8
Element
  6
CONTINUOUS
  66
1
  70
0
  40
0.0098
  41
0.0098
  0
VERTEX
  8
Element
  10
4.625
  20
0.6616
  42
0
  0
VERTEX
  8
Element
  10
4.775
  20
0.6616
  42
0
  0
SEQEND
  0
POLYLINE
  8
Element
  6
CONTINUOUS
  66
1
  70
0
  40
0.0049
  41
0.0049
  0
VERTEX
  8
Element
  10
4.6225
  20
0.6616
  42
1
  0
VERTEX
  8
Element
  10
4.6275
  20
0.6616
  42
1
  0
VERTEX
  8
Element
  10
4.6225
  20
0.6616
  42
1
  0
SEQEND
  0
POLYLINE
  8
Element
  6
CONTINUOUS
  66
1
  70
0
  40
0.0049
  41
0.0049
  0
VERTEX
  8
Element
  10
4.7725
  20
0.6616
  42
1
  0
VERTEX
  8
Element
  10
4.7775
  20
0.6616
  42
1
  0
VERTEX
  8
Element
  10
4.7725
  20
0.6616
  42
1
  0
SEQEND
  0
POLYLINE
  8
Element
  6
CONTINUOUS
  66
1
  70
0
  40
0.0098
  41
0.0098
  0
VERTEX
  8
Element
  10
4.625
  20
0.6366
  42
0
  0
VERTEX
  8
Element
  10
4.775
  20
0.6366
  42
0
  0
SEQEND
  0
POLYLINE
  8
Element
  6
CONTINUOUS
  66
1
  70
0
  40
0.0049
  41
0.0049
  0
VERTEX
  8
Element
  10
4.6225
  20
0.6366
  42
1
  0
VERTEX
  8
Element
  10
4.6275
  20
0.6366
  42
1
  0
VERTEX
  8
Element
  10
4.6225
  20
0.6366
  42
1
  0
SEQEND
  0
POLYLINE
  8
Element
  6
CONTINUOUS
  66
1
  70
0
  40
0.0049
  41
0.0049
  0
VERTEX
  8
Element
  10
4.7725
  20
0.6366
  42
1
  0
VERTEX
  8
Element
  10
4.7775
  20
0.6366
  42
1
  0
VERTEX
  8
Element
  10
4.7725
  20
0.6366
  42
1
  0
SEQEND
  0
POLYLINE
  8
Element
  6
CONTINUOUS
  66
1
  70
0
  40
0.0098
  41
0.0098
  0
VERTEX
  8
Element
  10
4.7
  20
0.6365
  42
0
  0
VERTEX
  8
Element
  10
4.7
  20
0.5991
  42
0
  0
SEQEND
  0
POLYLINE
  8
Element
  6
CONTINUOUS
  66
1
  70
0
  40
0.0049
  41
0.0049
  0
VERTEX
  8
Element
  10
4.6975
  20
0.6365
  42
1
  0
VERTEX
  8
Element
  10
4.7025
  20
0.6365
  42
1
  0
VERTEX
  8
Element
  10
4.6975
  20
0.6365
  42
1
  0
SEQEND
  0
POLYLINE
  8
Element
  6
CONTINUOUS
  66
1
  70
0
  40
0.0049
  41
0.0049
  0
VERTEX
  8
Element
  10
4.6975
  20
0.5991
  42
1
  0
VERTEX
  8
Element
  10
4.7025
  20
0.5991
  42
1
  0
VERTEX
  8
Element
  10
4.6975
  20
0.5991
  42
1
  0
SEQEND
  0
POLYLINE
  8
Element
  6
CONTINUOUS
  66
1
  70
0
  40
0.0098
  41
0.0098
  0
VERTEX
  8
Element
  10
4.7
  20
0.6991
  42
0
  0
VERTEX
  8
Element
  10
4.7
  20
0.6615
  42
0
  0
SEQEND
  0
POLYLINE
  8
Element
  6
CONTINUOUS
  66
1
  70
0
  40
0.0049
  41
0.0049
  0
VERTEX
  8
Element
  10
4.6975
  20
0.6991
  42
1
  0
VERTEX
  8
Element
  10
4.7025
  20
0.6991
  42
1
  0
VERTEX
  8
Element
  10
4.6975
  20
0.6991
  42
1
  0
SEQEND
  0
POLYLINE
  8
Element
  6
CONTINUOUS
  66
1
  70
0
  40
0.0049
  41
0.0049
  0
VERTEX
  8
Element
  10
4.6975
  20
0.6615
  42
1
  0
VERTEX
  8
Element
  10
4.7025
  20
0.6615
  42
1
  0
VERTEX
  8
Element
  10
4.6975
  20
0.6615
  42
1
  0
SEQEND
  0
POLYLINE
  8
Element
  6
CONTINUOUS
  66
1
  70
0
  40
0.0098
  41
0.0098
  0
VERTEX
  8
Element
  10
0.525
  20
1.6991
  42
0
  0
VERTEX
  8
Element
  10
0.5625
  20
1.6991
  42
0
  0
SEQEND
  0
POLYLINE
  8
Element
  6
CONTINUOUS
  66
1
  70
0
  40
0.0049
  41
0.0049
  0
VERTEX
  8
Element
  10
0.5225
  20
1.6991
  42
1
  0
VERTEX
  8
Element
  10
0.5275
  20
1.6991
  42
1
  0
VERTEX
  8
Element
  10
0.5225
  20
1.6991
  42
1
  0
SEQEND
  0
POLYLINE
  8
Element
  6
CONTINUOUS
  66
1
  70
0
  40
0.0049
  41
0.0049
  0
VERTEX
  8
Element
  10
0.56
  20
1.6991
  42
1
  0
VERTEX
  8
Element
  10
0.565
  20
1.6991
  42
1
  0
VERTEX
  8
Element
  10
0.56
  20
1.6991
  42
1
  0
SEQEND
  0
POLYLINE
  8
Element
  6
CONTINUOUS
  66
1
  70
0
  40
0.0098
  41
0.0098
  0
VERTEX
  8
Element
  10
0.5438
  20
1.6803
  42
0
  0
VERTEX
  8
Element
  10
0.5438
  20
1.7178
  42
0
  0
SEQEND
  0
POLYLINE
  8
Element
  6
CONTINUOUS
  66
1
  70
0
  40
0.0049
  41
0.0049
  0
VERTEX
  8
Element
  10
0.5413
  20
1.6803
  42
1
  0
VERTEX
  8
Element
  10
0.5462
  20
1.6803
  42
1
  0
VERTEX
  8
Element
  10
0.5413
  20
1.6803
  42
1
  0
SEQEND
  0
POLYLINE
  8
Element
  6
CONTINUOUS
  66
1
  70
0
  40
0.0049
  41
0.0049
  0
VERTEX
  8
Element
  10
0.5413
  20
1.7178
  42
1
  0
VERTEX
  8
Element
  10
0.5462
  20
1.7178
  42
1
  0
VERTEX
  8
Element
  10
0.5413
  20
1.7178
  42
1
  0
SEQEND
  0
POLYLINE
  8
Element
  6
CONTINUOUS
  66
1
  70
0
  40
0.0098
  41
0.0098
  0
VERTEX
  8
Element
  10
0.525
  20
1.6616
  42
0
  0
VERTEX
  8
Element
  10
0.675
  20
1.6616
  42
0
  0
SEQEND
  0
POLYLINE
  8
Element
  6
CONTINUOUS
  66
1
  70
0
  40
0.0049
  41
0.0049
  0
VERTEX
  8
Element
  10
0.5225
  20
1.6616
  42
1
  0
VERTEX
  8
Element
  10
0.5275
  20
1.6616
  42
1
  0
VERTEX
  8
Element
  10
0.5225
  20
1.6616
  42
1
  0
SEQEND
  0
POLYLINE
  8
Element
  6
CONTINUOUS
  66
1
  70
0
  40
0.0049
  41
0.0049
  0
VERTEX
  8
Element
  10
0.6725
  20
1.6616
  42
1
  0
VERTEX
  8
Element
  10
0.6775
  20
1.6616
  42
1
  0
VERTEX
  8
Element
  10
0.6725
  20
1.6616
  42
1
  0
SEQEND
  0
POLYLINE
  8
Element
  6
CONTINUOUS
  66
1
  70
0
  40
0.0098
  41
0.0098
  0
VERTEX
  8
Element
  10
0.525
  20
1.6366
  42
0
  0
VERTEX
  8
Element
  10
0.675
  20
1.6366
  42
0
  0
SEQEND
  0
POLYLINE
  8
Element
  6
CONTINUOUS
  66
1
  70
0
  40
0.0049
  41
0.0049
  0
VERTEX
  8
Element
  10
0.5225
  20
1.6366
  42
1
  0
VERTEX
  8
Element
  10
0.5275
  20
1.6366
  42
1
  0
VERTEX
  8
Element
  10
0.5225
  20
1.6366
  42
1
  0
SEQEND
  0
POLYLINE
  8
Element
  6
CONTINUOUS
  66
1
  70
0
  40
0.0049
  41
0.0049
  0
VERTEX
  8
Element
  10
0.6725
  20
1.6366
  42
1
  0
VERTEX
  8
Element
  10
0.6775
  20
1.6366
  42
1
  0
VERTEX
  8
Element
  10
0.6725
  20
1.6366
  42
1
  0
SEQEND
  0
POLYLINE
  8
Element
  6
CONTINUOUS
  66
1
  70
0
  40
0.0098
  41
0.0098
  0
VERTEX
  8
Element
  10
0.6
  20
1.6365
  42
0
  0
VERTEX
  8
Element
  10
0.6
  20
1.5991
  42
0
  0
SEQEND
  0
POLYLINE
  8
Element
  6
CONTINUOUS
  66
1
  70
0
  40
0.0049
  41
0.0049
  0
VERTEX
  8
Element
  10
0.5975
  20
1.6365
  42
1
  0
VERTEX
  8
Element
  10
0.6025
  20
1.6365
  42
1
  0
VERTEX
  8
Element
  10
0.5975
  20
1.6365
  42
1
  0
SEQEND
  0
POLYLINE
  8
Element
  6
CONTINUOUS
  66
1
  70
0
  40
0.0049
  41
0.0049
  0
VERTEX
  8
Element
  10
0.5975
  20
1.5991
  42
1
  0
VERTEX
  8
Element
  10
0.6025
  20
1.5991
  42
1
  0
VERTEX
  8
Element
  10
0.5975
  20
1.5991
  42
1
  0
SEQEND
  0
POLYLINE
  8
Element
  6
CONTINUOUS
  66
1
  70
0
  40
0.0098
  41
0.0098
  0
VERTEX
  8
Element
  10
0.6
  20
1.6991
  42
0
  0
VERTEX
  8
Element
  10
0.6
  20
1.6615
  42
0
  0
SEQEND
  0
POLYLINE
  8
Element
  6
CONTINUOUS
  66
1
  70
0
  40
0.0049
  41
0.0049
  0
VERTEX
  8
Element
  10
0.5975
  20
1.6991
  42
1
  0
VERTEX
  8
Element
  10
0.6025
  20
1.6991
  42
1
  0
VERTEX
  8
Element
  10
0.5975
  20
1.6991
  42
1
  0
SEQEND
  0
POLYLINE
  8
Element
  6
CONTINUOUS
  66
1
  70
0
  40
0.0049
  41
0.0049
  0
VERTEX
  8
Element
  10
0.5975
  20
1.6615
  42
1
  0
VERTEX
  8
Element
  10
0.6025
  20
1.6615
  42
1
  0
VERTEX
  8
Element
  10
0.5975
  20
1.6615
  42
1
  0
SEQEND
  0
TEXT
  8
Element
  10
3.325
  20
0.8491
  40
0.0583
  41
0.7
  1
C2
  50
90.0
  72
1
  73
1
  7
STANDARD
  71
0
  11
3.325
  21
0.8491
  0
TEXT
  8
Element
  10
2.7438
  20
0.6991
  40
0.0583
  41
0.7
  1
D1
  50
90.0
  72
1
  73
1
  7
STANDARD
  71
0
  11
2.7438
  21
0.6991
  0
TEXT
  8
Element
  10
3.725
  20
2.1141
  40
0.0583
  41
0.7
  1
IC1
  50
0.0
  72
1
  73
1
  7
STANDARD
  71
0
  11
3.725
  21
2.1141
  0
TEXT
  8
Element
  10
0.95
  20
1.7991
  40
0.0583
  41
0.7
  1
MK1
  50
0.0
  72
1
  73
1
  7
STANDARD
  71
0
  11
0.95
  21
1.7991
  0
TEXT
  8
Element
  10
0.1
  20
3.2581
  40
0.0583
  41
0.7
  1
VCC
  50
0.0
  72
1
  73
1
  7
STANDARD
  71
0
  11
0.1
  21
3.2581
  0
TEXT
  8
Element
  10
0.025
  20
0.0591
  40
0.0583
  41
0.7
  1
GND
  50
90.0
  72
1
  73
1
  7
STANDARD
  71
0
  11
0.025
  21
0.0591
  0
TEXT
  8
Element
  10
1.65
  20
1.2491
  40
0.0583
  41
0.7
  1
Q1
  50
90.0
  72
1
  73
3
  7
STANDARD
  71
0
  11
1.65
  21
1.2491
  0
TEXT
  8
Element
  10
2.15
  20
1.5491
  40
0.0583
  41
0.7
  1
Q2
  50
90.0
  72
1
  73
3
  7
STANDARD
  71
0
  11
2.15
  21
1.5491
  0
TEXT
  8
Element
  10
1.1409
  20
0.7491
  40
0.0583
  41
0.7
  1
R1
  50
90.0
  72
1
  73
1
  7
STANDARD
  71
0
  11
1.1409
  21
0.7491
  0
TEXT
  8
Element
  10
1.5409
  20
2.1491
  40
0.0583
  41
0.7
  1
R2
  50
90.0
  72
1
  73
1
  7
STANDARD
  71
0
  11
1.5409
  21
2.1491
  0
TEXT
  8
Element
  10
2.0409
  20
2.4491
  40
0.0583
  41
0.7
  1
R3
  50
90.0
  72
1
  73
1
  7
STANDARD
  71
0
  11
2.0409
  21
2.4491
  0
TEXT
  8
Element
  10
2.7409
  20
1.4491
  40
0.0583
  41
0.7
  1
R4
  50
90.0
  72
1
  73
1
  7
STANDARD
  71
0
  11
2.7409
  21
1.4491
  0
TEXT
  8
Element
  10
4.6409
  20
2.4491
  40
0.0583
  41
0.7
  1
R5
  50
90.0
  72
1
  73
1
  7
STANDARD
  71
0
  11
4.6409
  21
2.4491
  0
TEXT
  8
Element
  10
2.5
  20
1.9241
  40
0.0583
  41
0.7
  1
C4
  50
0.0
  72
1
  73
1
  7
STANDARD
  71
0
  11
2.5
  21
1.9241
  0
TEXT
  8
Element
  10
4.625
  20
0.6584
  40
0.0583
  41
0.7
  1
C5
  50
90.0
  72
1
  73
1
  7
STANDARD
  71
0
  11
4.625
  21
0.6584
  0
TEXT
  8
Element
  10
0.525
  20
1.6584
  40
0.0583
  41
0.7
  1
C1
  50
90.0
  72
1
  73
1
  7
STANDARD
  71
0
  11
0.525
  21
1.6584
  0
POLYLINE
  8
Net
  6
CONTINUOUS
  66
1
  70
0
  40
0.0039
  41
0.0039
  0
VERTEX
  8
Net
  10
1.2
  20
1.2491
  42
0
  0
VERTEX
  8
Net
  10
1.2
  20
1.6491
  42
0
  0
SEQEND
  0
POLYLINE
  8
Net
  6
CONTINUOUS
  66
1
  70
0
  40
0.002
  41
0.002
  0
VERTEX
  8
Net
  10
1.199
  20
1.2491
  42
1
  0
VERTEX
  8
Net
  10
1.201
  20
1.2491
  42
1
  0
VERTEX
  8
Net
  10
1.199
  20
1.2491
  42
1
  0
SEQEND
  0
POLYLINE
  8
Net
  6
CONTINUOUS
  66
1
  70
0
  40
0.002
  41
0.002
  0
VERTEX
  8
Net
  10
1.199
  20
1.6491
  42
1
  0
VERTEX
  8
Net
  10
1.201
  20
1.6491
  42
1
  0
VERTEX
  8
Net
  10
1.199
  20
1.6491
  42
1
  0
SEQEND
  0
POLYLINE
  8
Net
  6
CONTINUOUS
  66
1
  70
0
  40
0.0039
  41
0.0039
  0
VERTEX
  8
Net
  10
1.1843
  20
1.2491
  42
0
  0
VERTEX
  8
Net
  10
1.185
  20
1.2442
  42
0
  0
VERTEX
  8
Net
  10
1.1873
  20
1.2398
  42
0
  0
VERTEX
  8
Net
  10
1.1907
  20
1.2363
  42
0
  0
VERTEX
  8
Net
  10
1.1951
  20
1.2341
  42
0
  0
VERTEX
  8
Net
  10
1.2
  20
1.2333
  42
0
  0
VERTEX
  8
Net
  10
1.2049
  20
1.2341
  42
0
  0
VERTEX
  8
Net
  10
1.2093
  20
1.2363
  42
0
  0
VERTEX
  8
Net
  10
1.2127
  20
1.2398
  42
0
  0
VERTEX
  8
Net
  10
1.215
  20
1.2442
  42
0
  0
VERTEX
  8
Net
  10
1.2157
  20
1.2491
  42
0
  0
VERTEX
  8
Net
  10
1.215
  20
1.2539
  42
0
  0
VERTEX
  8
Net
  10
1.2127
  20
1.2583
  42
0
  0
VERTEX
  8
Net
  10
1.2093
  20
1.2618
  42
0
  0
VERTEX
  8
Net
  10
1.2049
  20
1.264
  42
0
  0
VERTEX
  8
Net
  10
1.2
  20
1.2648
  42
0
  0
VERTEX
  8
Net
  10
1.1951
  20
1.264
  42
0
  0
VERTEX
  8
Net
  10
1.1907
  20
1.2618
  42
0
  0
VERTEX
  8
Net
  10
1.1873
  20
1.2583
  42
0
  0
VERTEX
  8
Net
  10
1.185
  20
1.2539
  42
0
  0
VERTEX
  8
Net
  10
1.1843
  20
1.2491
  42
0
  0
SEQEND
  0
POLYLINE
  8
Net
  6
CONTINUOUS
  66
1
  70
0
  40
0.002
  41
0.002
  0
VERTEX
  8
Net
  10
1.1833
  20
1.2491
  42
1
  0
VERTEX
  8
Net
  10
1.1852
  20
1.2491
  42
1
  0
VERTEX
  8
Net
  10
1.1833
  20
1.2491
  42
1
  0
SEQEND
  0
POLYLINE
  8
Net
  6
CONTINUOUS
  66
1
  70
0
  40
0.0039
  41
0.0039
  0
VERTEX
  8
Net
  10
1.2
  20
1.0491
  42
0
  0
VERTEX
  8
Net
  10
1.2
  20
1.2491
  42
0
  0
SEQEND
  0
POLYLINE
  8
Net
  6
CONTINUOUS
  66
1
  70
0
  40
0.002
  41
0.002
  0
VERTEX
  8
Net
  10
1.199
  20
1.0491
  42
1
  0
VERTEX
  8
Net
  10
1.201
  20
1.0491
  42
1
  0
VERTEX
  8
Net
  10
1.199
  20
1.0491
  42
1
  0
SEQEND
  0
POLYLINE
  8
Net
  6
CONTINUOUS
  66
1
  70
0
  40
0.002
  41
0.002
  0
VERTEX
  8
Net
  10
1.199
  20
1.2491
  42
1
  0
VERTEX
  8
Net
  10
1.201
  20
1.2491
  42
1
  0
VERTEX
  8
Net
  10
1.199
  20
1.2491
  42
1
  0
SEQEND
  0
POLYLINE
  8
Net
  6
CONTINUOUS
  66
1
  70
0
  40
0.0039
  41
0.0039
  0
VERTEX
  8
Net
  10
1.2
  20
1.2491
  42
0
  0
VERTEX
  8
Net
  10
1.2
  20
1.2491
  42
0
  0
SEQEND
  0
POLYLINE
  8
Net
  6
CONTINUOUS
  66
1
  70
0
  40
0.002
  41
0.002
  0
VERTEX
  8
Net
  10
1.199
  20
1.2491
  42
1
  0
VERTEX
  8
Net
  10
1.201
  20
1.2491
  42
1
  0
VERTEX
  8
Net
  10
1.199
  20
1.2491
  42
1
  0
SEQEND
  0
POLYLINE
  8
Net
  6
CONTINUOUS
  66
1
  70
0
  40
0.0039
  41
0.0039
  0
VERTEX
  8
Net
  10
2.1
  20
2.1491
  42
0
  0
VERTEX
  8
Net
  10
2.1
  20
1.8491
  42
0
  0
SEQEND
  0
POLYLINE
  8
Net
  6
CONTINUOUS
  66
1
  70
0
  40
0.002
  41
0.002
  0
VERTEX
  8
Net
  10
2.099
  20
2.1491
  42
1
  0
VERTEX
  8
Net
  10
2.101
  20
2.1491
  42
1
  0
VERTEX
  8
Net
  10
2.099
  20
2.1491
  42
1
  0
SEQEND
  0
POLYLINE
  8
Net
  6
CONTINUOUS
  66
1
  70
0
  40
0.002
  41
0.002
  0
VERTEX
  8
Net
  10
2.099
  20
1.8491
  42
1
  0
VERTEX
  8
Net
  10
2.101
  20
1.8491
  42
1
  0
VERTEX
  8
Net
  10
2.099
  20
1.8491
  42
1
  0
SEQEND
  0
POLYLINE
  8
Net
  6
CONTINUOUS
  66
1
  70
0
  40
0.0039
  41
0.0039
  0
VERTEX
  8
Net
  10
2.0843
  20
1.8491
  42
0
  0
VERTEX
  8
Net
  10
2.085
  20
1.8442
  42
0
  0
VERTEX
  8
Net
  10
2.0873
  20
1.8398
  42
0
  0
VERTEX
  8
Net
  10
2.0907
  20
1.8363
  42
0
  0
VERTEX
  8
Net
  10
2.0951
  20
1.8341
  42
0
  0
VERTEX
  8
Net
  10
2.1
  20
1.8333
  42
0
  0
VERTEX
  8
Net
  10
2.1049
  20
1.8341
  42
0
  0
VERTEX
  8
Net
  10
2.1093
  20
1.8363
  42
0
  0
VERTEX
  8
Net
  10
2.1127
  20
1.8398
  42
0
  0
VERTEX
  8
Net
  10
2.115
  20
1.8442
  42
0
  0
VERTEX
  8
Net
  10
2.1157
  20
1.8491
  42
0
  0
VERTEX
  8
Net
  10
2.115
  20
1.8539
  42
0
  0
VERTEX
  8
Net
  10
2.1127
  20
1.8583
  42
0
  0
VERTEX
  8
Net
  10
2.1093
  20
1.8618
  42
0
  0
VERTEX
  8
Net
  10
2.1049
  20
1.864
  42
0
  0
VERTEX
  8
Net
  10
2.1
  20
1.8648
  42
0
  0
VERTEX
  8
Net
  10
2.0951
  20
1.864
  42
0
  0
VERTEX
  8
Net
  10
2.0907
  20
1.8618
  42
0
  0
VERTEX
  8
Net
  10
2.0873
  20
1.8583
  42
0
  0
VERTEX
  8
Net
  10
2.085
  20
1.8539
  42
0
  0
VERTEX
  8
Net
  10
2.0843
  20
1.8491
  42
0
  0
SEQEND
  0
POLYLINE
  8
Net
  6
CONTINUOUS
  66
1
  70
0
  40
0.002
  41
0.002
  0
VERTEX
  8
Net
  10
2.0833
  20
1.8491
  42
1
  0
VERTEX
  8
Net
  10
2.0852
  20
1.8491
  42
1
  0
VERTEX
  8
Net
  10
2.0833
  20
1.8491
  42
1
  0
SEQEND
  0
POLYLINE
  8
Net
  6
CONTINUOUS
  66
1
  70
0
  40
0.0039
  41
0.0039
  0
VERTEX
  8
Net
  10
2.3
  20
1.8491
  42
0
  0
VERTEX
  8
Net
  10
2.1
  20
1.8491
  42
0
  0
SEQEND
  0
POLYLINE
  8
Net
  6
CONTINUOUS
  66
1
  70
0
  40
0.002
  41
0.002
  0
VERTEX
  8
Net
  10
2.299
  20
1.8491
  42
1
  0
VERTEX
  8
Net
  10
2.301
  20
1.8491
  42
1
  0
VERTEX
  8
Net
  10
2.299
  20
1.8491
  42
1
  0
SEQEND
  0
POLYLINE
  8
Net
  6
CONTINUOUS
  66
1
  70
0
  40
0.002
  41
0.002
  0
VERTEX
  8
Net
  10
2.099
  20
1.8491
  42
1
  0
VERTEX
  8
Net
  10
2.101
  20
1.8491
  42
1
  0
VERTEX
  8
Net
  10
2.099
  20
1.8491
  42
1
  0
SEQEND
  0
POLYLINE
  8
Net
  6
CONTINUOUS
  66
1
  70
0
  40
0.0039
  41
0.0039
  0
VERTEX
  8
Net
  10
1.7
  20
1.5491
  42
0
  0
VERTEX
  8
Net
  10
1.6
  20
1.5491
  42
0
  0
SEQEND
  0
POLYLINE
  8
Net
  6
CONTINUOUS
  66
1
  70
0
  40
0.002
  41
0.002
  0
VERTEX
  8
Net
  10
1.699
  20
1.5491
  42
1
  0
VERTEX
  8
Net
  10
1.701
  20
1.5491
  42
1
  0
VERTEX
  8
Net
  10
1.699
  20
1.5491
  42
1
  0
SEQEND
  0
POLYLINE
  8
Net
  6
CONTINUOUS
  66
1
  70
0
  40
0.002
  41
0.002
  0
VERTEX
  8
Net
  10
1.599
  20
1.5491
  42
1
  0
VERTEX
  8
Net
  10
1.601
  20
1.5491
  42
1
  0
VERTEX
  8
Net
  10
1.599
  20
1.5491
  42
1
  0
SEQEND
  0
POLYLINE
  8
Net
  6
CONTINUOUS
  66
1
  70
0
  40
0.0039
  41
0.0039
  0
VERTEX
  8
Net
  10
1.5843
  20
1.5491
  42
0
  0
VERTEX
  8
Net
  10
1.585
  20
1.5442
  42
0
  0
VERTEX
  8
Net
  10
1.5873
  20
1.5398
  42
0
  0
VERTEX
  8
Net
  10
1.5907
  20
1.5363
  42
0
  0
VERTEX
  8
Net
  10
1.5951
  20
1.5341
  42
0
  0
VERTEX
  8
Net
  10
1.6
  20
1.5333
  42
0
  0
VERTEX
  8
Net
  10
1.6049
  20
1.5341
  42
0
  0
VERTEX
  8
Net
  10
1.6093
  20
1.5363
  42
0
  0
VERTEX
  8
Net
  10
1.6127
  20
1.5398
  42
0
  0
VERTEX
  8
Net
  10
1.615
  20
1.5442
  42
0
  0
VERTEX
  8
Net
  10
1.6157
  20
1.5491
  42
0
  0
VERTEX
  8
Net
  10
1.615
  20
1.5539
  42
0
  0
VERTEX
  8
Net
  10
1.6127
  20
1.5583
  42
0
  0
VERTEX
  8
Net
  10
1.6093
  20
1.5618
  42
0
  0
VERTEX
  8
Net
  10
1.6049
  20
1.564
  42
0
  0
VERTEX
  8
Net
  10
1.6
  20
1.5648
  42
0
  0
VERTEX
  8
Net
  10
1.5951
  20
1.564
  42
0
  0
VERTEX
  8
Net
  10
1.5907
  20
1.5618
  42
0
  0
VERTEX
  8
Net
  10
1.5873
  20
1.5583
  42
0
  0
VERTEX
  8
Net
  10
1.585
  20
1.5539
  42
0
  0
VERTEX
  8
Net
  10
1.5843
  20
1.5491
  42
0
  0
SEQEND
  0
POLYLINE
  8
Net
  6
CONTINUOUS
  66
1
  70
0
  40
0.002
  41
0.002
  0
VERTEX
  8
Net
  10
1.5833
  20
1.5491
  42
1
  0
VERTEX
  8
Net
  10
1.5852
  20
1.5491
  42
1
  0
VERTEX
  8
Net
  10
1.5833
  20
1.5491
  42
1
  0
SEQEND
  0
POLYLINE
  8
Net
  6
CONTINUOUS
  66
1
  70
0
  40
0.0039
  41
0.0039
  0
VERTEX
  8
Net
  10
1.6
  20
1.5491
  42
0
  0
VERTEX
  8
Net
  10
1.6
  20
1.8491
  42
0
  0
SEQEND
  0
POLYLINE
  8
Net
  6
CONTINUOUS
  66
1
  70
0
  40
0.002
  41
0.002
  0
VERTEX
  8
Net
  10
1.599
  20
1.5491
  42
1
  0
VERTEX
  8
Net
  10
1.601
  20
1.5491
  42
1
  0
VERTEX
  8
Net
  10
1.599
  20
1.5491
  42
1
  0
SEQEND
  0
POLYLINE
  8
Net
  6
CONTINUOUS
  66
1
  70
0
  40
0.002
  41
0.002
  0
VERTEX
  8
Net
  10
1.599
  20
1.8491
  42
1
  0
VERTEX
  8
Net
  10
1.601
  20
1.8491
  42
1
  0
VERTEX
  8
Net
  10
1.599
  20
1.8491
  42
1
  0
SEQEND
  0
POLYLINE
  8
Net
  6
CONTINUOUS
  66
1
  70
0
  40
0.0039
  41
0.0039
  0
VERTEX
  8
Net
  10
4.35
  20
1.8491
  42
0
  0
VERTEX
  8
Net
  10
4.35
  20
1.7491
  42
0
  0
SEQEND
  0
POLYLINE
  8
Net
  6
CONTINUOUS
  66
1
  70
0
  40
0.002
  41
0.002
  0
VERTEX
  8
Net
  10
4.349
  20
1.8491
  42
1
  0
VERTEX
  8
Net
  10
4.351
  20
1.8491
  42
1
  0
VERTEX
  8
Net
  10
4.349
  20
1.8491
  42
1
  0
SEQEND
  0
POLYLINE
  8
Net
  6
CONTINUOUS
  66
1
  70
0
  40
0.002
  41
0.002
  0
VERTEX
  8
Net
  10
4.349
  20
1.7491
  42
1
  0
VERTEX
  8
Net
  10
4.351
  20
1.7491
  42
1
  0
VERTEX
  8
Net
  10
4.349
  20
1.7491
  42
1
  0
SEQEND
  0
POLYLINE
  8
Net
  6
CONTINUOUS
  66
1
  70
0
  40
0.0039
  41
0.0039
  0
VERTEX
  8
Net
  10
4.3343
  20
1.7491
  42
0
  0
VERTEX
  8
Net
  10
4.335
  20
1.7442
  42
0
  0
VERTEX
  8
Net
  10
4.3373
  20
1.7398
  42
0
  0
VERTEX
  8
Net
  10
4.3407
  20
1.7363
  42
0
  0
VERTEX
  8
Net
  10
4.3451
  20
1.7341
  42
0
  0
VERTEX
  8
Net
  10
4.35
  20
1.7333
  42
0
  0
VERTEX
  8
Net
  10
4.3549
  20
1.7341
  42
0
  0
VERTEX
  8
Net
  10
4.3593
  20
1.7363
  42
0
  0
VERTEX
  8
Net
  10
4.3627
  20
1.7398
  42
0
  0
VERTEX
  8
Net
  10
4.365
  20
1.7442
  42
0
  0
VERTEX
  8
Net
  10
4.3657
  20
1.7491
  42
0
  0
VERTEX
  8
Net
  10
4.365
  20
1.7539
  42
0
  0
VERTEX
  8
Net
  10
4.3627
  20
1.7583
  42
0
  0
VERTEX
  8
Net
  10
4.3593
  20
1.7618
  42
0
  0
VERTEX
  8
Net
  10
4.3549
  20
1.764
  42
0
  0
VERTEX
  8
Net
  10
4.35
  20
1.7648
  42
0
  0
VERTEX
  8
Net
  10
4.3451
  20
1.764
  42
0
  0
VERTEX
  8
Net
  10
4.3407
  20
1.7618
  42
0
  0
VERTEX
  8
Net
  10
4.3373
  20
1.7583
  42
0
  0
VERTEX
  8
Net
  10
4.335
  20
1.7539
  42
0
  0
VERTEX
  8
Net
  10
4.3343
  20
1.7491
  42
0
  0
SEQEND
  0
POLYLINE
  8
Net
  6
CONTINUOUS
  66
1
  70
0
  40
0.002
  41
0.002
  0
VERTEX
  8
Net
  10
4.3333
  20
1.7491
  42
1
  0
VERTEX
  8
Net
  10
4.3352
  20
1.7491
  42
1
  0
VERTEX
  8
Net
  10
4.3333
  20
1.7491
  42
1
  0
SEQEND
  0
POLYLINE
  8
Net
  6
CONTINUOUS
  66
1
  70
0
  40
0.0039
  41
0.0039
  0
VERTEX
  8
Net
  10
4.7
  20
2.1491
  42
0
  0
VERTEX
  8
Net
  10
4.7
  20
1.7491
  42
0
  0
SEQEND
  0
POLYLINE
  8
Net
  6
CONTINUOUS
  66
1
  70
0
  40
0.002
  41
0.002
  0
VERTEX
  8
Net
  10
4.699
  20
2.1491
  42
1
  0
VERTEX
  8
Net
  10
4.701
  20
2.1491
  42
1
  0
VERTEX
  8
Net
  10
4.699
  20
2.1491
  42
1
  0
SEQEND
  0
POLYLINE
  8
Net
  6
CONTINUOUS
  66
1
  70
0
  40
0.002
  41
0.002
  0
VERTEX
  8
Net
  10
4.699
  20
1.7491
  42
1
  0
VERTEX
  8
Net
  10
4.701
  20
1.7491
  42
1
  0
VERTEX
  8
Net
  10
4.699
  20
1.7491
  42
1
  0
SEQEND
  0
POLYLINE
  8
Net
  6
CONTINUOUS
  66
1
  70
0
  40
0.0039
  41
0.0039
  0
VERTEX
  8
Net
  10
4.7
  20
1.7491
  42
0
  0
VERTEX
  8
Net
  10
4.35
  20
1.7491
  42
0
  0
SEQEND
  0
POLYLINE
  8
Net
  6
CONTINUOUS
  66
1
  70
0
  40
0.002
  41
0.002
  0
VERTEX
  8
Net
  10
4.699
  20
1.7491
  42
1
  0
VERTEX
  8
Net
  10
4.701
  20
1.7491
  42
1
  0
VERTEX
  8
Net
  10
4.699
  20
1.7491
  42
1
  0
SEQEND
  0
POLYLINE
  8
Net
  6
CONTINUOUS
  66
1
  70
0
  40
0.002
  41
0.002
  0
VERTEX
  8
Net
  10
4.349
  20
1.7491
  42
1
  0
VERTEX
  8
Net
  10
4.351
  20
1.7491
  42
1
  0
VERTEX
  8
Net
  10
4.349
  20
1.7491
  42
1
  0
SEQEND
  0
POLYLINE
  8
Net
  6
CONTINUOUS
  66
1
  70
0
  40
0.0039
  41
0.0039
  0
VERTEX
  8
Net
  10
4.6843
  20
1.7491
  42
0
  0
VERTEX
  8
Net
  10
4.685
  20
1.7442
  42
0
  0
VERTEX
  8
Net
  10
4.6873
  20
1.7398
  42
0
  0
VERTEX
  8
Net
  10
4.6907
  20
1.7363
  42
0
  0
VERTEX
  8
Net
  10
4.6951
  20
1.7341
  42
0
  0
VERTEX
  8
Net
  10
4.7
  20
1.7333
  42
0
  0
VERTEX
  8
Net
  10
4.7049
  20
1.7341
  42
0
  0
VERTEX
  8
Net
  10
4.7093
  20
1.7363
  42
0
  0
VERTEX
  8
Net
  10
4.7127
  20
1.7398
  42
0
  0
VERTEX
  8
Net
  10
4.715
  20
1.7442
  42
0
  0
VERTEX
  8
Net
  10
4.7157
  20
1.7491
  42
0
  0
VERTEX
  8
Net
  10
4.715
  20
1.7539
  42
0
  0
VERTEX
  8
Net
  10
4.7127
  20
1.7583
  42
0
  0
VERTEX
  8
Net
  10
4.7093
  20
1.7618
  42
0
  0
VERTEX
  8
Net
  10
4.7049
  20
1.764
  42
0
  0
VERTEX
  8
Net
  10
4.7
  20
1.7648
  42
0
  0
VERTEX
  8
Net
  10
4.6951
  20
1.764
  42
0
  0
VERTEX
  8
Net
  10
4.6907
  20
1.7618
  42
0
  0
VERTEX
  8
Net
  10
4.6873
  20
1.7583
  42
0
  0
VERTEX
  8
Net
  10
4.685
  20
1.7539
  42
0
  0
VERTEX
  8
Net
  10
4.6843
  20
1.7491
  42
0
  0
SEQEND
  0
POLYLINE
  8
Net
  6
CONTINUOUS
  66
1
  70
0
  40
0.002
  41
0.002
  0
VERTEX
  8
Net
  10
4.6833
  20
1.7491
  42
1
  0
VERTEX
  8
Net
  10
4.6852
  20
1.7491
  42
1
  0
VERTEX
  8
Net
  10
4.6833
  20
1.7491
  42
1
  0
SEQEND
  0
POLYLINE
  8
Net
  6
CONTINUOUS
  66
1
  70
0
  40
0.0039
  41
0.0039
  0
VERTEX
  8
Net
  10
4.7
  20
0.8491
  42
0
  0
VERTEX
  8
Net
  10
4.7
  20
1.7491
  42
0
  0
SEQEND
  0
POLYLINE
  8
Net
  6
CONTINUOUS
  66
1
  70
0
  40
0.002
  41
0.002
  0
VERTEX
  8
Net
  10
4.699
  20
0.8491
  42
1
  0
VERTEX
  8
Net
  10
4.701
  20
0.8491
  42
1
  0
VERTEX
  8
Net
  10
4.699
  20
0.8491
  42
1
  0
SEQEND
  0
POLYLINE
  8
Net
  6
CONTINUOUS
  66
1
  70
0
  40
0.002
  41
0.002
  0
VERTEX
  8
Net
  10
4.699
  20
1.7491
  42
1
  0
VERTEX
  8
Net
  10
4.701
  20
1.7491
  42
1
  0
VERTEX
  8
Net
  10
4.699
  20
1.7491
  42
1
  0
SEQEND
  0
POLYLINE
  8
Net
  6
CONTINUOUS
  66
1
  70
0
  40
0.0039
  41
0.0039
  0
VERTEX
  8
Net
  10
4.7
  20
1.7491
  42
0
  0
VERTEX
  8
Net
  10
4.7
  20
1.7491
  42
0
  0
SEQEND
  0
POLYLINE
  8
Net
  6
CONTINUOUS
  66
1
  70
0
  40
0.002
  41
0.002
  0
VERTEX
  8
Net
  10
4.699
  20
1.7491
  42
1
  0
VERTEX
  8
Net
  10
4.701
  20
1.7491
  42
1
  0
VERTEX
  8
Net
  10
4.699
  20
1.7491
  42
1
  0
SEQEND
  0
POLYLINE
  8
Net
  6
CONTINUOUS
  66
1
  70
0
  40
0.0039
  41
0.0039
  0
VERTEX
  8
Net
  10
4.35
  20
1.9491
  42
0
  0
VERTEX
  8
Net
  10
4.35
  20
3.0491
  42
0
  0
SEQEND
  0
POLYLINE
  8
Net
  6
CONTINUOUS
  66
1
  70
0
  40
0.002
  41
0.002
  0
VERTEX
  8
Net
  10
4.349
  20
1.9491
  42
1
  0
VERTEX
  8
Net
  10
4.351
  20
1.9491
  42
1
  0
VERTEX
  8
Net
  10
4.349
  20
1.9491
  42
1
  0
SEQEND
  0
POLYLINE
  8
Net
  6
CONTINUOUS
  66
1
  70
0
  40
0.002
  41
0.002
  0
VERTEX
  8
Net
  10
4.349
  20
3.0491
  42
1
  0
VERTEX
  8
Net
  10
4.351
  20
3.0491
  42
1
  0
VERTEX
  8
Net
  10
4.349
  20
3.0491
  42
1
  0
SEQEND
  0
POLYLINE
  8
Net
  6
CONTINUOUS
  66
1
  70
0
  40
0.0039
  41
0.0039
  0
VERTEX
  8
Net
  10
4.35
  20
3.0491
  42
0
  0
VERTEX
  8
Net
  10
1.2
  20
3.0491
  42
0
  0
SEQEND
  0
POLYLINE
  8
Net
  6
CONTINUOUS
  66
1
  70
0
  40
0.002
  41
0.002
  0
VERTEX
  8
Net
  10
4.349
  20
3.0491
  42
1
  0
VERTEX
  8
Net
  10
4.351
  20
3.0491
  42
1
  0
VERTEX
  8
Net
  10
4.349
  20
3.0491
  42
1
  0
SEQEND
  0
POLYLINE
  8
Net
  6
CONTINUOUS
  66
1
  70
0
  40
0.002
  41
0.002
  0
VERTEX
  8
Net
  10
1.199
  20
3.0491
  42
1
  0
VERTEX
  8
Net
  10
1.201
  20
3.0491
  42
1
  0
VERTEX
  8
Net
  10
1.199
  20
3.0491
  42
1
  0
SEQEND
  0
POLYLINE
  8
Net
  6
CONTINUOUS
  66
1
  70
0
  40
0.0039
  41
0.0039
  0
VERTEX
  8
Net
  10
1.2
  20
3.0491
  42
0
  0
VERTEX
  8
Net
  10
1.2
  20
1.7491
  42
0
  0
SEQEND
  0
POLYLINE
  8
Net
  6
CONTINUOUS
  66
1
  70
0
  40
0.002
  41
0.002
  0
VERTEX
  8
Net
  10
1.199
  20
3.0491
  42
1
  0
VERTEX
  8
Net
  10
1.201
  20
3.0491
  42
1
  0
VERTEX
  8
Net
  10
1.199
  20
3.0491
  42
1
  0
SEQEND
  0
POLYLINE
  8
Net
  6
CONTINUOUS
  66
1
  70
0
  40
0.002
  41
0.002
  0
VERTEX
  8
Net
  10
1.199
  20
1.7491
  42
1
  0
VERTEX
  8
Net
  10
1.201
  20
1.7491
  42
1
  0
VERTEX
  8
Net
  10
1.199
  20
1.7491
  42
1
  0
SEQEND
  0
POLYLINE
  8
Net
  6
CONTINUOUS
  66
1
  70
0
  40
0.0039
  41
0.0039
  0
VERTEX
  8
Net
  10
1.1843
  20
3.0491
  42
0
  0
VERTEX
  8
Net
  10
1.185
  20
3.0442
  42
0
  0
VERTEX
  8
Net
  10
1.1873
  20
3.0398
  42
0
  0
VERTEX
  8
Net
  10
1.1907
  20
3.0363
  42
0
  0
VERTEX
  8
Net
  10
1.1951
  20
3.0341
  42
0
  0
VERTEX
  8
Net
  10
1.2
  20
3.0333
  42
0
  0
VERTEX
  8
Net
  10
1.2049
  20
3.0341
  42
0
  0
VERTEX
  8
Net
  10
1.2093
  20
3.0363
  42
0
  0
VERTEX
  8
Net
  10
1.2127
  20
3.0398
  42
0
  0
VERTEX
  8
Net
  10
1.215
  20
3.0442
  42
0
  0
VERTEX
  8
Net
  10
1.2157
  20
3.0491
  42
0
  0
VERTEX
  8
Net
  10
1.215
  20
3.0539
  42
0
  0
VERTEX
  8
Net
  10
1.2127
  20
3.0583
  42
0
  0
VERTEX
  8
Net
  10
1.2093
  20
3.0618
  42
0
  0
VERTEX
  8
Net
  10
1.2049
  20
3.064
  42
0
  0
VERTEX
  8
Net
  10
1.2
  20
3.0648
  42
0
  0
VERTEX
  8
Net
  10
1.1951
  20
3.064
  42
0
  0
VERTEX
  8
Net
  10
1.1907
  20
3.0618
  42
0
  0
VERTEX
  8
Net
  10
1.1873
  20
3.0583
  42
0
  0
VERTEX
  8
Net
  10
1.185
  20
3.0539
  42
0
  0
VERTEX
  8
Net
  10
1.1843
  20
3.0491
  42
0
  0
SEQEND
  0
POLYLINE
  8
Net
  6
CONTINUOUS
  66
1
  70
0
  40
0.002
  41
0.002
  0
VERTEX
  8
Net
  10
1.1833
  20
3.0491
  42
1
  0
VERTEX
  8
Net
  10
1.1852
  20
3.0491
  42
1
  0
VERTEX
  8
Net
  10
1.1833
  20
3.0491
  42
1
  0
SEQEND
  0
POLYLINE
  8
Net
  6
CONTINUOUS
  66
1
  70
0
  40
0.0039
  41
0.0039
  0
VERTEX
  8
Net
  10
0.1
  20
3.0491
  42
0
  0
VERTEX
  8
Net
  10
1.2
  20
3.0491
  42
0
  0
SEQEND
  0
POLYLINE
  8
Net
  6
CONTINUOUS
  66
1
  70
0
  40
0.002
  41
0.002
  0
VERTEX
  8
Net
  10
0.099
  20
3.0491
  42
1
  0
VERTEX
  8
Net
  10
0.101
  20
3.0491
  42
1
  0
VERTEX
  8
Net
  10
0.099
  20
3.0491
  42
1
  0
SEQEND
  0
POLYLINE
  8
Net
  6
CONTINUOUS
  66
1
  70
0
  40
0.002
  41
0.002
  0
VERTEX
  8
Net
  10
1.199
  20
3.0491
  42
1
  0
VERTEX
  8
Net
  10
1.201
  20
3.0491
  42
1
  0
VERTEX
  8
Net
  10
1.199
  20
3.0491
  42
1
  0
SEQEND
  0
POLYLINE
  8
Net
  6
CONTINUOUS
  66
1
  70
0
  40
0.0039
  41
0.0039
  0
VERTEX
  8
Net
  10
1.5843
  20
3.0491
  42
0
  0
VERTEX
  8
Net
  10
1.585
  20
3.0442
  42
0
  0
VERTEX
  8
Net
  10
1.5873
  20
3.0398
  42
0
  0
VERTEX
  8
Net
  10
1.5907
  20
3.0363
  42
0
  0
VERTEX
  8
Net
  10
1.5951
  20
3.0341
  42
0
  0
VERTEX
  8
Net
  10
1.6
  20
3.0333
  42
0
  0
VERTEX
  8
Net
  10
1.6049
  20
3.0341
  42
0
  0
VERTEX
  8
Net
  10
1.6093
  20
3.0363
  42
0
  0
VERTEX
  8
Net
  10
1.6127
  20
3.0398
  42
0
  0
VERTEX
  8
Net
  10
1.615
  20
3.0442
  42
0
  0
VERTEX
  8
Net
  10
1.6157
  20
3.0491
  42
0
  0
VERTEX
  8
Net
  10
1.615
  20
3.0539
  42
0
  0
VERTEX
  8
Net
  10
1.6127
  20
3.0583
  42
0
  0
VERTEX
  8
Net
  10
1.6093
  20
3.0618
  42
0
  0
VERTEX
  8
Net
  10
1.6049
  20
3.064
  42
0
  0
VERTEX
  8
Net
  10
1.6
  20
3.0648
  42
0
  0
VERTEX
  8
Net
  10
1.5951
  20
3.064
  42
0
  0
VERTEX
  8
Net
  10
1.5907
  20
3.0618
  42
0
  0
VERTEX
  8
Net
  10
1.5873
  20
3.0583
  42
0
  0
VERTEX
  8
Net
  10
1.585
  20
3.0539
  42
0
  0
VERTEX
  8
Net
  10
1.5843
  20
3.0491
  42
0
  0
SEQEND
  0
POLYLINE
  8
Net
  6
CONTINUOUS
  66
1
  70
0
  40
0.002
  41
0.002
  0
VERTEX
  8
Net
  10
1.5833
  20
3.0491
  42
1
  0
VERTEX
  8
Net
  10
1.5852
  20
3.0491
  42
1
  0
VERTEX
  8
Net
  10
1.5833
  20
3.0491
  42
1
  0
SEQEND
  0
POLYLINE
  8
Net
  6
CONTINUOUS
  66
1
  70
0
  40
0.0039
  41
0.0039
  0
VERTEX
  8
Net
  10
1.6
  20
2.4491
  42
0
  0
VERTEX
  8
Net
  10
1.6
  20
3.0491
  42
0
  0
SEQEND
  0
POLYLINE
  8
Net
  6
CONTINUOUS
  66
1
  70
0
  40
0.002
  41
0.002
  0
VERTEX
  8
Net
  10
1.599
  20
2.4491
  42
1
  0
VERTEX
  8
Net
  10
1.601
  20
2.4491
  42
1
  0
VERTEX
  8
Net
  10
1.599
  20
2.4491
  42
1
  0
SEQEND
  0
POLYLINE
  8
Net
  6
CONTINUOUS
  66
1
  70
0
  40
0.002
  41
0.002
  0
VERTEX
  8
Net
  10
1.599
  20
3.0491
  42
1
  0
VERTEX
  8
Net
  10
1.601
  20
3.0491
  42
1
  0
VERTEX
  8
Net
  10
1.599
  20
3.0491
  42
1
  0
SEQEND
  0
POLYLINE
  8
Net
  6
CONTINUOUS
  66
1
  70
0
  40
0.0039
  41
0.0039
  0
VERTEX
  8
Net
  10
2.0843
  20
3.0491
  42
0
  0
VERTEX
  8
Net
  10
2.085
  20
3.0442
  42
0
  0
VERTEX
  8
Net
  10
2.0873
  20
3.0398
  42
0
  0
VERTEX
  8
Net
  10
2.0907
  20
3.0363
  42
0
  0
VERTEX
  8
Net
  10
2.0951
  20
3.0341
  42
0
  0
VERTEX
  8
Net
  10
2.1
  20
3.0333
  42
0
  0
VERTEX
  8
Net
  10
2.1049
  20
3.0341
  42
0
  0
VERTEX
  8
Net
  10
2.1093
  20
3.0363
  42
0
  0
VERTEX
  8
Net
  10
2.1127
  20
3.0398
  42
0
  0
VERTEX
  8
Net
  10
2.115
  20
3.0442
  42
0
  0
VERTEX
  8
Net
  10
2.1157
  20
3.0491
  42
0
  0
VERTEX
  8
Net
  10
2.115
  20
3.0539
  42
0
  0
VERTEX
  8
Net
  10
2.1127
  20
3.0583
  42
0
  0
VERTEX
  8
Net
  10
2.1093
  20
3.0618
  42
0
  0
VERTEX
  8
Net
  10
2.1049
  20
3.064
  42
0
  0
VERTEX
  8
Net
  10
2.1
  20
3.0648
  42
0
  0
VERTEX
  8
Net
  10
2.0951
  20
3.064
  42
0
  0
VERTEX
  8
Net
  10
2.0907
  20
3.0618
  42
0
  0
VERTEX
  8
Net
  10
2.0873
  20
3.0583
  42
0
  0
VERTEX
  8
Net
  10
2.085
  20
3.0539
  42
0
  0
VERTEX
  8
Net
  10
2.0843
  20
3.0491
  42
0
  0
SEQEND
  0
POLYLINE
  8
Net
  6
CONTINUOUS
  66
1
  70
0
  40
0.002
  41
0.002
  0
VERTEX
  8
Net
  10
2.0833
  20
3.0491
  42
1
  0
VERTEX
  8
Net
  10
2.0852
  20
3.0491
  42
1
  0
VERTEX
  8
Net
  10
2.0833
  20
3.0491
  42
1
  0
SEQEND
  0
POLYLINE
  8
Net
  6
CONTINUOUS
  66
1
  70
0
  40
0.0039
  41
0.0039
  0
VERTEX
  8
Net
  10
2.1
  20
2.7491
  42
0
  0
VERTEX
  8
Net
  10
2.1
  20
3.0491
  42
0
  0
SEQEND
  0
POLYLINE
  8
Net
  6
CONTINUOUS
  66
1
  70
0
  40
0.002
  41
0.002
  0
VERTEX
  8
Net
  10
2.099
  20
2.7491
  42
1
  0
VERTEX
  8
Net
  10
2.101
  20
2.7491
  42
1
  0
VERTEX
  8
Net
  10
2.099
  20
2.7491
  42
1
  0
SEQEND
  0
POLYLINE
  8
Net
  6
CONTINUOUS
  66
1
  70
0
  40
0.002
  41
0.002
  0
VERTEX
  8
Net
  10
2.099
  20
3.0491
  42
1
  0
VERTEX
  8
Net
  10
2.101
  20
3.0491
  42
1
  0
VERTEX
  8
Net
  10
2.099
  20
3.0491
  42
1
  0
SEQEND
  0
POLYLINE
  8
Net
  6
CONTINUOUS
  66
1
  70
0
  40
0.0039
  41
0.0039
  0
VERTEX
  8
Net
  10
4.3343
  20
3.0491
  42
0
  0
VERTEX
  8
Net
  10
4.335
  20
3.0442
  42
0
  0
VERTEX
  8
Net
  10
4.3373
  20
3.0398
  42
0
  0
VERTEX
  8
Net
  10
4.3407
  20
3.0363
  42
0
  0
VERTEX
  8
Net
  10
4.3451
  20
3.0341
  42
0
  0
VERTEX
  8
Net
  10
4.35
  20
3.0333
  42
0
  0
VERTEX
  8
Net
  10
4.3549
  20
3.0341
  42
0
  0
VERTEX
  8
Net
  10
4.3593
  20
3.0363
  42
0
  0
VERTEX
  8
Net
  10
4.3627
  20
3.0398
  42
0
  0
VERTEX
  8
Net
  10
4.365
  20
3.0442
  42
0
  0
VERTEX
  8
Net
  10
4.3657
  20
3.0491
  42
0
  0
VERTEX
  8
Net
  10
4.365
  20
3.0539
  42
0
  0
VERTEX
  8
Net
  10
4.3627
  20
3.0583
  42
0
  0
VERTEX
  8
Net
  10
4.3593
  20
3.0618
  42
0
  0
VERTEX
  8
Net
  10
4.3549
  20
3.064
  42
0
  0
VERTEX
  8
Net
  10
4.35
  20
3.0648
  42
0
  0
VERTEX
  8
Net
  10
4.3451
  20
3.064
  42
0
  0
VERTEX
  8
Net
  10
4.3407
  20
3.0618
  42
0
  0
VERTEX
  8
Net
  10
4.3373
  20
3.0583
  42
0
  0
VERTEX
  8
Net
  10
4.335
  20
3.0539
  42
0
  0
VERTEX
  8
Net
  10
4.3343
  20
3.0491
  42
0
  0
SEQEND
  0
POLYLINE
  8
Net
  6
CONTINUOUS
  66
1
  70
0
  40
0.002
  41
0.002
  0
VERTEX
  8
Net
  10
4.3333
  20
3.0491
  42
1
  0
VERTEX
  8
Net
  10
4.3352
  20
3.0491
  42
1
  0
VERTEX
  8
Net
  10
4.3333
  20
3.0491
  42
1
  0
SEQEND
  0
POLYLINE
  8
Net
  6
CONTINUOUS
  66
1
  70
0
  40
0.0039
  41
0.0039
  0
VERTEX
  8
Net
  10
4.7
  20
2.7491
  42
0
  0
VERTEX
  8
Net
  10
4.7
  20
3.0491
  42
0
  0
SEQEND
  0
POLYLINE
  8
Net
  6
CONTINUOUS
  66
1
  70
0
  40
0.002
  41
0.002
  0
VERTEX
  8
Net
  10
4.699
  20
2.7491
  42
1
  0
VERTEX
  8
Net
  10
4.701
  20
2.7491
  42
1
  0
VERTEX
  8
Net
  10
4.699
  20
2.7491
  42
1
  0
SEQEND
  0
POLYLINE
  8
Net
  6
CONTINUOUS
  66
1
  70
0
  40
0.002
  41
0.002
  0
VERTEX
  8
Net
  10
4.699
  20
3.0491
  42
1
  0
VERTEX
  8
Net
  10
4.701
  20
3.0491
  42
1
  0
VERTEX
  8
Net
  10
4.699
  20
3.0491
  42
1
  0
SEQEND
  0
POLYLINE
  8
Net
  6
CONTINUOUS
  66
1
  70
0
  40
0.0039
  41
0.0039
  0
VERTEX
  8
Net
  10
4.7
  20
3.0491
  42
0
  0
VERTEX
  8
Net
  10
4.35
  20
3.0491
  42
0
  0
SEQEND
  0
POLYLINE
  8
Net
  6
CONTINUOUS
  66
1
  70
0
  40
0.002
  41
0.002
  0
VERTEX
  8
Net
  10
4.699
  20
3.0491
  42
1
  0
VERTEX
  8
Net
  10
4.701
  20
3.0491
  42
1
  0
VERTEX
  8
Net
  10
4.699
  20
3.0491
  42
1
  0
SEQEND
  0
POLYLINE
  8
Net
  6
CONTINUOUS
  66
1
  70
0
  40
0.002
  41
0.002
  0
VERTEX
  8
Net
  10
4.349
  20
3.0491
  42
1
  0
VERTEX
  8
Net
  10
4.351
  20
3.0491
  42
1
  0
VERTEX
  8
Net
  10
4.349
  20
3.0491
  42
1
  0
SEQEND
  0
POLYLINE
  8
Net
  6
CONTINUOUS
  66
1
  70
0
  40
0.0039
  41
0.0039
  0
VERTEX
  8
Net
  10
2.9843
  20
3.0491
  42
0
  0
VERTEX
  8
Net
  10
2.985
  20
3.0442
  42
0
  0
VERTEX
  8
Net
  10
2.9873
  20
3.0398
  42
0
  0
VERTEX
  8
Net
  10
2.9907
  20
3.0363
  42
0
  0
VERTEX
  8
Net
  10
2.9951
  20
3.0341
  42
0
  0
VERTEX
  8
Net
  10
3.0
  20
3.0333
  42
0
  0
VERTEX
  8
Net
  10
3.0049
  20
3.0341
  42
0
  0
VERTEX
  8
Net
  10
3.0093
  20
3.0363
  42
0
  0
VERTEX
  8
Net
  10
3.0127
  20
3.0398
  42
0
  0
VERTEX
  8
Net
  10
3.015
  20
3.0442
  42
0
  0
VERTEX
  8
Net
  10
3.0157
  20
3.0491
  42
0
  0
VERTEX
  8
Net
  10
3.015
  20
3.0539
  42
0
  0
VERTEX
  8
Net
  10
3.0127
  20
3.0583
  42
0
  0
VERTEX
  8
Net
  10
3.0093
  20
3.0618
  42
0
  0
VERTEX
  8
Net
  10
3.0049
  20
3.064
  42
0
  0
VERTEX
  8
Net
  10
3.0
  20
3.0648
  42
0
  0
VERTEX
  8
Net
  10
2.9951
  20
3.064
  42
0
  0
VERTEX
  8
Net
  10
2.9907
  20
3.0618
  42
0
  0
VERTEX
  8
Net
  10
2.9873
  20
3.0583
  42
0
  0
VERTEX
  8
Net
  10
2.985
  20
3.0539
  42
0
  0
VERTEX
  8
Net
  10
2.9843
  20
3.0491
  42
0
  0
SEQEND
  0
POLYLINE
  8
Net
  6
CONTINUOUS
  66
1
  70
0
  40
0.002
  41
0.002
  0
VERTEX
  8
Net
  10
2.9833
  20
3.0491
  42
1
  0
VERTEX
  8
Net
  10
2.9852
  20
3.0491
  42
1
  0
VERTEX
  8
Net
  10
2.9833
  20
3.0491
  42
1
  0
SEQEND
  0
POLYLINE
  8
Net
  6
CONTINUOUS
  66
1
  70
0
  40
0.0039
  41
0.0039
  0
VERTEX
  8
Net
  10
3.1
  20
1.6491
  42
0
  0
VERTEX
  8
Net
  10
3.0
  20
1.6491
  42
0
  0
SEQEND
  0
POLYLINE
  8
Net
  6
CONTINUOUS
  66
1
  70
0
  40
0.002
  41
0.002
  0
VERTEX
  8
Net
  10
3.099
  20
1.6491
  42
1
  0
VERTEX
  8
Net
  10
3.101
  20
1.6491
  42
1
  0
VERTEX
  8
Net
  10
3.099
  20
1.6491
  42
1
  0
SEQEND
  0
POLYLINE
  8
Net
  6
CONTINUOUS
  66
1
  70
0
  40
0.002
  41
0.002
  0
VERTEX
  8
Net
  10
2.999
  20
1.6491
  42
1
  0
VERTEX
  8
Net
  10
3.001
  20
1.6491
  42
1
  0
VERTEX
  8
Net
  10
2.999
  20
1.6491
  42
1
  0
SEQEND
  0
POLYLINE
  8
Net
  6
CONTINUOUS
  66
1
  70
0
  40
0.0039
  41
0.0039
  0
VERTEX
  8
Net
  10
3.0
  20
1.6491
  42
0
  0
VERTEX
  8
Net
  10
3.0
  20
3.0491
  42
0
  0
SEQEND
  0
POLYLINE
  8
Net
  6
CONTINUOUS
  66
1
  70
0
  40
0.002
  41
0.002
  0
VERTEX
  8
Net
  10
2.999
  20
1.6491
  42
1
  0
VERTEX
  8
Net
  10
3.001
  20
1.6491
  42
1
  0
VERTEX
  8
Net
  10
2.999
  20
1.6491
  42
1
  0
SEQEND
  0
POLYLINE
  8
Net
  6
CONTINUOUS
  66
1
  70
0
  40
0.002
  41
0.002
  0
VERTEX
  8
Net
  10
2.999
  20
3.0491
  42
1
  0
VERTEX
  8
Net
  10
3.001
  20
3.0491
  42
1
  0
VERTEX
  8
Net
  10
2.999
  20
3.0491
  42
1
  0
SEQEND
  0
POLYLINE
  8
Net
  6
CONTINUOUS
  66
1
  70
0
  40
0.0039
  41
0.0039
  0
VERTEX
  8
Net
  10
0.5843
  20
3.0491
  42
0
  0
VERTEX
  8
Net
  10
0.585
  20
3.0442
  42
0
  0
VERTEX
  8
Net
  10
0.5873
  20
3.0398
  42
0
  0
VERTEX
  8
Net
  10
0.5907
  20
3.0363
  42
0
  0
VERTEX
  8
Net
  10
0.5951
  20
3.0341
  42
0
  0
VERTEX
  8
Net
  10
0.6
  20
3.0333
  42
0
  0
VERTEX
  8
Net
  10
0.6049
  20
3.0341
  42
0
  0
VERTEX
  8
Net
  10
0.6093
  20
3.0363
  42
0
  0
VERTEX
  8
Net
  10
0.6127
  20
3.0398
  42
0
  0
VERTEX
  8
Net
  10
0.615
  20
3.0442
  42
0
  0
VERTEX
  8
Net
  10
0.6157
  20
3.0491
  42
0
  0
VERTEX
  8
Net
  10
0.615
  20
3.0539
  42
0
  0
VERTEX
  8
Net
  10
0.6127
  20
3.0583
  42
0
  0
VERTEX
  8
Net
  10
0.6093
  20
3.0618
  42
0
  0
VERTEX
  8
Net
  10
0.6049
  20
3.064
  42
0
  0
VERTEX
  8
Net
  10
0.6
  20
3.0648
  42
0
  0
VERTEX
  8
Net
  10
0.5951
  20
3.064
  42
0
  0
VERTEX
  8
Net
  10
0.5907
  20
3.0618
  42
0
  0
VERTEX
  8
Net
  10
0.5873
  20
3.0583
  42
0
  0
VERTEX
  8
Net
  10
0.585
  20
3.0539
  42
0
  0
VERTEX
  8
Net
  10
0.5843
  20
3.0491
  42
0
  0
SEQEND
  0
POLYLINE
  8
Net
  6
CONTINUOUS
  66
1
  70
0
  40
0.002
  41
0.002
  0
VERTEX
  8
Net
  10
0.5833
  20
3.0491
  42
1
  0
VERTEX
  8
Net
  10
0.5852
  20
3.0491
  42
1
  0
VERTEX
  8
Net
  10
0.5833
  20
3.0491
  42
1
  0
SEQEND
  0
POLYLINE
  8
Net
  6
CONTINUOUS
  66
1
  70
0
  40
0.0039
  41
0.0039
  0
VERTEX
  8
Net
  10
0.6
  20
1.8491
  42
0
  0
VERTEX
  8
Net
  10
0.6
  20
3.0491
  42
0
  0
SEQEND
  0
POLYLINE
  8
Net
  6
CONTINUOUS
  66
1
  70
0
  40
0.002
  41
0.002
  0
VERTEX
  8
Net
  10
0.599
  20
1.8491
  42
1
  0
VERTEX
  8
Net
  10
0.601
  20
1.8491
  42
1
  0
VERTEX
  8
Net
  10
0.599
  20
1.8491
  42
1
  0
SEQEND
  0
POLYLINE
  8
Net
  6
CONTINUOUS
  66
1
  70
0
  40
0.002
  41
0.002
  0
VERTEX
  8
Net
  10
0.599
  20
3.0491
  42
1
  0
VERTEX
  8
Net
  10
0.601
  20
3.0491
  42
1
  0
VERTEX
  8
Net
  10
0.599
  20
3.0491
  42
1
  0
SEQEND
  0
POLYLINE
  8
Net
  6
CONTINUOUS
  66
1
  70
0
  40
0.0039
  41
0.0039
  0
VERTEX
  8
Net
  10
2.8
  20
1.7491
  42
0
  0
VERTEX
  8
Net
  10
3.1
  20
1.7491
  42
0
  0
SEQEND
  0
POLYLINE
  8
Net
  6
CONTINUOUS
  66
1
  70
0
  40
0.002
  41
0.002
  0
VERTEX
  8
Net
  10
2.799
  20
1.7491
  42
1
  0
VERTEX
  8
Net
  10
2.801
  20
1.7491
  42
1
  0
VERTEX
  8
Net
  10
2.799
  20
1.7491
  42
1
  0
SEQEND
  0
POLYLINE
  8
Net
  6
CONTINUOUS
  66
1
  70
0
  40
0.002
  41
0.002
  0
VERTEX
  8
Net
  10
3.099
  20
1.7491
  42
1
  0
VERTEX
  8
Net
  10
3.101
  20
1.7491
  42
1
  0
VERTEX
  8
Net
  10
3.099
  20
1.7491
  42
1
  0
SEQEND
  0
POLYLINE
  8
Net
  6
CONTINUOUS
  66
1
  70
0
  40
0.0039
  41
0.0039
  0
VERTEX
  8
Net
  10
4.7
  20
0.4491
  42
0
  0
VERTEX
  8
Net
  10
4.7
  20
0.2491
  42
0
  0
SEQEND
  0
POLYLINE
  8
Net
  6
CONTINUOUS
  66
1
  70
0
  40
0.002
  41
0.002
  0
VERTEX
  8
Net
  10
4.699
  20
0.4491
  42
1
  0
VERTEX
  8
Net
  10
4.701
  20
0.4491
  42
1
  0
VERTEX
  8
Net
  10
4.699
  20
0.4491
  42
1
  0
SEQEND
  0
POLYLINE
  8
Net
  6
CONTINUOUS
  66
1
  70
0
  40
0.002
  41
0.002
  0
VERTEX
  8
Net
  10
4.699
  20
0.2491
  42
1
  0
VERTEX
  8
Net
  10
4.701
  20
0.2491
  42
1
  0
VERTEX
  8
Net
  10
4.699
  20
0.2491
  42
1
  0
SEQEND
  0
POLYLINE
  8
Net
  6
CONTINUOUS
  66
1
  70
0
  40
0.0039
  41
0.0039
  0
VERTEX
  8
Net
  10
4.7
  20
0.2491
  42
0
  0
VERTEX
  8
Net
  10
0.1
  20
0.2491
  42
0
  0
SEQEND
  0
POLYLINE
  8
Net
  6
CONTINUOUS
  66
1
  70
0
  40
0.002
  41
0.002
  0
VERTEX
  8
Net
  10
4.699
  20
0.2491
  42
1
  0
VERTEX
  8
Net
  10
4.701
  20
0.2491
  42
1
  0
VERTEX
  8
Net
  10
4.699
  20
0.2491
  42
1
  0
SEQEND
  0
POLYLINE
  8
Net
  6
CONTINUOUS
  66
1
  70
0
  40
0.002
  41
0.002
  0
VERTEX
  8
Net
  10
0.099
  20
0.2491
  42
1
  0
VERTEX
  8
Net
  10
0.101
  20
0.2491
  42
1
  0
VERTEX
  8
Net
  10
0.099
  20
0.2491
  42
1
  0
SEQEND
  0
POLYLINE
  8
Net
  6
CONTINUOUS
  66
1
  70
0
  40
0.0039
  41
0.0039
  0
VERTEX
  8
Net
  10
2.7843
  20
0.2491
  42
0
  0
VERTEX
  8
Net
  10
2.785
  20
0.2442
  42
0
  0
VERTEX
  8
Net
  10
2.7873
  20
0.2398
  42
0
  0
VERTEX
  8
Net
  10
2.7907
  20
0.2363
  42
0
  0
VERTEX
  8
Net
  10
2.7951
  20
0.2341
  42
0
  0
VERTEX
  8
Net
  10
2.8
  20
0.2333
  42
0
  0
VERTEX
  8
Net
  10
2.8049
  20
0.2341
  42
0
  0
VERTEX
  8
Net
  10
2.8093
  20
0.2363
  42
0
  0
VERTEX
  8
Net
  10
2.8127
  20
0.2398
  42
0
  0
VERTEX
  8
Net
  10
2.815
  20
0.2442
  42
0
  0
VERTEX
  8
Net
  10
2.8157
  20
0.2491
  42
0
  0
VERTEX
  8
Net
  10
2.815
  20
0.2539
  42
0
  0
VERTEX
  8
Net
  10
2.8127
  20
0.2583
  42
0
  0
VERTEX
  8
Net
  10
2.8093
  20
0.2618
  42
0
  0
VERTEX
  8
Net
  10
2.8049
  20
0.264
  42
0
  0
VERTEX
  8
Net
  10
2.8
  20
0.2648
  42
0
  0
VERTEX
  8
Net
  10
2.7951
  20
0.264
  42
0
  0
VERTEX
  8
Net
  10
2.7907
  20
0.2618
  42
0
  0
VERTEX
  8
Net
  10
2.7873
  20
0.2583
  42
0
  0
VERTEX
  8
Net
  10
2.785
  20
0.2539
  42
0
  0
VERTEX
  8
Net
  10
2.7843
  20
0.2491
  42
0
  0
SEQEND
  0
POLYLINE
  8
Net
  6
CONTINUOUS
  66
1
  70
0
  40
0.002
  41
0.002
  0
VERTEX
  8
Net
  10
2.7833
  20
0.2491
  42
1
  0
VERTEX
  8
Net
  10
2.7852
  20
0.2491
  42
1
  0
VERTEX
  8
Net
  10
2.7833
  20
0.2491
  42
1
  0
SEQEND
  0
POLYLINE
  8
Net
  6
CONTINUOUS
  66
1
  70
0
  40
0.0039
  41
0.0039
  0
VERTEX
  8
Net
  10
2.8
  20
0.4491
  42
0
  0
VERTEX
  8
Net
  10
2.8
  20
0.2491
  42
0
  0
SEQEND
  0
POLYLINE
  8
Net
  6
CONTINUOUS
  66
1
  70
0
  40
0.002
  41
0.002
  0
VERTEX
  8
Net
  10
2.799
  20
0.4491
  42
1
  0
VERTEX
  8
Net
  10
2.801
  20
0.4491
  42
1
  0
VERTEX
  8
Net
  10
2.799
  20
0.4491
  42
1
  0
SEQEND
  0
POLYLINE
  8
Net
  6
CONTINUOUS
  66
1
  70
0
  40
0.002
  41
0.002
  0
VERTEX
  8
Net
  10
2.799
  20
0.2491
  42
1
  0
VERTEX
  8
Net
  10
2.801
  20
0.2491
  42
1
  0
VERTEX
  8
Net
  10
2.799
  20
0.2491
  42
1
  0
SEQEND
  0
POLYLINE
  8
Net
  6
CONTINUOUS
  66
1
  70
0
  40
0.0039
  41
0.0039
  0
VERTEX
  8
Net
  10
2.5843
  20
0.2491
  42
0
  0
VERTEX
  8
Net
  10
2.585
  20
0.2442
  42
0
  0
VERTEX
  8
Net
  10
2.5873
  20
0.2398
  42
0
  0
VERTEX
  8
Net
  10
2.5907
  20
0.2363
  42
0
  0
VERTEX
  8
Net
  10
2.5951
  20
0.2341
  42
0
  0
VERTEX
  8
Net
  10
2.6
  20
0.2333
  42
0
  0
VERTEX
  8
Net
  10
2.6049
  20
0.2341
  42
0
  0
VERTEX
  8
Net
  10
2.6093
  20
0.2363
  42
0
  0
VERTEX
  8
Net
  10
2.6127
  20
0.2398
  42
0
  0
VERTEX
  8
Net
  10
2.615
  20
0.2442
  42
0
  0
VERTEX
  8
Net
  10
2.6157
  20
0.2491
  42
0
  0
VERTEX
  8
Net
  10
2.615
  20
0.2539
  42
0
  0
VERTEX
  8
Net
  10
2.6127
  20
0.2583
  42
0
  0
VERTEX
  8
Net
  10
2.6093
  20
0.2618
  42
0
  0
VERTEX
  8
Net
  10
2.6049
  20
0.264
  42
0
  0
VERTEX
  8
Net
  10
2.6
  20
0.2648
  42
0
  0
VERTEX
  8
Net
  10
2.5951
  20
0.264
  42
0
  0
VERTEX
  8
Net
  10
2.5907
  20
0.2618
  42
0
  0
VERTEX
  8
Net
  10
2.5873
  20
0.2583
  42
0
  0
VERTEX
  8
Net
  10
2.585
  20
0.2539
  42
0
  0
VERTEX
  8
Net
  10
2.5843
  20
0.2491
  42
0
  0
SEQEND
  0
POLYLINE
  8
Net
  6
CONTINUOUS
  66
1
  70
0
  40
0.002
  41
0.002
  0
VERTEX
  8
Net
  10
2.5833
  20
0.2491
  42
1
  0
VERTEX
  8
Net
  10
2.5852
  20
0.2491
  42
1
  0
VERTEX
  8
Net
  10
2.5833
  20
0.2491
  42
1
  0
SEQEND
  0
POLYLINE
  8
Net
  6
CONTINUOUS
  66
1
  70
0
  40
0.0039
  41
0.0039
  0
VERTEX
  8
Net
  10
3.1
  20
1.9491
  42
0
  0
VERTEX
  8
Net
  10
2.6
  20
1.9491
  42
0
  0
SEQEND
  0
POLYLINE
  8
Net
  6
CONTINUOUS
  66
1
  70
0
  40
0.002
  41
0.002
  0
VERTEX
  8
Net
  10
3.099
  20
1.9491
  42
1
  0
VERTEX
  8
Net
  10
3.101
  20
1.9491
  42
1
  0
VERTEX
  8
Net
  10
3.099
  20
1.9491
  42
1
  0
SEQEND
  0
POLYLINE
  8
Net
  6
CONTINUOUS
  66
1
  70
0
  40
0.002
  41
0.002
  0
VERTEX
  8
Net
  10
2.599
  20
1.9491
  42
1
  0
VERTEX
  8
Net
  10
2.601
  20
1.9491
  42
1
  0
VERTEX
  8
Net
  10
2.599
  20
1.9491
  42
1
  0
SEQEND
  0
POLYLINE
  8
Net
  6
CONTINUOUS
  66
1
  70
0
  40
0.0039
  41
0.0039
  0
VERTEX
  8
Net
  10
2.6
  20
1.9491
  42
0
  0
VERTEX
  8
Net
  10
2.6
  20
0.2491
  42
0
  0
SEQEND
  0
POLYLINE
  8
Net
  6
CONTINUOUS
  66
1
  70
0
  40
0.002
  41
0.002
  0
VERTEX
  8
Net
  10
2.599
  20
1.9491
  42
1
  0
VERTEX
  8
Net
  10
2.601
  20
1.9491
  42
1
  0
VERTEX
  8
Net
  10
2.599
  20
1.9491
  42
1
  0
SEQEND
  0
POLYLINE
  8
Net
  6
CONTINUOUS
  66
1
  70
0
  40
0.002
  41
0.002
  0
VERTEX
  8
Net
  10
2.599
  20
0.2491
  42
1
  0
VERTEX
  8
Net
  10
2.601
  20
0.2491
  42
1
  0
VERTEX
  8
Net
  10
2.599
  20
0.2491
  42
1
  0
SEQEND
  0
POLYLINE
  8
Net
  6
CONTINUOUS
  66
1
  70
0
  40
0.0039
  41
0.0039
  0
VERTEX
  8
Net
  10
1.5843
  20
0.2491
  42
0
  0
VERTEX
  8
Net
  10
1.585
  20
0.2442
  42
0
  0
VERTEX
  8
Net
  10
1.5873
  20
0.2398
  42
0
  0
VERTEX
  8
Net
  10
1.5907
  20
0.2363
  42
0
  0
VERTEX
  8
Net
  10
1.5951
  20
0.2341
  42
0
  0
VERTEX
  8
Net
  10
1.6
  20
0.2333
  42
0
  0
VERTEX
  8
Net
  10
1.6049
  20
0.2341
  42
0
  0
VERTEX
  8
Net
  10
1.6093
  20
0.2363
  42
0
  0
VERTEX
  8
Net
  10
1.6127
  20
0.2398
  42
0
  0
VERTEX
  8
Net
  10
1.615
  20
0.2442
  42
0
  0
VERTEX
  8
Net
  10
1.6157
  20
0.2491
  42
0
  0
VERTEX
  8
Net
  10
1.615
  20
0.2539
  42
0
  0
VERTEX
  8
Net
  10
1.6127
  20
0.2583
  42
0
  0
VERTEX
  8
Net
  10
1.6093
  20
0.2618
  42
0
  0
VERTEX
  8
Net
  10
1.6049
  20
0.264
  42
0
  0
VERTEX
  8
Net
  10
1.6
  20
0.2648
  42
0
  0
VERTEX
  8
Net
  10
1.5951
  20
0.264
  42
0
  0
VERTEX
  8
Net
  10
1.5907
  20
0.2618
  42
0
  0
VERTEX
  8
Net
  10
1.5873
  20
0.2583
  42
0
  0
VERTEX
  8
Net
  10
1.585
  20
0.2539
  42
0
  0
VERTEX
  8
Net
  10
1.5843
  20
0.2491
  42
0
  0
SEQEND
  0
POLYLINE
  8
Net
  6
CONTINUOUS
  66
1
  70
0
  40
0.002
  41
0.002
  0
VERTEX
  8
Net
  10
1.5833
  20
0.2491
  42
1
  0
VERTEX
  8
Net
  10
1.5852
  20
0.2491
  42
1
  0
VERTEX
  8
Net
  10
1.5833
  20
0.2491
  42
1
  0
SEQEND
  0
POLYLINE
  8
Net
  6
CONTINUOUS
  66
1
  70
0
  40
0.0039
  41
0.0039
  0
VERTEX
  8
Net
  10
1.6
  20
0.9491
  42
0
  0
VERTEX
  8
Net
  10
1.6
  20
0.2491
  42
0
  0
SEQEND
  0
POLYLINE
  8
Net
  6
CONTINUOUS
  66
1
  70
0
  40
0.002
  41
0.002
  0
VERTEX
  8
Net
  10
1.599
  20
0.9491
  42
1
  0
VERTEX
  8
Net
  10
1.601
  20
0.9491
  42
1
  0
VERTEX
  8
Net
  10
1.599
  20
0.9491
  42
1
  0
SEQEND
  0
POLYLINE
  8
Net
  6
CONTINUOUS
  66
1
  70
0
  40
0.002
  41
0.002
  0
VERTEX
  8
Net
  10
1.599
  20
0.2491
  42
1
  0
VERTEX
  8
Net
  10
1.601
  20
0.2491
  42
1
  0
VERTEX
  8
Net
  10
1.599
  20
0.2491
  42
1
  0
SEQEND
  0
POLYLINE
  8
Net
  6
CONTINUOUS
  66
1
  70
0
  40
0.0039
  41
0.0039
  0
VERTEX
  8
Net
  10
1.1843
  20
0.2491
  42
0
  0
VERTEX
  8
Net
  10
1.185
  20
0.2442
  42
0
  0
VERTEX
  8
Net
  10
1.1873
  20
0.2398
  42
0
  0
VERTEX
  8
Net
  10
1.1907
  20
0.2363
  42
0
  0
VERTEX
  8
Net
  10
1.1951
  20
0.2341
  42
0
  0
VERTEX
  8
Net
  10
1.2
  20
0.2333
  42
0
  0
VERTEX
  8
Net
  10
1.2049
  20
0.2341
  42
0
  0
VERTEX
  8
Net
  10
1.2093
  20
0.2363
  42
0
  0
VERTEX
  8
Net
  10
1.2127
  20
0.2398
  42
0
  0
VERTEX
  8
Net
  10
1.215
  20
0.2442
  42
0
  0
VERTEX
  8
Net
  10
1.2157
  20
0.2491
  42
0
  0
VERTEX
  8
Net
  10
1.215
  20
0.2539
  42
0
  0
VERTEX
  8
Net
  10
1.2127
  20
0.2583
  42
0
  0
VERTEX
  8
Net
  10
1.2093
  20
0.2618
  42
0
  0
VERTEX
  8
Net
  10
1.2049
  20
0.264
  42
0
  0
VERTEX
  8
Net
  10
1.2
  20
0.2648
  42
0
  0
VERTEX
  8
Net
  10
1.1951
  20
0.264
  42
0
  0
VERTEX
  8
Net
  10
1.1907
  20
0.2618
  42
0
  0
VERTEX
  8
Net
  10
1.1873
  20
0.2583
  42
0
  0
VERTEX
  8
Net
  10
1.185
  20
0.2539
  42
0
  0
VERTEX
  8
Net
  10
1.1843
  20
0.2491
  42
0
  0
SEQEND
  0
POLYLINE
  8
Net
  6
CONTINUOUS
  66
1
  70
0
  40
0.002
  41
0.002
  0
VERTEX
  8
Net
  10
1.1833
  20
0.2491
  42
1
  0
VERTEX
  8
Net
  10
1.1852
  20
0.2491
  42
1
  0
VERTEX
  8
Net
  10
1.1833
  20
0.2491
  42
1
  0
SEQEND
  0
POLYLINE
  8
Net
  6
CONTINUOUS
  66
1
  70
0
  40
0.0039
  41
0.0039
  0
VERTEX
  8
Net
  10
1.2
  20
0.4491
  42
0
  0
VERTEX
  8
Net
  10
1.2
  20
0.2491
  42
0
  0
SEQEND
  0
POLYLINE
  8
Net
  6
CONTINUOUS
  66
1
  70
0
  40
0.002
  41
0.002
  0
VERTEX
  8
Net
  10
1.199
  20
0.4491
  42
1
  0
VERTEX
  8
Net
  10
1.201
  20
0.4491
  42
1
  0
VERTEX
  8
Net
  10
1.199
  20
0.4491
  42
1
  0
SEQEND
  0
POLYLINE
  8
Net
  6
CONTINUOUS
  66
1
  70
0
  40
0.002
  41
0.002
  0
VERTEX
  8
Net
  10
1.199
  20
0.2491
  42
1
  0
VERTEX
  8
Net
  10
1.201
  20
0.2491
  42
1
  0
VERTEX
  8
Net
  10
1.199
  20
0.2491
  42
1
  0
SEQEND
  0
POLYLINE
  8
Net
  6
CONTINUOUS
  66
1
  70
0
  40
0.0039
  41
0.0039
  0
VERTEX
  8
Net
  10
2.0843
  20
0.2491
  42
0
  0
VERTEX
  8
Net
  10
2.085
  20
0.2442
  42
0
  0
VERTEX
  8
Net
  10
2.0873
  20
0.2398
  42
0
  0
VERTEX
  8
Net
  10
2.0907
  20
0.2363
  42
0
  0
VERTEX
  8
Net
  10
2.0951
  20
0.2341
  42
0
  0
VERTEX
  8
Net
  10
2.1
  20
0.2333
  42
0
  0
VERTEX
  8
Net
  10
2.1049
  20
0.2341
  42
0
  0
VERTEX
  8
Net
  10
2.1093
  20
0.2363
  42
0
  0
VERTEX
  8
Net
  10
2.1127
  20
0.2398
  42
0
  0
VERTEX
  8
Net
  10
2.115
  20
0.2442
  42
0
  0
VERTEX
  8
Net
  10
2.1157
  20
0.2491
  42
0
  0
VERTEX
  8
Net
  10
2.115
  20
0.2539
  42
0
  0
VERTEX
  8
Net
  10
2.1127
  20
0.2583
  42
0
  0
VERTEX
  8
Net
  10
2.1093
  20
0.2618
  42
0
  0
VERTEX
  8
Net
  10
2.1049
  20
0.264
  42
0
  0
VERTEX
  8
Net
  10
2.1
  20
0.2648
  42
0
  0
VERTEX
  8
Net
  10
2.0951
  20
0.264
  42
0
  0
VERTEX
  8
Net
  10
2.0907
  20
0.2618
  42
0
  0
VERTEX
  8
Net
  10
2.0873
  20
0.2583
  42
0
  0
VERTEX
  8
Net
  10
2.085
  20
0.2539
  42
0
  0
VERTEX
  8
Net
  10
2.0843
  20
0.2491
  42
0
  0
SEQEND
  0
POLYLINE
  8
Net
  6
CONTINUOUS
  66
1
  70
0
  40
0.002
  41
0.002
  0
VERTEX
  8
Net
  10
2.0833
  20
0.2491
  42
1
  0
VERTEX
  8
Net
  10
2.0852
  20
0.2491
  42
1
  0
VERTEX
  8
Net
  10
2.0833
  20
0.2491
  42
1
  0
SEQEND
  0
POLYLINE
  8
Net
  6
CONTINUOUS
  66
1
  70
0
  40
0.0039
  41
0.0039
  0
VERTEX
  8
Net
  10
2.1
  20
1.2491
  42
0
  0
VERTEX
  8
Net
  10
2.1
  20
0.2491
  42
0
  0
SEQEND
  0
POLYLINE
  8
Net
  6
CONTINUOUS
  66
1
  70
0
  40
0.002
  41
0.002
  0
VERTEX
  8
Net
  10
2.099
  20
1.2491
  42
1
  0
VERTEX
  8
Net
  10
2.101
  20
1.2491
  42
1
  0
VERTEX
  8
Net
  10
2.099
  20
1.2491
  42
1
  0
SEQEND
  0
POLYLINE
  8
Net
  6
CONTINUOUS
  66
1
  70
0
  40
0.002
  41
0.002
  0
VERTEX
  8
Net
  10
2.099
  20
0.2491
  42
1
  0
VERTEX
  8
Net
  10
2.101
  20
0.2491
  42
1
  0
VERTEX
  8
Net
  10
2.099
  20
0.2491
  42
1
  0
SEQEND
  0
POLYLINE
  8
Net
  6
CONTINUOUS
  66
1
  70
0
  40
0.0039
  41
0.0039
  0
VERTEX
  8
Net
  10
0.5843
  20
0.2491
  42
0
  0
VERTEX
  8
Net
  10
0.585
  20
0.2442
  42
0
  0
VERTEX
  8
Net
  10
0.5873
  20
0.2398
  42
0
  0
VERTEX
  8
Net
  10
0.5907
  20
0.2363
  42
0
  0
VERTEX
  8
Net
  10
0.5951
  20
0.2341
  42
0
  0
VERTEX
  8
Net
  10
0.6
  20
0.2333
  42
0
  0
VERTEX
  8
Net
  10
0.6049
  20
0.2341
  42
0
  0
VERTEX
  8
Net
  10
0.6093
  20
0.2363
  42
0
  0
VERTEX
  8
Net
  10
0.6127
  20
0.2398
  42
0
  0
VERTEX
  8
Net
  10
0.615
  20
0.2442
  42
0
  0
VERTEX
  8
Net
  10
0.6157
  20
0.2491
  42
0
  0
VERTEX
  8
Net
  10
0.615
  20
0.2539
  42
0
  0
VERTEX
  8
Net
  10
0.6127
  20
0.2583
  42
0
  0
VERTEX
  8
Net
  10
0.6093
  20
0.2618
  42
0
  0
VERTEX
  8
Net
  10
0.6049
  20
0.264
  42
0
  0
VERTEX
  8
Net
  10
0.6
  20
0.2648
  42
0
  0
VERTEX
  8
Net
  10
0.5951
  20
0.264
  42
0
  0
VERTEX
  8
Net
  10
0.5907
  20
0.2618
  42
0
  0
VERTEX
  8
Net
  10
0.5873
  20
0.2583
  42
0
  0
VERTEX
  8
Net
  10
0.585
  20
0.2539
  42
0
  0
VERTEX
  8
Net
  10
0.5843
  20
0.2491
  42
0
  0
SEQEND
  0
POLYLINE
  8
Net
  6
CONTINUOUS
  66
1
  70
0
  40
0.002
  41
0.002
  0
VERTEX
  8
Net
  10
0.5833
  20
0.2491
  42
1
  0
VERTEX
  8
Net
  10
0.5852
  20
0.2491
  42
1
  0
VERTEX
  8
Net
  10
0.5833
  20
0.2491
  42
1
  0
SEQEND
  0
POLYLINE
  8
Net
  6
CONTINUOUS
  66
1
  70
0
  40
0.0039
  41
0.0039
  0
VERTEX
  8
Net
  10
0.6
  20
1.4491
  42
0
  0
VERTEX
  8
Net
  10
0.6
  20
0.2491
  42
0
  0
SEQEND
  0
POLYLINE
  8
Net
  6
CONTINUOUS
  66
1
  70
0
  40
0.002
  41
0.002
  0
VERTEX
  8
Net
  10
0.599
  20
1.4491
  42
1
  0
VERTEX
  8
Net
  10
0.601
  20
1.4491
  42
1
  0
VERTEX
  8
Net
  10
0.599
  20
1.4491
  42
1
  0
SEQEND
  0
POLYLINE
  8
Net
  6
CONTINUOUS
  66
1
  70
0
  40
0.002
  41
0.002
  0
VERTEX
  8
Net
  10
0.599
  20
0.2491
  42
1
  0
VERTEX
  8
Net
  10
0.601
  20
0.2491
  42
1
  0
VERTEX
  8
Net
  10
0.599
  20
0.2491
  42
1
  0
SEQEND
  0
POLYLINE
  8
Net
  6
CONTINUOUS
  66
1
  70
0
  40
0.0039
  41
0.0039
  0
VERTEX
  8
Net
  10
3.3843
  20
0.2491
  42
0
  0
VERTEX
  8
Net
  10
3.385
  20
0.2442
  42
0
  0
VERTEX
  8
Net
  10
3.3873
  20
0.2398
  42
0
  0
VERTEX
  8
Net
  10
3.3907
  20
0.2363
  42
0
  0
VERTEX
  8
Net
  10
3.3951
  20
0.2341
  42
0
  0
VERTEX
  8
Net
  10
3.4
  20
0.2333
  42
0
  0
VERTEX
  8
Net
  10
3.4049
  20
0.2341
  42
0
  0
VERTEX
  8
Net
  10
3.4093
  20
0.2363
  42
0
  0
VERTEX
  8
Net
  10
3.4127
  20
0.2398
  42
0
  0
VERTEX
  8
Net
  10
3.415
  20
0.2442
  42
0
  0
VERTEX
  8
Net
  10
3.4157
  20
0.2491
  42
0
  0
VERTEX
  8
Net
  10
3.415
  20
0.2539
  42
0
  0
VERTEX
  8
Net
  10
3.4127
  20
0.2583
  42
0
  0
VERTEX
  8
Net
  10
3.4093
  20
0.2618
  42
0
  0
VERTEX
  8
Net
  10
3.4049
  20
0.264
  42
0
  0
VERTEX
  8
Net
  10
3.4
  20
0.2648
  42
0
  0
VERTEX
  8
Net
  10
3.3951
  20
0.264
  42
0
  0
VERTEX
  8
Net
  10
3.3907
  20
0.2618
  42
0
  0
VERTEX
  8
Net
  10
3.3873
  20
0.2583
  42
0
  0
VERTEX
  8
Net
  10
3.385
  20
0.2539
  42
0
  0
VERTEX
  8
Net
  10
3.3843
  20
0.2491
  42
0
  0
SEQEND
  0
POLYLINE
  8
Net
  6
CONTINUOUS
  66
1
  70
0
  40
0.002
  41
0.002
  0
VERTEX
  8
Net
  10
3.3833
  20
0.2491
  42
1
  0
VERTEX
  8
Net
  10
3.3852
  20
0.2491
  42
1
  0
VERTEX
  8
Net
  10
3.3833
  20
0.2491
  42
1
  0
SEQEND
  0
POLYLINE
  8
Net
  6
CONTINUOUS
  66
1
  70
0
  40
0.0039
  41
0.0039
  0
VERTEX
  8
Net
  10
3.4
  20
0.6491
  42
0
  0
VERTEX
  8
Net
  10
3.4
  20
0.2491
  42
0
  0
SEQEND
  0
POLYLINE
  8
Net
  6
CONTINUOUS
  66
1
  70
0
  40
0.002
  41
0.002
  0
VERTEX
  8
Net
  10
3.399
  20
0.6491
  42
1
  0
VERTEX
  8
Net
  10
3.401
  20
0.6491
  42
1
  0
VERTEX
  8
Net
  10
3.399
  20
0.6491
  42
1
  0
SEQEND
  0
POLYLINE
  8
Net
  6
CONTINUOUS
  66
1
  70
0
  40
0.002
  41
0.002
  0
VERTEX
  8
Net
  10
3.399
  20
0.2491
  42
1
  0
VERTEX
  8
Net
  10
3.401
  20
0.2491
  42
1
  0
VERTEX
  8
Net
  10
3.399
  20
0.2491
  42
1
  0
SEQEND
  0
POLYLINE
  8
Net
  6
CONTINUOUS
  66
1
  70
0
  40
0.0039
  41
0.0039
  0
VERTEX
  8
Net
  10
2.8
  20
1.1491
  42
0
  0
VERTEX
  8
Net
  10
2.8
  20
0.9491
  42
0
  0
SEQEND
  0
POLYLINE
  8
Net
  6
CONTINUOUS
  66
1
  70
0
  40
0.002
  41
0.002
  0
VERTEX
  8
Net
  10
2.799
  20
1.1491
  42
1
  0
VERTEX
  8
Net
  10
2.801
  20
1.1491
  42
1
  0
VERTEX
  8
Net
  10
2.799
  20
1.1491
  42
1
  0
SEQEND
  0
POLYLINE
  8
Net
  6
CONTINUOUS
  66
1
  70
0
  40
0.002
  41
0.002
  0
VERTEX
  8
Net
  10
2.799
  20
0.9491
  42
1
  0
VERTEX
  8
Net
  10
2.801
  20
0.9491
  42
1
  0
VERTEX
  8
Net
  10
2.799
  20
0.9491
  42
1
  0
SEQEND
  0
POLYLINE
  8
Net
  6
CONTINUOUS
  66
1
  70
0
  40
0.0039
  41
0.0039
  0
VERTEX
  8
Net
  10
4.35
  20
1.6491
  42
0
  0
VERTEX
  8
Net
  10
4.45
  20
1.6491
  42
0
  0
SEQEND
  0
POLYLINE
  8
Net
  6
CONTINUOUS
  66
1
  70
0
  40
0.002
  41
0.002
  0
VERTEX
  8
Net
  10
4.349
  20
1.6491
  42
1
  0
VERTEX
  8
Net
  10
4.351
  20
1.6491
  42
1
  0
VERTEX
  8
Net
  10
4.349
  20
1.6491
  42
1
  0
SEQEND
  0
POLYLINE
  8
Net
  6
CONTINUOUS
  66
1
  70
0
  40
0.002
  41
0.002
  0
VERTEX
  8
Net
  10
4.449
  20
1.6491
  42
1
  0
VERTEX
  8
Net
  10
4.451
  20
1.6491
  42
1
  0
VERTEX
  8
Net
  10
4.449
  20
1.6491
  42
1
  0
SEQEND
  0
POLYLINE
  8
Net
  6
CONTINUOUS
  66
1
  70
0
  40
0.0039
  41
0.0039
  0
VERTEX
  8
Net
  10
4.45
  20
1.6491
  42
0
  0
VERTEX
  8
Net
  10
4.45
  20
1.2991
  42
0
  0
SEQEND
  0
POLYLINE
  8
Net
  6
CONTINUOUS
  66
1
  70
0
  40
0.002
  41
0.002
  0
VERTEX
  8
Net
  10
4.449
  20
1.6491
  42
1
  0
VERTEX
  8
Net
  10
4.451
  20
1.6491
  42
1
  0
VERTEX
  8
Net
  10
4.449
  20
1.6491
  42
1
  0
SEQEND
  0
POLYLINE
  8
Net
  6
CONTINUOUS
  66
1
  70
0
  40
0.002
  41
0.002
  0
VERTEX
  8
Net
  10
4.449
  20
1.2991
  42
1
  0
VERTEX
  8
Net
  10
4.451
  20
1.2991
  42
1
  0
VERTEX
  8
Net
  10
4.449
  20
1.2991
  42
1
  0
SEQEND
  0
POLYLINE
  8
Net
  6
CONTINUOUS
  66
1
  70
0
  40
0.0039
  41
0.0039
  0
VERTEX
  8
Net
  10
4.45
  20
1.2991
  42
0
  0
VERTEX
  8
Net
  10
3.4
  20
1.2991
  42
0
  0
SEQEND
  0
POLYLINE
  8
Net
  6
CONTINUOUS
  66
1
  70
0
  40
0.002
  41
0.002
  0
VERTEX
  8
Net
  10
4.449
  20
1.2991
  42
1
  0
VERTEX
  8
Net
  10
4.451
  20
1.2991
  42
1
  0
VERTEX
  8
Net
  10
4.449
  20
1.2991
  42
1
  0
SEQEND
  0
POLYLINE
  8
Net
  6
CONTINUOUS
  66
1
  70
0
  40
0.002
  41
0.002
  0
VERTEX
  8
Net
  10
3.399
  20
1.2991
  42
1
  0
VERTEX
  8
Net
  10
3.401
  20
1.2991
  42
1
  0
VERTEX
  8
Net
  10
3.399
  20
1.2991
  42
1
  0
SEQEND
  0
POLYLINE
  8
Net
  6
CONTINUOUS
  66
1
  70
0
  40
0.0039
  41
0.0039
  0
VERTEX
  8
Net
  10
3.4
  20
1.2991
  42
0
  0
VERTEX
  8
Net
  10
3.4
  20
1.0491
  42
0
  0
SEQEND
  0
POLYLINE
  8
Net
  6
CONTINUOUS
  66
1
  70
0
  40
0.002
  41
0.002
  0
VERTEX
  8
Net
  10
3.399
  20
1.2991
  42
1
  0
VERTEX
  8
Net
  10
3.401
  20
1.2991
  42
1
  0
VERTEX
  8
Net
  10
3.399
  20
1.2991
  42
1
  0
SEQEND
  0
POLYLINE
  8
Net
  6
CONTINUOUS
  66
1
  70
0
  40
0.002
  41
0.002
  0
VERTEX
  8
Net
  10
3.399
  20
1.0491
  42
1
  0
VERTEX
  8
Net
  10
3.401
  20
1.0491
  42
1
  0
VERTEX
  8
Net
  10
3.399
  20
1.0491
  42
1
  0
SEQEND
  0
POLYLINE
  8
Net
  6
CONTINUOUS
  66
1
  70
0
  40
0.0039
  41
0.0039
  0
VERTEX
  8
Net
  10
2.7
  20
1.8491
  42
0
  0
VERTEX
  8
Net
  10
3.1
  20
1.8491
  42
0
  0
SEQEND
  0
POLYLINE
  8
Net
  6
CONTINUOUS
  66
1
  70
0
  40
0.002
  41
0.002
  0
VERTEX
  8
Net
  10
2.699
  20
1.8491
  42
1
  0
VERTEX
  8
Net
  10
2.701
  20
1.8491
  42
1
  0
VERTEX
  8
Net
  10
2.699
  20
1.8491
  42
1
  0
SEQEND
  0
POLYLINE
  8
Net
  6
CONTINUOUS
  66
1
  70
0
  40
0.002
  41
0.002
  0
VERTEX
  8
Net
  10
3.099
  20
1.8491
  42
1
  0
VERTEX
  8
Net
  10
3.101
  20
1.8491
  42
1
  0
VERTEX
  8
Net
  10
3.099
  20
1.8491
  42
1
  0
SEQEND
  0
TEXT
  8
Pin
  10
3.3508
  20
0.9253
  40
0.0292
  41
0.7
  1
1
  50
90.0
  72
0
  73
3
  7
STANDARD
  71
0
  11
3.3508
  21
0.9253
  0
POLYLINE
  8
Pin
  6
CONTINUOUS
  66
1
  70
0
  40
0.0039
  41
0.0039
  0
VERTEX
  8
Pin
  10
3.4
  20
0.8991
  42
0
  0
VERTEX
  8
Pin
  10
3.4
  20
1.0491
  42
0
  0
SEQEND
  0
POLYLINE
  8
Pin
  6
CONTINUOUS
  66
1
  70
0
  40
0.002
  41
0.002
  0
VERTEX
  8
Pin
  10
3.399
  20
0.8991
  42
1
  0
VERTEX
  8
Pin
  10
3.401
  20
0.8991
  42
1
  0
VERTEX
  8
Pin
  10
3.399
  20
0.8991
  42
1
  0
SEQEND
  0
POLYLINE
  8
Pin
  6
CONTINUOUS
  66
1
  70
0
  40
0.002
  41
0.002
  0
VERTEX
  8
Pin
  10
3.399
  20
1.0491
  42
1
  0
VERTEX
  8
Pin
  10
3.401
  20
1.0491
  42
1
  0
VERTEX
  8
Pin
  10
3.399
  20
1.0491
  42
1
  0
SEQEND
  0
TEXT
  8
Pin
  10
3.3508
  20
0.7564
  40
0.0292
  41
0.7
  1
2
  50
90.0
  72
0
  73
3
  7
STANDARD
  71
0
  11
3.3508
  21
0.7564
  0
POLYLINE
  8
Pin
  6
CONTINUOUS
  66
1
  70
0
  40
0.0039
  41
0.0039
  0
VERTEX
  8
Pin
  10
3.4
  20
0.7991
  42
0
  0
VERTEX
  8
Pin
  10
3.4
  20
0.6491
  42
0
  0
SEQEND
  0
POLYLINE
  8
Pin
  6
CONTINUOUS
  66
1
  70
0
  40
0.002
  41
0.002
  0
VERTEX
  8
Pin
  10
3.399
  20
0.7991
  42
1
  0
VERTEX
  8
Pin
  10
3.401
  20
0.7991
  42
1
  0
VERTEX
  8
Pin
  10
3.399
  20
0.7991
  42
1
  0
SEQEND
  0
POLYLINE
  8
Pin
  6
CONTINUOUS
  66
1
  70
0
  40
0.002
  41
0.002
  0
VERTEX
  8
Pin
  10
3.399
  20
0.6491
  42
1
  0
VERTEX
  8
Pin
  10
3.401
  20
0.6491
  42
1
  0
VERTEX
  8
Pin
  10
3.399
  20
0.6491
  42
1
  0
SEQEND
  0
TEXT
  8
Pin
  10
2.7508
  20
0.8253
  40
0.0292
  41
0.7
  1
2
  50
90.0
  72
0
  73
3
  7
STANDARD
  71
0
  11
2.7508
  21
0.8253
  0
POLYLINE
  8
Pin
  6
CONTINUOUS
  66
1
  70
0
  40
0.0039
  41
0.0039
  0
VERTEX
  8
Pin
  10
2.8
  20
0.7991
  42
0
  0
VERTEX
  8
Pin
  10
2.8
  20
0.9491
  42
0
  0
SEQEND
  0
POLYLINE
  8
Pin
  6
CONTINUOUS
  66
1
  70
0
  40
0.002
  41
0.002
  0
VERTEX
  8
Pin
  10
2.799
  20
0.7991
  42
1
  0
VERTEX
  8
Pin
  10
2.801
  20
0.7991
  42
1
  0
VERTEX
  8
Pin
  10
2.799
  20
0.7991
  42
1
  0
SEQEND
  0
POLYLINE
  8
Pin
  6
CONTINUOUS
  66
1
  70
0
  40
0.002
  41
0.002
  0
VERTEX
  8
Pin
  10
2.799
  20
0.9491
  42
1
  0
VERTEX
  8
Pin
  10
2.801
  20
0.9491
  42
1
  0
VERTEX
  8
Pin
  10
2.799
  20
0.9491
  42
1
  0
SEQEND
  0
TEXT
  8
Pin
  10
2.7508
  20
0.5564
  40
0.0292
  41
0.7
  1
1
  50
90.0
  72
0
  73
3
  7
STANDARD
  71
0
  11
2.7508
  21
0.5564
  0
POLYLINE
  8
Pin
  6
CONTINUOUS
  66
1
  70
0
  40
0.0039
  41
0.0039
  0
VERTEX
  8
Pin
  10
2.8
  20
0.5991
  42
0
  0
VERTEX
  8
Pin
  10
2.8
  20
0.4491
  42
0
  0
SEQEND
  0
POLYLINE
  8
Pin
  6
CONTINUOUS
  66
1
  70
0
  40
0.002
  41
0.002
  0
VERTEX
  8
Pin
  10
2.799
  20
0.5991
  42
1
  0
VERTEX
  8
Pin
  10
2.801
  20
0.5991
  42
1
  0
VERTEX
  8
Pin
  10
2.799
  20
0.5991
  42
1
  0
SEQEND
  0
POLYLINE
  8
Pin
  6
CONTINUOUS
  66
1
  70
0
  40
0.002
  41
0.002
  0
VERTEX
  8
Pin
  10
2.799
  20
0.4491
  42
1
  0
VERTEX
  8
Pin
  10
2.801
  20
0.4491
  42
1
  0
VERTEX
  8
Pin
  10
2.799
  20
0.4491
  42
1
  0
SEQEND
  0
TEXT
  8
Pin
  10
3.2894
  20
1.9709
  40
0.0365
  41
0.7
  1
GND
  50
0.0
  72
0
  73
3
  7
STANDARD
  71
0
  11
3.2894
  21
1.9709
  0
TEXT
  8
Pin
  10
3.2024
  20
1.9983
  40
0.0292
  41
0.7
  1
1
  50
0.0
  72
0
  73
3
  7
STANDARD
  71
0
  11
3.2024
  21
1.9983
  0
POLYLINE
  8
Pin
  6
CONTINUOUS
  66
1
  70
0
  40
0.0039
  41
0.0039
  0
VERTEX
  8
Pin
  10
3.25
  20
1.9491
  42
0
  0
VERTEX
  8
Pin
  10
3.1
  20
1.9491
  42
0
  0
SEQEND
  0
POLYLINE
  8
Pin
  6
CONTINUOUS
  66
1
  70
0
  40
0.002
  41
0.002
  0
VERTEX
  8
Pin
  10
3.249
  20
1.9491
  42
1
  0
VERTEX
  8
Pin
  10
3.251
  20
1.9491
  42
1
  0
VERTEX
  8
Pin
  10
3.249
  20
1.9491
  42
1
  0
SEQEND
  0
POLYLINE
  8
Pin
  6
CONTINUOUS
  66
1
  70
0
  40
0.002
  41
0.002
  0
VERTEX
  8
Pin
  10
3.099
  20
1.9491
  42
1
  0
VERTEX
  8
Pin
  10
3.101
  20
1.9491
  42
1
  0
VERTEX
  8
Pin
  10
3.099
  20
1.9491
  42
1
  0
SEQEND
  0
TEXT
  8
Pin
  10
3.2894
  20
1.8709
  40
0.0365
  41
0.7
  1
Trigger
  50
0.0
  72
0
  73
3
  7
STANDARD
  71
0
  11
3.2894
  21
1.8709
  0
TEXT
  8
Pin
  10
3.2024
  20
1.8983
  40
0.0292
  41
0.7
  1
2
  50
0.0
  72
0
  73
3
  7
STANDARD
  71
0
  11
3.2024
  21
1.8983
  0
POLYLINE
  8
Pin
  6
CONTINUOUS
  66
1
  70
0
  40
0.0039
  41
0.0039
  0
VERTEX
  8
Pin
  10
3.25
  20
1.8491
  42
0
  0
VERTEX
  8
Pin
  10
3.1
  20
1.8491
  42
0
  0
SEQEND
  0
POLYLINE
  8
Pin
  6
CONTINUOUS
  66
1
  70
0
  40
0.002
  41
0.002
  0
VERTEX
  8
Pin
  10
3.249
  20
1.8491
  42
1
  0
VERTEX
  8
Pin
  10
3.251
  20
1.8491
  42
1
  0
VERTEX
  8
Pin
  10
3.249
  20
1.8491
  42
1
  0
SEQEND
  0
POLYLINE
  8
Pin
  6
CONTINUOUS
  66
1
  70
0
  40
0.002
  41
0.002
  0
VERTEX
  8
Pin
  10
3.099
  20
1.8491
  42
1
  0
VERTEX
  8
Pin
  10
3.101
  20
1.8491
  42
1
  0
VERTEX
  8
Pin
  10
3.099
  20
1.8491
  42
1
  0
SEQEND
  0
TEXT
  8
Pin
  10
3.2894
  20
1.7709
  40
0.0365
  41
0.7
  1
output
  50
0.0
  72
0
  73
3
  7
STANDARD
  71
0
  11
3.2894
  21
1.7709
  0
TEXT
  8
Pin
  10
3.2024
  20
1.7983
  40
0.0292
  41
0.7
  1
3
  50
0.0
  72
0
  73
3
  7
STANDARD
  71
0
  11
3.2024
  21
1.7983
  0
POLYLINE
  8
Pin
  6
CONTINUOUS
  66
1
  70
0
  40
0.0039
  41
0.0039
  0
VERTEX
  8
Pin
  10
3.25
  20
1.7491
  42
0
  0
VERTEX
  8
Pin
  10
3.1
  20
1.7491
  42
0
  0
SEQEND
  0
POLYLINE
  8
Pin
  6
CONTINUOUS
  66
1
  70
0
  40
0.002
  41
0.002
  0
VERTEX
  8
Pin
  10
3.249
  20
1.7491
  42
1
  0
VERTEX
  8
Pin
  10
3.251
  20
1.7491
  42
1
  0
VERTEX
  8
Pin
  10
3.249
  20
1.7491
  42
1
  0
SEQEND
  0
POLYLINE
  8
Pin
  6
CONTINUOUS
  66
1
  70
0
  40
0.002
  41
0.002
  0
VERTEX
  8
Pin
  10
3.099
  20
1.7491
  42
1
  0
VERTEX
  8
Pin
  10
3.101
  20
1.7491
  42
1
  0
VERTEX
  8
Pin
  10
3.099
  20
1.7491
  42
1
  0
SEQEND
  0
TEXT
  8
Pin
  10
3.2894
  20
1.6709
  40
0.0365
  41
0.7
  1
Reset
  50
0.0
  72
0
  73
3
  7
STANDARD
  71
0
  11
3.2894
  21
1.6709
  0
TEXT
  8
Pin
  10
3.2024
  20
1.6983
  40
0.0292
  41
0.7
  1
4
  50
0.0
  72
0
  73
3
  7
STANDARD
  71
0
  11
3.2024
  21
1.6983
  0
POLYLINE
  8
Pin
  6
CONTINUOUS
  66
1
  70
0
  40
0.0039
  41
0.0039
  0
VERTEX
  8
Pin
  10
3.25
  20
1.6491
  42
0
  0
VERTEX
  8
Pin
  10
3.1
  20
1.6491
  42
0
  0
SEQEND
  0
POLYLINE
  8
Pin
  6
CONTINUOUS
  66
1
  70
0
  40
0.002
  41
0.002
  0
VERTEX
  8
Pin
  10
3.249
  20
1.6491
  42
1
  0
VERTEX
  8
Pin
  10
3.251
  20
1.6491
  42
1
  0
VERTEX
  8
Pin
  10
3.249
  20
1.6491
  42
1
  0
SEQEND
  0
POLYLINE
  8
Pin
  6
CONTINUOUS
  66
1
  70
0
  40
0.002
  41
0.002
  0
VERTEX
  8
Pin
  10
3.099
  20
1.6491
  42
1
  0
VERTEX
  8
Pin
  10
3.101
  20
1.6491
  42
1
  0
VERTEX
  8
Pin
  10
3.099
  20
1.6491
  42
1
  0
SEQEND
  0
TEXT
  8
Pin
  10
3.9157
  20
1.6709
  40
0.0365
  41
0.7
  1
Control Voltage
  50
0.0
  72
0
  73
3
  7
STANDARD
  71
0
  11
3.9157
  21
1.6709
  0
TEXT
  8
Pin
  10
4.2262
  20
1.6983
  40
0.0292
  41
0.7
  1
5
  50
0.0
  72
0
  73
3
  7
STANDARD
  71
0
  11
4.2262
  21
1.6983
  0
POLYLINE
  8
Pin
  6
CONTINUOUS
  66
1
  70
0
  40
0.0039
  41
0.0039
  0
VERTEX
  8
Pin
  10
4.2
  20
1.6491
  42
0
  0
VERTEX
  8
Pin
  10
4.35
  20
1.6491
  42
0
  0
SEQEND
  0
POLYLINE
  8
Pin
  6
CONTINUOUS
  66
1
  70
0
  40
0.002
  41
0.002
  0
VERTEX
  8
Pin
  10
4.199
  20
1.6491
  42
1
  0
VERTEX
  8
Pin
  10
4.201
  20
1.6491
  42
1
  0
VERTEX
  8
Pin
  10
4.199
  20
1.6491
  42
1
  0
SEQEND
  0
POLYLINE
  8
Pin
  6
CONTINUOUS
  66
1
  70
0
  40
0.002
  41
0.002
  0
VERTEX
  8
Pin
  10
4.349
  20
1.6491
  42
1
  0
VERTEX
  8
Pin
  10
4.351
  20
1.6491
  42
1
  0
VERTEX
  8
Pin
  10
4.349
  20
1.6491
  42
1
  0
SEQEND
  0
TEXT
  8
Pin
  10
4.0053
  20
1.7709
  40
0.0365
  41
0.7
  1
Discharge
  50
0.0
  72
0
  73
3
  7
STANDARD
  71
0
  11
4.0053
  21
1.7709
  0
TEXT
  8
Pin
  10
4.2262
  20
1.7983
  40
0.0292
  41
0.7
  1
6
  50
0.0
  72
0
  73
3
  7
STANDARD
  71
0
  11
4.2262
  21
1.7983
  0
POLYLINE
  8
Pin
  6
CONTINUOUS
  66
1
  70
0
  40
0.0039
  41
0.0039
  0
VERTEX
  8
Pin
  10
4.2
  20
1.7491
  42
0
  0
VERTEX
  8
Pin
  10
4.35
  20
1.7491
  42
0
  0
SEQEND
  0
POLYLINE
  8
Pin
  6
CONTINUOUS
  66
1
  70
0
  40
0.002
  41
0.002
  0
VERTEX
  8
Pin
  10
4.199
  20
1.7491
  42
1
  0
VERTEX
  8
Pin
  10
4.201
  20
1.7491
  42
1
  0
VERTEX
  8
Pin
  10
4.199
  20
1.7491
  42
1
  0
SEQEND
  0
POLYLINE
  8
Pin
  6
CONTINUOUS
  66
1
  70
0
  40
0.002
  41
0.002
  0
VERTEX
  8
Pin
  10
4.349
  20
1.7491
  42
1
  0
VERTEX
  8
Pin
  10
4.351
  20
1.7491
  42
1
  0
VERTEX
  8
Pin
  10
4.349
  20
1.7491
  42
1
  0
SEQEND
  0
TEXT
  8
Pin
  10
4.0042
  20
1.8709
  40
0.0365
  41
0.7
  1
Threshold
  50
0.0
  72
0
  73
3
  7
STANDARD
  71
0
  11
4.0042
  21
1.8709
  0
TEXT
  8
Pin
  10
4.2262
  20
1.8983
  40
0.0292
  41
0.7
  1
7
  50
0.0
  72
0
  73
3
  7
STANDARD
  71
0
  11
4.2262
  21
1.8983
  0
POLYLINE
  8
Pin
  6
CONTINUOUS
  66
1
  70
0
  40
0.0039
  41
0.0039
  0
VERTEX
  8
Pin
  10
4.2
  20
1.8491
  42
0
  0
VERTEX
  8
Pin
  10
4.35
  20
1.8491
  42
0
  0
SEQEND
  0
POLYLINE
  8
Pin
  6
CONTINUOUS
  66
1
  70
0
  40
0.002
  41
0.002
  0
VERTEX
  8
Pin
  10
4.199
  20
1.8491
  42
1
  0
VERTEX
  8
Pin
  10
4.201
  20
1.8491
  42
1
  0
VERTEX
  8
Pin
  10
4.199
  20
1.8491
  42
1
  0
SEQEND
  0
POLYLINE
  8
Pin
  6
CONTINUOUS
  66
1
  70
0
  40
0.002
  41
0.002
  0
VERTEX
  8
Pin
  10
4.349
  20
1.8491
  42
1
  0
VERTEX
  8
Pin
  10
4.351
  20
1.8491
  42
1
  0
VERTEX
  8
Pin
  10
4.349
  20
1.8491
  42
1
  0
SEQEND
  0
TEXT
  8
Pin
  10
4.1059
  20
1.9709
  40
0.0365
  41
0.7
  1
Vcc
  50
0.0
  72
0
  73
3
  7
STANDARD
  71
0
  11
4.1059
  21
1.9709
  0
TEXT
  8
Pin
  10
4.2262
  20
1.9983
  40
0.0292
  41
0.7
  1
8
  50
0.0
  72
0
  73
3
  7
STANDARD
  71
0
  11
4.2262
  21
1.9983
  0
POLYLINE
  8
Pin
  6
CONTINUOUS
  66
1
  70
0
  40
0.0039
  41
0.0039
  0
VERTEX
  8
Pin
  10
4.2
  20
1.9491
  42
0
  0
VERTEX
  8
Pin
  10
4.35
  20
1.9491
  42
0
  0
SEQEND
  0
POLYLINE
  8
Pin
  6
CONTINUOUS
  66
1
  70
0
  40
0.002
  41
0.002
  0
VERTEX
  8
Pin
  10
4.199
  20
1.9491
  42
1
  0
VERTEX
  8
Pin
  10
4.201
  20
1.9491
  42
1
  0
VERTEX
  8
Pin
  10
4.199
  20
1.9491
  42
1
  0
SEQEND
  0
POLYLINE
  8
Pin
  6
CONTINUOUS
  66
1
  70
0
  40
0.002
  41
0.002
  0
VERTEX
  8
Pin
  10
4.349
  20
1.9491
  42
1
  0
VERTEX
  8
Pin
  10
4.351
  20
1.9491
  42
1
  0
VERTEX
  8
Pin
  10
4.349
  20
1.9491
  42
1
  0
SEQEND
  0
TEXT
  8
Pin
  10
1.0762
  20
1.6983
  40
0.0292
  41
0.7
  1
1
  50
0.0
  72
0
  73
3
  7
STANDARD
  71
0
  11
1.0762
  21
1.6983
  0
POLYLINE
  8
Pin
  6
CONTINUOUS
  66
1
  70
0
  40
0.0039
  41
0.0039
  0
VERTEX
  8
Pin
  10
1.05
  20
1.6491
  42
0
  0
VERTEX
  8
Pin
  10
1.2
  20
1.6491
  42
0
  0
SEQEND
  0
POLYLINE
  8
Pin
  6
CONTINUOUS
  66
1
  70
0
  40
0.002
  41
0.002
  0
VERTEX
  8
Pin
  10
1.049
  20
1.6491
  42
1
  0
VERTEX
  8
Pin
  10
1.051
  20
1.6491
  42
1
  0
VERTEX
  8
Pin
  10
1.049
  20
1.6491
  42
1
  0
SEQEND
  0
POLYLINE
  8
Pin
  6
CONTINUOUS
  66
1
  70
0
  40
0.002
  41
0.002
  0
VERTEX
  8
Pin
  10
1.199
  20
1.6491
  42
1
  0
VERTEX
  8
Pin
  10
1.201
  20
1.6491
  42
1
  0
VERTEX
  8
Pin
  10
1.199
  20
1.6491
  42
1
  0
SEQEND
  0
TEXT
  8
Pin
  10
1.0762
  20
1.7983
  40
0.0292
  41
0.7
  1
2
  50
0.0
  72
0
  73
3
  7
STANDARD
  71
0
  11
1.0762
  21
1.7983
  0
POLYLINE
  8
Pin
  6
CONTINUOUS
  66
1
  70
0
  40
0.0039
  41
0.0039
  0
VERTEX
  8
Pin
  10
1.05
  20
1.7491
  42
0
  0
VERTEX
  8
Pin
  10
1.2
  20
1.7491
  42
0
  0
SEQEND
  0
POLYLINE
  8
Pin
  6
CONTINUOUS
  66
1
  70
0
  40
0.002
  41
0.002
  0
VERTEX
  8
Pin
  10
1.049
  20
1.7491
  42
1
  0
VERTEX
  8
Pin
  10
1.051
  20
1.7491
  42
1
  0
VERTEX
  8
Pin
  10
1.049
  20
1.7491
  42
1
  0
SEQEND
  0
POLYLINE
  8
Pin
  6
CONTINUOUS
  66
1
  70
0
  40
0.002
  41
0.002
  0
VERTEX
  8
Pin
  10
1.199
  20
1.7491
  42
1
  0
VERTEX
  8
Pin
  10
1.201
  20
1.7491
  42
1
  0
VERTEX
  8
Pin
  10
1.199
  20
1.7491
  42
1
  0
SEQEND
  0
POLYLINE
  8
Pin
  6
CONTINUOUS
  66
1
  70
0
  40
0.0039
  41
0.0039
  0
VERTEX
  8
Pin
  10
0.1
  20
3.1991
  42
0
  0
VERTEX
  8
Pin
  10
0.1
  20
3.0491
  42
0
  0
SEQEND
  0
POLYLINE
  8
Pin
  6
CONTINUOUS
  66
1
  70
0
  40
0.002
  41
0.002
  0
VERTEX
  8
Pin
  10
0.099
  20
3.1991
  42
1
  0
VERTEX
  8
Pin
  10
0.101
  20
3.1991
  42
1
  0
VERTEX
  8
Pin
  10
0.099
  20
3.1991
  42
1
  0
SEQEND
  0
POLYLINE
  8
Pin
  6
CONTINUOUS
  66
1
  70
0
  40
0.002
  41
0.002
  0
VERTEX
  8
Pin
  10
0.099
  20
3.0491
  42
1
  0
VERTEX
  8
Pin
  10
0.101
  20
3.0491
  42
1
  0
VERTEX
  8
Pin
  10
0.099
  20
3.0491
  42
1
  0
SEQEND
  0
POLYLINE
  8
Pin
  6
CONTINUOUS
  66
1
  70
0
  40
0.0039
  41
0.0039
  0
VERTEX
  8
Pin
  10
0.1
  20
0.0991
  42
0
  0
VERTEX
  8
Pin
  10
0.1
  20
0.2491
  42
0
  0
SEQEND
  0
POLYLINE
  8
Pin
  6
CONTINUOUS
  66
1
  70
0
  40
0.002
  41
0.002
  0
VERTEX
  8
Pin
  10
0.099
  20
0.0991
  42
1
  0
VERTEX
  8
Pin
  10
0.101
  20
0.0991
  42
1
  0
VERTEX
  8
Pin
  10
0.099
  20
0.0991
  42
1
  0
SEQEND
  0
POLYLINE
  8
Pin
  6
CONTINUOUS
  66
1
  70
0
  40
0.002
  41
0.002
  0
VERTEX
  8
Pin
  10
0.099
  20
0.2491
  42
1
  0
VERTEX
  8
Pin
  10
0.101
  20
0.2491
  42
1
  0
VERTEX
  8
Pin
  10
0.099
  20
0.2491
  42
1
  0
SEQEND
  0
TEXT
  8
Pin
  10
1.3024
  20
1.2983
  40
0.0292
  41
0.7
  1
2
  50
0.0
  72
0
  73
3
  7
STANDARD
  71
0
  11
1.3024
  21
1.2983
  0
POLYLINE
  8
Pin
  6
CONTINUOUS
  66
1
  70
0
  40
0.0039
  41
0.0039
  0
VERTEX
  8
Pin
  10
1.35
  20
1.2491
  42
0
  0
VERTEX
  8
Pin
  10
1.2
  20
1.2491
  42
0
  0
SEQEND
  0
POLYLINE
  8
Pin
  6
CONTINUOUS
  66
1
  70
0
  40
0.002
  41
0.002
  0
VERTEX
  8
Pin
  10
1.349
  20
1.2491
  42
1
  0
VERTEX
  8
Pin
  10
1.351
  20
1.2491
  42
1
  0
VERTEX
  8
Pin
  10
1.349
  20
1.2491
  42
1
  0
SEQEND
  0
POLYLINE
  8
Pin
  6
CONTINUOUS
  66
1
  70
0
  40
0.002
  41
0.002
  0
VERTEX
  8
Pin
  10
1.199
  20
1.2491
  42
1
  0
VERTEX
  8
Pin
  10
1.201
  20
1.2491
  42
1
  0
VERTEX
  8
Pin
  10
1.199
  20
1.2491
  42
1
  0
SEQEND
  0
TEXT
  8
Pin
  10
1.5508
  20
1.0564
  40
0.0292
  41
0.7
  1
1
  50
90.0
  72
0
  73
3
  7
STANDARD
  71
0
  11
1.5508
  21
1.0564
  0
POLYLINE
  8
Pin
  6
CONTINUOUS
  66
1
  70
0
  40
0.0039
  41
0.0039
  0
VERTEX
  8
Pin
  10
1.6
  20
1.0991
  42
0
  0
VERTEX
  8
Pin
  10
1.6
  20
0.9491
  42
0
  0
SEQEND
  0
POLYLINE
  8
Pin
  6
CONTINUOUS
  66
1
  70
0
  40
0.002
  41
0.002
  0
VERTEX
  8
Pin
  10
1.599
  20
1.0991
  42
1
  0
VERTEX
  8
Pin
  10
1.601
  20
1.0991
  42
1
  0
VERTEX
  8
Pin
  10
1.599
  20
1.0991
  42
1
  0
SEQEND
  0
POLYLINE
  8
Pin
  6
CONTINUOUS
  66
1
  70
0
  40
0.002
  41
0.002
  0
VERTEX
  8
Pin
  10
1.599
  20
0.9491
  42
1
  0
VERTEX
  8
Pin
  10
1.601
  20
0.9491
  42
1
  0
VERTEX
  8
Pin
  10
1.599
  20
0.9491
  42
1
  0
SEQEND
  0
TEXT
  8
Pin
  10
1.5508
  20
1.4253
  40
0.0292
  41
0.7
  1
3
  50
90.0
  72
0
  73
3
  7
STANDARD
  71
0
  11
1.5508
  21
1.4253
  0
POLYLINE
  8
Pin
  6
CONTINUOUS
  66
1
  70
0
  40
0.0039
  41
0.0039
  0
VERTEX
  8
Pin
  10
1.6
  20
1.3991
  42
0
  0
VERTEX
  8
Pin
  10
1.6
  20
1.5491
  42
0
  0
SEQEND
  0
POLYLINE
  8
Pin
  6
CONTINUOUS
  66
1
  70
0
  40
0.002
  41
0.002
  0
VERTEX
  8
Pin
  10
1.599
  20
1.3991
  42
1
  0
VERTEX
  8
Pin
  10
1.601
  20
1.3991
  42
1
  0
VERTEX
  8
Pin
  10
1.599
  20
1.3991
  42
1
  0
SEQEND
  0
POLYLINE
  8
Pin
  6
CONTINUOUS
  66
1
  70
0
  40
0.002
  41
0.002
  0
VERTEX
  8
Pin
  10
1.599
  20
1.5491
  42
1
  0
VERTEX
  8
Pin
  10
1.601
  20
1.5491
  42
1
  0
VERTEX
  8
Pin
  10
1.599
  20
1.5491
  42
1
  0
SEQEND
  0
TEXT
  8
Pin
  10
1.8024
  20
1.5983
  40
0.0292
  41
0.7
  1
2
  50
0.0
  72
0
  73
3
  7
STANDARD
  71
0
  11
1.8024
  21
1.5983
  0
POLYLINE
  8
Pin
  6
CONTINUOUS
  66
1
  70
0
  40
0.0039
  41
0.0039
  0
VERTEX
  8
Pin
  10
1.85
  20
1.5491
  42
0
  0
VERTEX
  8
Pin
  10
1.7
  20
1.5491
  42
0
  0
SEQEND
  0
POLYLINE
  8
Pin
  6
CONTINUOUS
  66
1
  70
0
  40
0.002
  41
0.002
  0
VERTEX
  8
Pin
  10
1.849
  20
1.5491
  42
1
  0
VERTEX
  8
Pin
  10
1.851
  20
1.5491
  42
1
  0
VERTEX
  8
Pin
  10
1.849
  20
1.5491
  42
1
  0
SEQEND
  0
POLYLINE
  8
Pin
  6
CONTINUOUS
  66
1
  70
0
  40
0.002
  41
0.002
  0
VERTEX
  8
Pin
  10
1.699
  20
1.5491
  42
1
  0
VERTEX
  8
Pin
  10
1.701
  20
1.5491
  42
1
  0
VERTEX
  8
Pin
  10
1.699
  20
1.5491
  42
1
  0
SEQEND
  0
TEXT
  8
Pin
  10
2.0508
  20
1.3564
  40
0.0292
  41
0.7
  1
1
  50
90.0
  72
0
  73
3
  7
STANDARD
  71
0
  11
2.0508
  21
1.3564
  0
POLYLINE
  8
Pin
  6
CONTINUOUS
  66
1
  70
0
  40
0.0039
  41
0.0039
  0
VERTEX
  8
Pin
  10
2.1
  20
1.3991
  42
0
  0
VERTEX
  8
Pin
  10
2.1
  20
1.2491
  42
0
  0
SEQEND
  0
POLYLINE
  8
Pin
  6
CONTINUOUS
  66
1
  70
0
  40
0.002
  41
0.002
  0
VERTEX
  8
Pin
  10
2.099
  20
1.3991
  42
1
  0
VERTEX
  8
Pin
  10
2.101
  20
1.3991
  42
1
  0
VERTEX
  8
Pin
  10
2.099
  20
1.3991
  42
1
  0
SEQEND
  0
POLYLINE
  8
Pin
  6
CONTINUOUS
  66
1
  70
0
  40
0.002
  41
0.002
  0
VERTEX
  8
Pin
  10
2.099
  20
1.2491
  42
1
  0
VERTEX
  8
Pin
  10
2.101
  20
1.2491
  42
1
  0
VERTEX
  8
Pin
  10
2.099
  20
1.2491
  42
1
  0
SEQEND
  0
TEXT
  8
Pin
  10
2.0508
  20
1.7253
  40
0.0292
  41
0.7
  1
3
  50
90.0
  72
0
  73
3
  7
STANDARD
  71
0
  11
2.0508
  21
1.7253
  0
POLYLINE
  8
Pin
  6
CONTINUOUS
  66
1
  70
0
  40
0.0039
  41
0.0039
  0
VERTEX
  8
Pin
  10
2.1
  20
1.6991
  42
0
  0
VERTEX
  8
Pin
  10
2.1
  20
1.8491
  42
0
  0
SEQEND
  0
POLYLINE
  8
Pin
  6
CONTINUOUS
  66
1
  70
0
  40
0.002
  41
0.002
  0
VERTEX
  8
Pin
  10
2.099
  20
1.6991
  42
1
  0
VERTEX
  8
Pin
  10
2.101
  20
1.6991
  42
1
  0
VERTEX
  8
Pin
  10
2.099
  20
1.6991
  42
1
  0
SEQEND
  0
POLYLINE
  8
Pin
  6
CONTINUOUS
  66
1
  70
0
  40
0.002
  41
0.002
  0
VERTEX
  8
Pin
  10
2.099
  20
1.8491
  42
1
  0
VERTEX
  8
Pin
  10
2.101
  20
1.8491
  42
1
  0
VERTEX
  8
Pin
  10
2.099
  20
1.8491
  42
1
  0
SEQEND
  0
TEXT
  8
Pin
  10
1.1508
  20
0.9253
  40
0.0292
  41
0.7
  1
2
  50
90.0
  72
0
  73
3
  7
STANDARD
  71
0
  11
1.1508
  21
0.9253
  0
POLYLINE
  8
Pin
  6
CONTINUOUS
  66
1
  70
0
  40
0.0039
  41
0.0039
  0
VERTEX
  8
Pin
  10
1.2
  20
0.8991
  42
0
  0
VERTEX
  8
Pin
  10
1.2
  20
1.0491
  42
0
  0
SEQEND
  0
POLYLINE
  8
Pin
  6
CONTINUOUS
  66
1
  70
0
  40
0.002
  41
0.002
  0
VERTEX
  8
Pin
  10
1.199
  20
0.8991
  42
1
  0
VERTEX
  8
Pin
  10
1.201
  20
0.8991
  42
1
  0
VERTEX
  8
Pin
  10
1.199
  20
0.8991
  42
1
  0
SEQEND
  0
POLYLINE
  8
Pin
  6
CONTINUOUS
  66
1
  70
0
  40
0.002
  41
0.002
  0
VERTEX
  8
Pin
  10
1.199
  20
1.0491
  42
1
  0
VERTEX
  8
Pin
  10
1.201
  20
1.0491
  42
1
  0
VERTEX
  8
Pin
  10
1.199
  20
1.0491
  42
1
  0
SEQEND
  0
TEXT
  8
Pin
  10
1.1508
  20
0.5564
  40
0.0292
  41
0.7
  1
1
  50
90.0
  72
0
  73
3
  7
STANDARD
  71
0
  11
1.1508
  21
0.5564
  0
POLYLINE
  8
Pin
  6
CONTINUOUS
  66
1
  70
0
  40
0.0039
  41
0.0039
  0
VERTEX
  8
Pin
  10
1.2
  20
0.5991
  42
0
  0
VERTEX
  8
Pin
  10
1.2
  20
0.4491
  42
0
  0
SEQEND
  0
POLYLINE
  8
Pin
  6
CONTINUOUS
  66
1
  70
0
  40
0.002
  41
0.002
  0
VERTEX
  8
Pin
  10
1.199
  20
0.5991
  42
1
  0
VERTEX
  8
Pin
  10
1.201
  20
0.5991
  42
1
  0
VERTEX
  8
Pin
  10
1.199
  20
0.5991
  42
1
  0
SEQEND
  0
POLYLINE
  8
Pin
  6
CONTINUOUS
  66
1
  70
0
  40
0.002
  41
0.002
  0
VERTEX
  8
Pin
  10
1.199
  20
0.4491
  42
1
  0
VERTEX
  8
Pin
  10
1.201
  20
0.4491
  42
1
  0
VERTEX
  8
Pin
  10
1.199
  20
0.4491
  42
1
  0
SEQEND
  0
TEXT
  8
Pin
  10
1.5508
  20
2.3253
  40
0.0292
  41
0.7
  1
2
  50
90.0
  72
0
  73
3
  7
STANDARD
  71
0
  11
1.5508
  21
2.3253
  0
POLYLINE
  8
Pin
  6
CONTINUOUS
  66
1
  70
0
  40
0.0039
  41
0.0039
  0
VERTEX
  8
Pin
  10
1.6
  20
2.2991
  42
0
  0
VERTEX
  8
Pin
  10
1.6
  20
2.4491
  42
0
  0
SEQEND
  0
POLYLINE
  8
Pin
  6
CONTINUOUS
  66
1
  70
0
  40
0.002
  41
0.002
  0
VERTEX
  8
Pin
  10
1.599
  20
2.2991
  42
1
  0
VERTEX
  8
Pin
  10
1.601
  20
2.2991
  42
1
  0
VERTEX
  8
Pin
  10
1.599
  20
2.2991
  42
1
  0
SEQEND
  0
POLYLINE
  8
Pin
  6
CONTINUOUS
  66
1
  70
0
  40
0.002
  41
0.002
  0
VERTEX
  8
Pin
  10
1.599
  20
2.4491
  42
1
  0
VERTEX
  8
Pin
  10
1.601
  20
2.4491
  42
1
  0
VERTEX
  8
Pin
  10
1.599
  20
2.4491
  42
1
  0
SEQEND
  0
TEXT
  8
Pin
  10
1.5508
  20
1.9564
  40
0.0292
  41
0.7
  1
1
  50
90.0
  72
0
  73
3
  7
STANDARD
  71
0
  11
1.5508
  21
1.9564
  0
POLYLINE
  8
Pin
  6
CONTINUOUS
  66
1
  70
0
  40
0.0039
  41
0.0039
  0
VERTEX
  8
Pin
  10
1.6
  20
1.9991
  42
0
  0
VERTEX
  8
Pin
  10
1.6
  20
1.8491
  42
0
  0
SEQEND
  0
POLYLINE
  8
Pin
  6
CONTINUOUS
  66
1
  70
0
  40
0.002
  41
0.002
  0
VERTEX
  8
Pin
  10
1.599
  20
1.9991
  42
1
  0
VERTEX
  8
Pin
  10
1.601
  20
1.9991
  42
1
  0
VERTEX
  8
Pin
  10
1.599
  20
1.9991
  42
1
  0
SEQEND
  0
POLYLINE
  8
Pin
  6
CONTINUOUS
  66
1
  70
0
  40
0.002
  41
0.002
  0
VERTEX
  8
Pin
  10
1.599
  20
1.8491
  42
1
  0
VERTEX
  8
Pin
  10
1.601
  20
1.8491
  42
1
  0
VERTEX
  8
Pin
  10
1.599
  20
1.8491
  42
1
  0
SEQEND
  0
TEXT
  8
Pin
  10
2.0508
  20
2.6253
  40
0.0292
  41
0.7
  1
2
  50
90.0
  72
0
  73
3
  7
STANDARD
  71
0
  11
2.0508
  21
2.6253
  0
POLYLINE
  8
Pin
  6
CONTINUOUS
  66
1
  70
0
  40
0.0039
  41
0.0039
  0
VERTEX
  8
Pin
  10
2.1
  20
2.5991
  42
0
  0
VERTEX
  8
Pin
  10
2.1
  20
2.7491
  42
0
  0
SEQEND
  0
POLYLINE
  8
Pin
  6
CONTINUOUS
  66
1
  70
0
  40
0.002
  41
0.002
  0
VERTEX
  8
Pin
  10
2.099
  20
2.5991
  42
1
  0
VERTEX
  8
Pin
  10
2.101
  20
2.5991
  42
1
  0
VERTEX
  8
Pin
  10
2.099
  20
2.5991
  42
1
  0
SEQEND
  0
POLYLINE
  8
Pin
  6
CONTINUOUS
  66
1
  70
0
  40
0.002
  41
0.002
  0
VERTEX
  8
Pin
  10
2.099
  20
2.7491
  42
1
  0
VERTEX
  8
Pin
  10
2.101
  20
2.7491
  42
1
  0
VERTEX
  8
Pin
  10
2.099
  20
2.7491
  42
1
  0
SEQEND
  0
TEXT
  8
Pin
  10
2.0508
  20
2.2564
  40
0.0292
  41
0.7
  1
1
  50
90.0
  72
0
  73
3
  7
STANDARD
  71
0
  11
2.0508
  21
2.2564
  0
POLYLINE
  8
Pin
  6
CONTINUOUS
  66
1
  70
0
  40
0.0039
  41
0.0039
  0
VERTEX
  8
Pin
  10
2.1
  20
2.2991
  42
0
  0
VERTEX
  8
Pin
  10
2.1
  20
2.1491
  42
0
  0
SEQEND
  0
POLYLINE
  8
Pin
  6
CONTINUOUS
  66
1
  70
0
  40
0.002
  41
0.002
  0
VERTEX
  8
Pin
  10
2.099
  20
2.2991
  42
1
  0
VERTEX
  8
Pin
  10
2.101
  20
2.2991
  42
1
  0
VERTEX
  8
Pin
  10
2.099
  20
2.2991
  42
1
  0
SEQEND
  0
POLYLINE
  8
Pin
  6
CONTINUOUS
  66
1
  70
0
  40
0.002
  41
0.002
  0
VERTEX
  8
Pin
  10
2.099
  20
2.1491
  42
1
  0
VERTEX
  8
Pin
  10
2.101
  20
2.1491
  42
1
  0
VERTEX
  8
Pin
  10
2.099
  20
2.1491
  42
1
  0
SEQEND
  0
TEXT
  8
Pin
  10
2.7508
  20
1.6253
  40
0.0292
  41
0.7
  1
2
  50
90.0
  72
0
  73
3
  7
STANDARD
  71
0
  11
2.7508
  21
1.6253
  0
POLYLINE
  8
Pin
  6
CONTINUOUS
  66
1
  70
0
  40
0.0039
  41
0.0039
  0
VERTEX
  8
Pin
  10
2.8
  20
1.5991
  42
0
  0
VERTEX
  8
Pin
  10
2.8
  20
1.7491
  42
0
  0
SEQEND
  0
POLYLINE
  8
Pin
  6
CONTINUOUS
  66
1
  70
0
  40
0.002
  41
0.002
  0
VERTEX
  8
Pin
  10
2.799
  20
1.5991
  42
1
  0
VERTEX
  8
Pin
  10
2.801
  20
1.5991
  42
1
  0
VERTEX
  8
Pin
  10
2.799
  20
1.5991
  42
1
  0
SEQEND
  0
POLYLINE
  8
Pin
  6
CONTINUOUS
  66
1
  70
0
  40
0.002
  41
0.002
  0
VERTEX
  8
Pin
  10
2.799
  20
1.7491
  42
1
  0
VERTEX
  8
Pin
  10
2.801
  20
1.7491
  42
1
  0
VERTEX
  8
Pin
  10
2.799
  20
1.7491
  42
1
  0
SEQEND
  0
TEXT
  8
Pin
  10
2.7508
  20
1.2564
  40
0.0292
  41
0.7
  1
1
  50
90.0
  72
0
  73
3
  7
STANDARD
  71
0
  11
2.7508
  21
1.2564
  0
POLYLINE
  8
Pin
  6
CONTINUOUS
  66
1
  70
0
  40
0.0039
  41
0.0039
  0
VERTEX
  8
Pin
  10
2.8
  20
1.2991
  42
0
  0
VERTEX
  8
Pin
  10
2.8
  20
1.1491
  42
0
  0
SEQEND
  0
POLYLINE
  8
Pin
  6
CONTINUOUS
  66
1
  70
0
  40
0.002
  41
0.002
  0
VERTEX
  8
Pin
  10
2.799
  20
1.2991
  42
1
  0
VERTEX
  8
Pin
  10
2.801
  20
1.2991
  42
1
  0
VERTEX
  8
Pin
  10
2.799
  20
1.2991
  42
1
  0
SEQEND
  0
POLYLINE
  8
Pin
  6
CONTINUOUS
  66
1
  70
0
  40
0.002
  41
0.002
  0
VERTEX
  8
Pin
  10
2.799
  20
1.1491
  42
1
  0
VERTEX
  8
Pin
  10
2.801
  20
1.1491
  42
1
  0
VERTEX
  8
Pin
  10
2.799
  20
1.1491
  42
1
  0
SEQEND
  0
TEXT
  8
Pin
  10
4.6508
  20
2.6253
  40
0.0292
  41
0.7
  1
2
  50
90.0
  72
0
  73
3
  7
STANDARD
  71
0
  11
4.6508
  21
2.6253
  0
POLYLINE
  8
Pin
  6
CONTINUOUS
  66
1
  70
0
  40
0.0039
  41
0.0039
  0
VERTEX
  8
Pin
  10
4.7
  20
2.5991
  42
0
  0
VERTEX
  8
Pin
  10
4.7
  20
2.7491
  42
0
  0
SEQEND
  0
POLYLINE
  8
Pin
  6
CONTINUOUS
  66
1
  70
0
  40
0.002
  41
0.002
  0
VERTEX
  8
Pin
  10
4.699
  20
2.5991
  42
1
  0
VERTEX
  8
Pin
  10
4.701
  20
2.5991
  42
1
  0
VERTEX
  8
Pin
  10
4.699
  20
2.5991
  42
1
  0
SEQEND
  0
POLYLINE
  8
Pin
  6
CONTINUOUS
  66
1
  70
0
  40
0.002
  41
0.002
  0
VERTEX
  8
Pin
  10
4.699
  20
2.7491
  42
1
  0
VERTEX
  8
Pin
  10
4.701
  20
2.7491
  42
1
  0
VERTEX
  8
Pin
  10
4.699
  20
2.7491
  42
1
  0
SEQEND
  0
TEXT
  8
Pin
  10
4.6508
  20
2.2564
  40
0.0292
  41
0.7
  1
1
  50
90.0
  72
0
  73
3
  7
STANDARD
  71
0
  11
4.6508
  21
2.2564
  0
POLYLINE
  8
Pin
  6
CONTINUOUS
  66
1
  70
0
  40
0.0039
  41
0.0039
  0
VERTEX
  8
Pin
  10
4.7
  20
2.2991
  42
0
  0
VERTEX
  8
Pin
  10
4.7
  20
2.1491
  42
0
  0
SEQEND
  0
POLYLINE
  8
Pin
  6
CONTINUOUS
  66
1
  70
0
  40
0.002
  41
0.002
  0
VERTEX
  8
Pin
  10
4.699
  20
2.2991
  42
1
  0
VERTEX
  8
Pin
  10
4.701
  20
2.2991
  42
1
  0
VERTEX
  8
Pin
  10
4.699
  20
2.2991
  42
1
  0
SEQEND
  0
POLYLINE
  8
Pin
  6
CONTINUOUS
  66
1
  70
0
  40
0.002
  41
0.002
  0
VERTEX
  8
Pin
  10
4.699
  20
2.1491
  42
1
  0
VERTEX
  8
Pin
  10
4.701
  20
2.1491
  42
1
  0
VERTEX
  8
Pin
  10
4.699
  20
2.1491
  42
1
  0
SEQEND
  0
TEXT
  8
Pin
  10
2.4024
  20
1.8983
  40
0.0292
  41
0.7
  1
1
  50
0.0
  72
0
  73
3
  7
STANDARD
  71
0
  11
2.4024
  21
1.8983
  0
POLYLINE
  8
Pin
  6
CONTINUOUS
  66
1
  70
0
  40
0.0039
  41
0.0039
  0
VERTEX
  8
Pin
  10
2.45
  20
1.8491
  42
0
  0
VERTEX
  8
Pin
  10
2.3
  20
1.8491
  42
0
  0
SEQEND
  0
POLYLINE
  8
Pin
  6
CONTINUOUS
  66
1
  70
0
  40
0.002
  41
0.002
  0
VERTEX
  8
Pin
  10
2.449
  20
1.8491
  42
1
  0
VERTEX
  8
Pin
  10
2.451
  20
1.8491
  42
1
  0
VERTEX
  8
Pin
  10
2.449
  20
1.8491
  42
1
  0
SEQEND
  0
POLYLINE
  8
Pin
  6
CONTINUOUS
  66
1
  70
0
  40
0.002
  41
0.002
  0
VERTEX
  8
Pin
  10
2.299
  20
1.8491
  42
1
  0
VERTEX
  8
Pin
  10
2.301
  20
1.8491
  42
1
  0
VERTEX
  8
Pin
  10
2.299
  20
1.8491
  42
1
  0
SEQEND
  0
TEXT
  8
Pin
  10
2.5762
  20
1.8983
  40
0.0292
  41
0.7
  1
2
  50
0.0
  72
0
  73
3
  7
STANDARD
  71
0
  11
2.5762
  21
1.8983
  0
POLYLINE
  8
Pin
  6
CONTINUOUS
  66
1
  70
0
  40
0.0039
  41
0.0039
  0
VERTEX
  8
Pin
  10
2.55
  20
1.8491
  42
0
  0
VERTEX
  8
Pin
  10
2.7
  20
1.8491
  42
0
  0
SEQEND
  0
POLYLINE
  8
Pin
  6
CONTINUOUS
  66
1
  70
0
  40
0.002
  41
0.002
  0
VERTEX
  8
Pin
  10
2.549
  20
1.8491
  42
1
  0
VERTEX
  8
Pin
  10
2.551
  20
1.8491
  42
1
  0
VERTEX
  8
Pin
  10
2.549
  20
1.8491
  42
1
  0
SEQEND
  0
POLYLINE
  8
Pin
  6
CONTINUOUS
  66
1
  70
0
  40
0.002
  41
0.002
  0
VERTEX
  8
Pin
  10
2.699
  20
1.8491
  42
1
  0
VERTEX
  8
Pin
  10
2.701
  20
1.8491
  42
1
  0
VERTEX
  8
Pin
  10
2.699
  20
1.8491
  42
1
  0
SEQEND
  0
TEXT
  8
Pin
  10
4.6508
  20
0.7253
  40
0.0292
  41
0.7
  1
1
  50
90.0
  72
0
  73
3
  7
STANDARD
  71
0
  11
4.6508
  21
0.7253
  0
POLYLINE
  8
Pin
  6
CONTINUOUS
  66
1
  70
0
  40
0.0039
  41
0.0039
  0
VERTEX
  8
Pin
  10
4.7
  20
0.6991
  42
0
  0
VERTEX
  8
Pin
  10
4.7
  20
0.8491
  42
0
  0
SEQEND
  0
POLYLINE
  8
Pin
  6
CONTINUOUS
  66
1
  70
0
  40
0.002
  41
0.002
  0
VERTEX
  8
Pin
  10
4.699
  20
0.6991
  42
1
  0
VERTEX
  8
Pin
  10
4.701
  20
0.6991
  42
1
  0
VERTEX
  8
Pin
  10
4.699
  20
0.6991
  42
1
  0
SEQEND
  0
POLYLINE
  8
Pin
  6
CONTINUOUS
  66
1
  70
0
  40
0.002
  41
0.002
  0
VERTEX
  8
Pin
  10
4.699
  20
0.8491
  42
1
  0
VERTEX
  8
Pin
  10
4.701
  20
0.8491
  42
1
  0
VERTEX
  8
Pin
  10
4.699
  20
0.8491
  42
1
  0
SEQEND
  0
TEXT
  8
Pin
  10
4.6508
  20
0.5564
  40
0.0292
  41
0.7
  1
2
  50
90.0
  72
0
  73
3
  7
STANDARD
  71
0
  11
4.6508
  21
0.5564
  0
POLYLINE
  8
Pin
  6
CONTINUOUS
  66
1
  70
0
  40
0.0039
  41
0.0039
  0
VERTEX
  8
Pin
  10
4.7
  20
0.5991
  42
0
  0
VERTEX
  8
Pin
  10
4.7
  20
0.4491
  42
0
  0
SEQEND
  0
POLYLINE
  8
Pin
  6
CONTINUOUS
  66
1
  70
0
  40
0.002
  41
0.002
  0
VERTEX
  8
Pin
  10
4.699
  20
0.5991
  42
1
  0
VERTEX
  8
Pin
  10
4.701
  20
0.5991
  42
1
  0
VERTEX
  8
Pin
  10
4.699
  20
0.5991
  42
1
  0
SEQEND
  0
POLYLINE
  8
Pin
  6
CONTINUOUS
  66
1
  70
0
  40
0.002
  41
0.002
  0
VERTEX
  8
Pin
  10
4.699
  20
0.4491
  42
1
  0
VERTEX
  8
Pin
  10
4.701
  20
0.4491
  42
1
  0
VERTEX
  8
Pin
  10
4.699
  20
0.4491
  42
1
  0
SEQEND
  0
TEXT
  8
Pin
  10
0.5508
  20
1.7253
  40
0.0292
  41
0.7
  1
1
  50
90.0
  72
0
  73
3
  7
STANDARD
  71
0
  11
0.5508
  21
1.7253
  0
POLYLINE
  8
Pin
  6
CONTINUOUS
  66
1
  70
0
  40
0.0039
  41
0.0039
  0
VERTEX
  8
Pin
  10
0.6
  20
1.6991
  42
0
  0
VERTEX
  8
Pin
  10
0.6
  20
1.8491
  42
0
  0
SEQEND
  0
POLYLINE
  8
Pin
  6
CONTINUOUS
  66
1
  70
0
  40
0.002
  41
0.002
  0
VERTEX
  8
Pin
  10
0.599
  20
1.6991
  42
1
  0
VERTEX
  8
Pin
  10
0.601
  20
1.6991
  42
1
  0
VERTEX
  8
Pin
  10
0.599
  20
1.6991
  42
1
  0
SEQEND
  0
POLYLINE
  8
Pin
  6
CONTINUOUS
  66
1
  70
0
  40
0.002
  41
0.002
  0
VERTEX
  8
Pin
  10
0.599
  20
1.8491
  42
1
  0
VERTEX
  8
Pin
  10
0.601
  20
1.8491
  42
1
  0
VERTEX
  8
Pin
  10
0.599
  20
1.8491
  42
1
  0
SEQEND
  0
TEXT
  8
Pin
  10
0.5508
  20
1.5564
  40
0.0292
  41
0.7
  1
2
  50
90.0
  72
0
  73
3
  7
STANDARD
  71
0
  11
0.5508
  21
1.5564
  0
POLYLINE
  8
Pin
  6
CONTINUOUS
  66
1
  70
0
  40
0.0039
  41
0.0039
  0
VERTEX
  8
Pin
  10
0.6
  20
1.5991
  42
0
  0
VERTEX
  8
Pin
  10
0.6
  20
1.4491
  42
0
  0
SEQEND
  0
POLYLINE
  8
Pin
  6
CONTINUOUS
  66
1
  70
0
  40
0.002
  41
0.002
  0
VERTEX
  8
Pin
  10
0.599
  20
1.5991
  42
1
  0
VERTEX
  8
Pin
  10
0.601
  20
1.5991
  42
1
  0
VERTEX
  8
Pin
  10
0.599
  20
1.5991
  42
1
  0
SEQEND
  0
POLYLINE
  8
Pin
  6
CONTINUOUS
  66
1
  70
0
  40
0.002
  41
0.002
  0
VERTEX
  8
Pin
  10
0.599
  20
1.4491
  42
1
  0
VERTEX
  8
Pin
  10
0.601
  20
1.4491
  42
1
  0
VERTEX
  8
Pin
  10
0.599
  20
1.4491
  42
1
  0
SEQEND
  0
ENDSEC
  0
EOF
